<?xml version="1.0" encoding="UTF-8"?>
<!--Generator: Apple Native CoreSVG 175-->
<!DOCTYPE svg
PUBLIC "-//W3C//DTD SVG 1.1//EN"
       "http://www.w3.org/Graphics/SVG/1.1/DTD/svg11.dtd">
<svg version="1.1" xmlns="http://www.w3.org/2000/svg" xmlns:xlink="http://www.w3.org/1999/xlink" width="3300" height="2200">
 <!--glyph: "", point size: 100.0, font version: "17.1d1e1", template writer version: "65.1"-->
 <g id="Notes">
  <rect height="2200" id="artboard" style="fill:white;opacity:1" width="3300" x="0" y="0"/>
  <line style="fill:none;stroke:black;opacity:1;stroke-width:0.5;" x1="263" x2="3036" y1="292" y2="292"/>
  <text style="stroke:none;fill:black;font-family:sans-serif;font-size:13;font-weight:bold;" transform="matrix(1 0 0 1 263 322)">Weight/Scale Variations</text>
  <text style="stroke:none;fill:black;font-family:sans-serif;font-size:13;text-anchor:middle;" transform="matrix(1 0 0 1 559.711 322)">Ultralight</text>
  <text style="stroke:none;fill:black;font-family:sans-serif;font-size:13;text-anchor:middle;" transform="matrix(1 0 0 1 856.422 322)">Thin</text>
  <text style="stroke:none;fill:black;font-family:sans-serif;font-size:13;text-anchor:middle;" transform="matrix(1 0 0 1 1153.13 322)">Light</text>
  <text style="stroke:none;fill:black;font-family:sans-serif;font-size:13;text-anchor:middle;" transform="matrix(1 0 0 1 1449.84 322)">Regular</text>
  <text style="stroke:none;fill:black;font-family:sans-serif;font-size:13;text-anchor:middle;" transform="matrix(1 0 0 1 1746.56 322)">Medium</text>
  <text style="stroke:none;fill:black;font-family:sans-serif;font-size:13;text-anchor:middle;" transform="matrix(1 0 0 1 2043.27 322)">Semibold</text>
  <text style="stroke:none;fill:black;font-family:sans-serif;font-size:13;text-anchor:middle;" transform="matrix(1 0 0 1 2339.98 322)">Bold</text>
  <text style="stroke:none;fill:black;font-family:sans-serif;font-size:13;text-anchor:middle;" transform="matrix(1 0 0 1 2636.69 322)">Heavy</text>
  <text style="stroke:none;fill:black;font-family:sans-serif;font-size:13;text-anchor:middle;" transform="matrix(1 0 0 1 2933.4 322)">Black</text>
  <line style="fill:none;stroke:black;opacity:1;stroke-width:0.5;" x1="263" x2="3036" y1="1903" y2="1903"/>
  <g transform="matrix(1 0 0 1 263 1933)">
   <path d="M9.24805 0.830078Q10.8691 0.830078 12.2949 0.214844Q13.7207-0.400391 14.8096-1.49414Q15.8984-2.58789 16.5186-4.01367Q17.1387-5.43945 17.1387-7.05078Q17.1387-8.66211 16.5186-10.0879Q15.8984-11.5137 14.8047-12.6074Q13.7109-13.7012 12.2852-14.3164Q10.8594-14.9316 9.23828-14.9316Q7.62695-14.9316 6.20117-14.3164Q4.77539-13.7012 3.69141-12.6074Q2.60742-11.5137 1.9873-10.0879Q1.36719-8.66211 1.36719-7.05078Q1.36719-5.43945 1.9873-4.01367Q2.60742-2.58789 3.69629-1.49414Q4.78516-0.400391 6.21094 0.214844Q7.63672 0.830078 9.24805 0.830078ZM9.24805-0.654297Q7.91992-0.654297 6.7627-1.14746Q5.60547-1.64062 4.73145-2.51953Q3.85742-3.39844 3.36426-4.56055Q2.87109-5.72266 2.87109-7.05078Q2.87109-8.37891 3.35938-9.54102Q3.84766-10.7031 4.72168-11.582Q5.5957-12.4609 6.75293-12.9541Q7.91016-13.4473 9.23828-13.4473Q10.5762-13.4473 11.7334-12.9541Q12.8906-12.4609 13.7695-11.582Q14.6484-10.7031 15.1465-9.54102Q15.6445-8.37891 15.6445-7.05078Q15.6445-5.72266 15.1514-4.56055Q14.6582-3.39844 13.7842-2.51953Q12.9102-1.64062 11.748-1.14746Q10.5859-0.654297 9.24805-0.654297ZM5.6543-7.05078Q5.6543-6.72852 5.85938-6.52832Q6.06445-6.32812 6.40625-6.32812L8.51562-6.32812L8.51562-4.20898Q8.51562-3.88672 8.71094-3.67676Q8.90625-3.4668 9.23828-3.4668Q9.56055-3.4668 9.77051-3.67676Q9.98047-3.88672 9.98047-4.20898L9.98047-6.32812L12.0898-6.32812Q12.4219-6.32812 12.627-6.52832Q12.832-6.72852 12.832-7.05078Q12.832-7.38281 12.627-7.58789Q12.4219-7.79297 12.0898-7.79297L9.98047-7.79297L9.98047-9.90234Q9.98047-10.2344 9.77051-10.4443Q9.56055-10.6543 9.23828-10.6543Q8.90625-10.6543 8.71094-10.4443Q8.51562-10.2344 8.51562-9.90234L8.51562-7.79297L6.40625-7.79297Q6.06445-7.79297 5.85938-7.58789Q5.6543-7.38281 5.6543-7.05078Z"/>
  </g>
  <g transform="matrix(1 0 0 1 281.867 1933)">
   <path d="M11.709 2.91016Q13.75 2.91016 15.5518 2.12891Q17.3535 1.34766 18.7305-0.0292969Q20.1074-1.40625 20.8887-3.20801Q21.6699-5.00977 21.6699-7.05078Q21.6699-9.0918 20.8887-10.8936Q20.1074-12.6953 18.7305-14.0723Q17.3535-15.4492 15.5469-16.2305Q13.7402-17.0117 11.6992-17.0117Q9.6582-17.0117 7.85645-16.2305Q6.05469-15.4492 4.68262-14.0723Q3.31055-12.6953 2.5293-10.8936Q1.74805-9.0918 1.74805-7.05078Q1.74805-5.00977 2.5293-3.20801Q3.31055-1.40625 4.6875-0.0292969Q6.06445 1.34766 7.86621 2.12891Q9.66797 2.91016 11.709 2.91016ZM11.709 1.25Q9.98047 1.25 8.47656 0.605469Q6.97266-0.0390625 5.83496-1.17676Q4.69727-2.31445 4.05762-3.81836Q3.41797-5.32227 3.41797-7.05078Q3.41797-8.7793 4.05762-10.2832Q4.69727-11.7871 5.83008-12.9297Q6.96289-14.0723 8.4668-14.7119Q9.9707-15.3516 11.6992-15.3516Q13.4277-15.3516 14.9316-14.7119Q16.4355-14.0723 17.5781-12.9297Q18.7207-11.7871 19.3652-10.2832Q20.0098-8.7793 20.0098-7.05078Q20.0098-5.32227 19.3701-3.81836Q18.7305-2.31445 17.5928-1.17676Q16.4551-0.0390625 14.9463 0.605469Q13.4375 1.25 11.709 1.25ZM7.17773-7.05078Q7.17773-6.69922 7.41211-6.47461Q7.64648-6.25 8.01758-6.25L10.8887-6.25L10.8887-3.36914Q10.8887-2.99805 11.1133-2.76855Q11.3379-2.53906 11.6895-2.53906Q12.0605-2.53906 12.29-2.76855Q12.5195-2.99805 12.5195-3.36914L12.5195-6.25L15.4004-6.25Q15.7715-6.25 16.001-6.47461Q16.2305-6.69922 16.2305-7.05078Q16.2305-7.42188 16.001-7.65137Q15.7715-7.88086 15.4004-7.88086L12.5195-7.88086L12.5195-10.752Q12.5195-11.1328 12.29-11.3623Q12.0605-11.5918 11.6895-11.5918Q11.3379-11.5918 11.1133-11.3574Q10.8887-11.123 10.8887-10.752L10.8887-7.88086L8.01758-7.88086Q7.63672-7.88086 7.40723-7.65137Q7.17773-7.42188 7.17773-7.05078Z"/>
  </g>
  <g transform="matrix(1 0 0 1 305.646 1933)">
   <path d="M14.9707 5.66406Q17.0605 5.66406 18.96 5.01465Q20.8594 4.36523 22.4512 3.19336Q24.043 2.02148 25.2197 0.429688Q26.3965-1.16211 27.0459-3.06641Q27.6953-4.9707 27.6953-7.05078Q27.6953-9.14062 27.0459-11.04Q26.3965-12.9395 25.2197-14.5312Q24.043-16.123 22.4512-17.2998Q20.8594-18.4766 18.9551-19.126Q17.0508-19.7754 14.9609-19.7754Q12.8711-19.7754 10.9717-19.126Q9.07227-18.4766 7.48535-17.2998Q5.89844-16.123 4.72168-14.5312Q3.54492-12.9395 2.90039-11.04Q2.25586-9.14062 2.25586-7.05078Q2.25586-4.9707 2.90527-3.06641Q3.55469-1.16211 4.72656 0.429688Q5.89844 2.02148 7.49023 3.19336Q9.08203 4.36523 10.9814 5.01465Q12.8809 5.66406 14.9707 5.66406ZM14.9707 3.84766Q13.1641 3.84766 11.5283 3.2959Q9.89258 2.74414 8.53516 1.74805Q7.17773 0.751953 6.17676-0.610352Q5.17578-1.97266 4.62891-3.6084Q4.08203-5.24414 4.08203-7.05078Q4.08203-8.86719 4.62891-10.5029Q5.17578-12.1387 6.17188-13.501Q7.16797-14.8633 8.52539-15.8594Q9.88281-16.8555 11.5186-17.4023Q13.1543-17.9492 14.9609-17.9492Q16.7773-17.9492 18.4131-17.4023Q20.0488-16.8555 21.4111-15.8594Q22.7734-14.8633 23.7695-13.501Q24.7656-12.1387 25.3174-10.5029Q25.8691-8.86719 25.8691-7.05078Q25.8789-5.24414 25.332-3.6084Q24.7852-1.97266 23.7842-0.610352Q22.7832 0.751953 21.4209 1.74805Q20.0586 2.74414 18.4229 3.2959Q16.7871 3.84766 14.9707 3.84766ZM9.19922-7.05078Q9.19922-6.66992 9.45801-6.4209Q9.7168-6.17188 10.1172-6.17188L14.0625-6.17188L14.0625-2.2168Q14.0625-1.81641 14.3115-1.55762Q14.5605-1.29883 14.9512-1.29883Q15.3516-1.29883 15.6104-1.55273Q15.8691-1.80664 15.8691-2.2168L15.8691-6.17188L19.8242-6.17188Q20.2246-6.17188 20.4785-6.4209Q20.7324-6.66992 20.7324-7.05078Q20.7324-7.46094 20.4785-7.71484Q20.2246-7.96875 19.8242-7.96875L15.8691-7.96875L15.8691-11.9141Q15.8691-12.3242 15.6104-12.583Q15.3516-12.8418 14.9512-12.8418Q14.5605-12.8418 14.3115-12.583Q14.0625-12.3242 14.0625-11.9141L14.0625-7.96875L10.1172-7.96875Q9.70703-7.96875 9.45312-7.71484Q9.19922-7.46094 9.19922-7.05078Z"/>
  </g>
  <text style="stroke:none;fill:black;font-family:sans-serif;font-size:13;font-weight:bold;" transform="matrix(1 0 0 1 263 1953)">Design Variations</text>
  <text style="stroke:none;fill:black;font-family:sans-serif;font-size:13;" transform="matrix(1 0 0 1 263 1971)">Symbols are supported in up to nine weights and three scales.</text>
  <text style="stroke:none;fill:black;font-family:sans-serif;font-size:13;" transform="matrix(1 0 0 1 263 1989)">For optimal layout with text and other symbols, vertically align</text>
  <text style="stroke:none;fill:black;font-family:sans-serif;font-size:13;" transform="matrix(1 0 0 1 263 2007)">symbols with the adjacent text.</text>
  <line style="fill:none;stroke:#00AEEF;stroke-width:0.5;opacity:1.0;" x1="776" x2="776" y1="1919" y2="1933"/>
  <g transform="matrix(1 0 0 1 776 1933)">
   <path d="M3.31055 0.15625Q3.70117 0.15625 3.91602-0.00976562Q4.13086-0.175781 4.26758-0.585938L5.52734-4.0332L11.2891-4.0332L12.5488-0.585938Q12.6855-0.175781 12.9004-0.00976562Q13.1152 0.15625 13.4961 0.15625Q13.8867 0.15625 14.1162-0.0585938Q14.3457-0.273438 14.3457-0.644531Q14.3457-0.869141 14.2383-1.17188L9.6582-13.3691Q9.48242-13.8184 9.17969-14.043Q8.87695-14.2676 8.4082-14.2676Q7.5-14.2676 7.17773-13.3789L2.59766-1.16211Q2.49023-0.859375 2.49023-0.634766Q2.49023-0.263672 2.70996-0.0537109Q2.92969 0.15625 3.31055 0.15625ZM6.00586-5.51758L8.37891-12.0898L8.42773-12.0898L10.8008-5.51758Z"/>
  </g>
  <line style="fill:none;stroke:#00AEEF;stroke-width:0.5;opacity:1.0;" x1="793.197" x2="793.197" y1="1919" y2="1933"/>
  <text style="stroke:none;fill:black;font-family:sans-serif;font-size:13;font-weight:bold;" transform="matrix(1 0 0 1 776 1953)">Margins</text>
  <text style="stroke:none;fill:black;font-family:sans-serif;font-size:13;" transform="matrix(1 0 0 1 776 1971)">Leading and trailing margins on the left and right side of each symbol</text>
  <text style="stroke:none;fill:black;font-family:sans-serif;font-size:13;" transform="matrix(1 0 0 1 776 1989)">can be adjusted by modifying the x-location of the margin guidelines.</text>
  <text style="stroke:none;fill:black;font-family:sans-serif;font-size:13;" transform="matrix(1 0 0 1 776 2007)">Modifications are automatically applied proportionally to all</text>
  <text style="stroke:none;fill:black;font-family:sans-serif;font-size:13;" transform="matrix(1 0 0 1 776 2025)">scales and weights.</text>
  <g transform="matrix(1 0 0 1 1289 1933)">
   <path d="M2.8418 1.86523L4.54102 3.57422Q5.18555 4.22852 5.90332 4.17969Q6.62109 4.13086 7.31445 3.35938L18.0078-8.42773L17.041-9.4043L6.42578 2.27539Q6.16211 2.57812 5.89355 2.61719Q5.625 2.65625 5.27344 2.30469L4.10156 1.14258Q3.75 0.791016 3.79395 0.522461Q3.83789 0.253906 4.14062-0.0195312L15.6152-10.8203L14.6387-11.7871L3.04688-0.898438Q2.30469-0.214844 2.25098 0.498047Q2.19727 1.21094 2.8418 1.86523ZM9.25781-16.3281Q8.94531-16.0254 8.90625-15.6348Q8.86719-15.2441 9.04297-14.9512Q9.21875-14.6777 9.55566-14.541Q9.89258-14.4043 10.3809-14.5215Q11.4746-14.7754 12.5977-14.7314Q13.7207-14.6875 14.7949-13.9844L14.209-12.5293Q13.9551-11.9043 14.0674-11.4404Q14.1797-10.9766 14.5801-10.5664L16.875-8.25195Q17.2363-7.88086 17.5781-7.82227Q17.9199-7.76367 18.3398-7.8418L19.4043-8.03711L20.0684-7.36328L20.0293-6.80664Q20-6.43555 20.1221-6.12305Q20.2441-5.81055 20.6055-5.44922L21.3672-4.70703Q21.7285-4.3457 22.1533-4.33105Q22.5781-4.31641 22.9297-4.66797L25.8398-7.58789Q26.1914-7.93945 26.1816-8.35449Q26.1719-8.76953 25.8105-9.13086L25.0391-9.89258Q24.6875-10.2539 24.3799-10.3857Q24.0723-10.5176 23.7109-10.4883L23.1348-10.4395L22.4902-11.0742L22.7344-12.1973Q22.832-12.6172 22.6953-12.9834Q22.5586-13.3496 22.1191-13.7891L19.9219-15.9766Q18.6719-17.2168 17.2607-17.8369Q15.8496-18.457 14.4189-18.4814Q12.9883-18.5059 11.665-17.959Q10.3418-17.4121 9.25781-16.3281ZM10.752-15.957Q11.6602-16.6211 12.7002-16.9043Q13.7402-17.1875 14.8047-17.085Q15.8691-16.9824 16.8701-16.5137Q17.8711-16.0449 18.7012-15.2051L21.1328-12.793Q21.3086-12.6172 21.3525-12.4512Q21.3965-12.2852 21.3379-12.0312L21.0156-10.5469L22.5195-9.0625L23.5059-9.12109Q23.6914-9.13086 23.7891-9.09668Q23.8867-9.0625 24.0332-8.91602L24.6094-8.33984L22.168-5.89844L21.5918-6.47461Q21.4453-6.62109 21.4062-6.71875Q21.3672-6.81641 21.377-7.01172L21.4453-7.98828L19.9512-9.47266L18.4277-9.21875Q18.1836-9.16992 18.042-9.2041Q17.9004-9.23828 17.7148-9.41406L15.7129-11.416Q15.5176-11.5918 15.4932-11.7529Q15.4688-11.9141 15.5859-12.1875L16.4648-14.2773Q15.293-15.3711 13.8281-15.791Q12.3633-16.2109 10.8398-15.7617Q10.7227-15.7324 10.6885-15.8057Q10.6543-15.8789 10.752-15.957Z"/>
  </g>
  <text style="stroke:none;fill:black;font-family:sans-serif;font-size:13;font-weight:bold;" transform="matrix(1 0 0 1 1289 1953)">Exporting</text>
  <text style="stroke:none;fill:black;font-family:sans-serif;font-size:13;" transform="matrix(1 0 0 1 1289 1971)">Symbols should be outlined when exporting to ensure the</text>
  <text style="stroke:none;fill:black;font-family:sans-serif;font-size:13;" transform="matrix(1 0 0 1 1289 1989)">design is preserved when submitting to Xcode.</text>
  <text id="template-version" style="stroke:none;fill:black;font-family:sans-serif;font-size:13;text-anchor:end;" transform="matrix(1 0 0 1 3036 1933)">Template v.3.0</text>
  <text style="stroke:none;fill:black;font-family:sans-serif;font-size:13;text-anchor:end;" transform="matrix(1 0 0 1 3036 1951)">Requires Xcode 13 or greater</text>
  <text id="descriptive-name" style="stroke:none;fill:black;font-family:sans-serif;font-size:13;text-anchor:end;" transform="matrix(1 0 0 1 3036 1969)">Generated from custom.pawprint.fill</text>
  <text style="stroke:none;fill:black;font-family:sans-serif;font-size:13;text-anchor:end;" transform="matrix(1 0 0 1 3036 1987)">Typeset at 100 points</text>
  <text style="stroke:none;fill:black;font-family:sans-serif;font-size:13;" transform="matrix(1 0 0 1 263 726)">Small</text>
  <text style="stroke:none;fill:black;font-family:sans-serif;font-size:13;" transform="matrix(1 0 0 1 263 1156)">Medium</text>
  <text style="stroke:none;fill:black;font-family:sans-serif;font-size:13;" transform="matrix(1 0 0 1 263 1586)">Large</text>
 </g>
 <g id="Guides">
  <g id="H-reference" style="fill:#27AAE1;stroke:none;" transform="matrix(1 0 0 1 339 696)">
   <path d="M0.993347 0L3.6377 0L29.3282-67.1326L30.0301-67.1326L30.0301-70.459L28.1227-70.459ZM11.6882-24.4797L46.9818-24.4797L46.2311-26.7288L12.4382-26.7288ZM55.1193 0L57.7637 0L30.6381-70.459L29.4327-70.459L29.4327-67.1326Z"/>
  </g>
  <line id="Baseline-S" style="fill:none;stroke:#27AAE1;opacity:1;stroke-width:0.5;" x1="263" x2="3036" y1="696" y2="696"/>
  <line id="Capline-S" style="fill:none;stroke:#27AAE1;opacity:1;stroke-width:0.5;" x1="263" x2="3036" y1="625.541" y2="625.541"/>
  <g id="H-reference" style="fill:#27AAE1;stroke:none;" transform="matrix(1 0 0 1 339 1126)">
   <path d="M0.993347 0L3.6377 0L29.3282-67.1326L30.0301-67.1326L30.0301-70.459L28.1227-70.459ZM11.6882-24.4797L46.9818-24.4797L46.2311-26.7288L12.4382-26.7288ZM55.1193 0L57.7637 0L30.6381-70.459L29.4327-70.459L29.4327-67.1326Z"/>
  </g>
  <line id="Baseline-M" style="fill:none;stroke:#27AAE1;opacity:1;stroke-width:0.5;" x1="263" x2="3036" y1="1126" y2="1126"/>
  <line id="Capline-M" style="fill:none;stroke:#27AAE1;opacity:1;stroke-width:0.5;" x1="263" x2="3036" y1="1055.54" y2="1055.54"/>
  <g id="H-reference" style="fill:#27AAE1;stroke:none;" transform="matrix(1 0 0 1 339 1556)">
   <path d="M0.993347 0L3.6377 0L29.3282-67.1326L30.0301-67.1326L30.0301-70.459L28.1227-70.459ZM11.6882-24.4797L46.9818-24.4797L46.2311-26.7288L12.4382-26.7288ZM55.1193 0L57.7637 0L30.6381-70.459L29.4327-70.459L29.4327-67.1326Z"/>
  </g>
  <line id="Baseline-L" style="fill:none;stroke:#27AAE1;opacity:1;stroke-width:0.5;" x1="263" x2="3036" y1="1556" y2="1556"/>
  <line id="Capline-L" style="fill:none;stroke:#27AAE1;opacity:1;stroke-width:0.5;" x1="263" x2="3036" y1="1485.54" y2="1485.54"/>
  <line id="left-margin-Ultralight-S" style="fill:none;stroke:#00AEEF;stroke-width:0.5;opacity:1.0;" x1="509.666" x2="509.666" y1="600.784" y2="720.121"/>
  <line id="right-margin-Ultralight-S" style="fill:none;stroke:#00AEEF;stroke-width:0.5;opacity:1.0;" x1="609.757" x2="609.757" y1="600.784" y2="720.121"/>
  <line id="left-margin-Regular-S" style="fill:none;stroke:#00AEEF;stroke-width:0.5;opacity:1.0;" x1="1399.84" x2="1399.84" y1="600.784" y2="720.121"/>
  <line id="right-margin-Regular-S" style="fill:none;stroke:#00AEEF;stroke-width:0.5;opacity:1.0;" x1="1499.84" x2="1499.84" y1="600.784" y2="720.121"/>
  <line id="left-margin-Black-S" style="fill:none;stroke:#00AEEF;stroke-width:0.5;opacity:1.0;" x1="2877.98" x2="2877.98" y1="600.784" y2="720.121"/>
  <line id="right-margin-Black-S" style="fill:none;stroke:#00AEEF;stroke-width:0.5;opacity:1.0;" x1="2988.82" x2="2988.82" y1="600.784" y2="720.121"/>
 </g>
 <g id="Symbols">
  <g id="Black-S" transform="matrix(1 0 0 1 2877.98 696)">
    <path d="M55.3438-92.38C54.9563-92.38 53.5884-88.3652 53.4375-85.7862C53.2866-83.2073 53.1562-82.5675 53.1562-82.5675C53.1562-82.5675 52.4622-82.2593 52.125-82.0362C51.7878-81.8132 51.4454-81.5524 51.125-81.255C50.8046-80.9576 50.5056-80.6374 50.2188-80.2862C49.9319-79.9351 49.6596-79.5348 49.4062-79.13C49.1529-78.7252 48.9073-78.3073 48.6875-77.8487C48.4677-77.3902 48.28-76.8922 48.0938-76.38C47.9075-75.8677 47.7335-75.3587 47.5938-74.8175C47.454-74.2763 47.3431-73.7001 47.25-73.13C47.1569-72.5599 47.0778-71.979 47.0312-71.38C46.9847-70.781 46.9688-70.1642 46.9688-69.5362C46.9687-68.9166 46.9847-68.3165 47.0312-67.7237C47.0778-67.131 47.1569-66.5397 47.25-65.9737C47.3431-65.4078 47.454-64.8566 47.5938-64.3175C47.7334-63.7784 47.9075-63.2673 48.0938-62.755C48.28-62.2428 48.4677-61.7458 48.6875-61.2862C48.9073-60.8267 49.1529-60.4119 49.4062-60.005C49.6596-59.5981 49.9319-59.203 50.2188-58.8487C50.5056-58.4945 50.8046-58.1816 51.125-57.88C51.4454-57.5784 51.7878-57.2937 52.125-57.0675C52.4622-56.8413 52.8023-56.6558 53.1562-56.505C53.5102-56.3542 53.8793-56.2366 54.25-56.1612C54.6207-56.0859 54.9875-56.0675 55.375-56.0675C55.7625-56.0675 56.1302-56.0859 56.5-56.1612C56.8698-56.2366 57.2417-56.3542 57.5938-56.505C57.9458-56.6558 58.2906-56.8413 58.625-57.0675C58.9594-57.2937 59.2771-57.5784 59.5938-57.88C59.9104-58.1816 60.215-58.4955 60.5-58.8487C60.785-59.202 61.0592-59.6002 61.3125-60.005C61.5658-60.4098 61.8096-60.8298 62.0312-61.2862C62.2529-61.7427 62.4662-62.2156 62.6562-62.7237C62.8462-63.2319 63.0137-63.7482 63.1562-64.2862C63.2987-64.8243 63.405-65.3745 63.5-65.9425C63.595-66.5105 63.6712-67.0945 63.7188-67.6925C63.7662-68.2905 63.7812-68.9083 63.7812-69.5362C63.7813-70.1642 63.7662-70.781 63.7188-71.38C63.6712-71.979 63.595-72.5599 63.5-73.13C63.405-73.7001 63.2987-74.2763 63.1562-74.8175C63.0138-75.3587 62.8463-75.8677 62.6562-76.38C62.4662-76.8922 62.2529-77.3902 62.0312-77.8487C61.8096-78.3073 61.5658-78.7252 61.3125-79.13C61.0592-79.5348 60.785-79.9351 60.5-80.2862C60.215-80.6374 59.9104-80.9576 59.5938-81.255C59.2771-81.5524 58.9594-81.8132 58.625-82.0362C58.2906-82.2593 57.5938-82.5675 57.5938-82.5675C57.5938-82.5675 57.5838-83.0436 57.3438-85.7862C57.1154-88.3949 55.7312-92.38 55.3438-92.38ZM36.9375-82.4737C36.552-82.4737 34.9707-79.2094 34.5938-76.9737C34.2168-74.7381 34.444-73.312 34.0938-73.1612C33.7435-73.0105 33.4264-72.7937 33.0938-72.5675C32.7611-72.3413 32.4088-72.0878 32.0938-71.7862C31.7787-71.4847 31.5014-71.1717 31.2188-70.8175C30.9361-70.4633 30.6564-70.0682 30.4062-69.6612C30.1561-69.2543 29.9365-68.8396 29.7188-68.38C29.501-67.9204 29.2791-67.4235 29.0938-66.9112C28.9084-66.399 28.764-65.8566 28.625-65.3175C28.486-64.7784 28.3739-64.2272 28.2812-63.6612C28.1886-63.0953 28.1088-62.5353 28.0625-61.9425C28.0162-61.3497 28-60.7496 28-60.13C28-59.5021 28.0162-58.8852 28.0625-58.2862C28.1088-57.6873 28.1886-57.1063 28.2812-56.5362C28.3739-55.9662 28.486-55.3899 28.625-54.8487C28.764-54.3076 28.9084-53.7985 29.0938-53.2862C29.2791-52.774 29.501-52.2771 29.7188-51.8175C29.9365-51.3579 30.1561-50.9119 30.4062-50.505C30.6564-50.0981 30.9361-49.7342 31.2188-49.38C31.5014-49.0258 31.7787-48.6816 32.0938-48.38C32.4088-48.0784 32.7611-47.8249 33.0938-47.5987C33.4264-47.3726 33.7435-47.187 34.0938-47.0362C34.444-46.8855 34.8196-46.7679 35.1875-46.6925C35.5554-46.6171 35.927-46.5987 36.3125-46.5987C36.698-46.5987 37.0687-46.6171 37.4375-46.6925C37.8063-46.7679 38.1791-46.8855 38.5312-47.0362C38.8834-47.187 39.2271-47.3726 39.5625-47.5987C39.8979-47.8249 40.2125-48.0784 40.5312-48.38C40.85-48.6816 41.1521-49.0258 41.4375-49.38C41.7229-49.7342 41.998-50.0981 42.25-50.505C42.502-50.9119 42.7501-51.3579 42.9688-51.8175C43.1874-52.2771 43.3772-52.774 43.5625-53.2862C43.7478-53.7985 43.9235-54.3076 44.0625-54.8487C44.2015-55.3899 44.3136-55.9662 44.4062-56.5362C44.4989-57.1063 44.5474-57.6873 44.5938-58.2862C44.6401-58.8852 44.6875-59.5021 44.6875-60.13C44.6875-60.7496 44.6401-61.3497 44.5938-61.9425C44.5474-62.5353 44.4989-63.0953 44.4062-63.6612C44.3136-64.2272 44.2015-64.7784 44.0625-65.3175C43.9235-65.8566 43.7478-66.399 43.5625-66.9112C43.3772-67.4235 43.1874-67.9204 42.9688-68.38C42.7501-68.8396 42.502-69.2543 42.25-69.6612C41.998-70.0682 41.7229-70.4633 41.4375-70.8175C41.1521-71.1717 40.85-71.4847 40.5312-71.7862C40.2125-72.0878 39.8979-72.3413 39.5625-72.5675C39.2271-72.7937 38.8834-73.0105 38.5312-73.1612C38.1791-73.312 37.6501-75.0794 37.5-77.1925C37.3556-79.2258 37.323-82.4738 36.9375-82.4737ZM73.875-82.4112C73.4895-82.4112 73.4569-79.1633 73.3125-77.13C73.1624-75.0169 72.6334-73.2495 72.2812-73.0987C71.9291-72.948 71.5854-72.7624 71.25-72.5362C70.9146-72.3101 70.6-72.0566 70.2812-71.755C69.9625-71.4534 69.6604-71.1092 69.375-70.755C69.0896-70.4008 68.8145-70.0369 68.5625-69.63C68.3105-69.2231 68.0624-68.7771 67.8438-68.3175C67.6251-67.8579 67.4353-67.3923 67.25-66.88C67.0647-66.3678 66.889-65.8253 66.75-65.2862C66.611-64.7472 66.4989-64.1959 66.4062-63.63C66.3136-63.0641 66.2338-62.4728 66.1875-61.88C66.1412-61.2872 66.125-60.6871 66.125-60.0675C66.125-59.4396 66.1412-58.8227 66.1875-58.2237C66.2338-57.6248 66.3136-57.0438 66.4062-56.4737C66.4989-55.9037 66.611-55.3587 66.75-54.8175C66.889-54.2763 67.0647-53.736 67.25-53.2237C67.4353-52.7115 67.6251-52.2458 67.8438-51.7862C68.0624-51.3267 68.3105-50.8807 68.5625-50.4737C68.8145-50.0668 69.0896-49.703 69.375-49.3487C69.6604-48.9945 69.9625-48.6503 70.2812-48.3487C70.6-48.0472 70.9146-47.7937 71.25-47.5675C71.5854-47.3413 71.9291-47.1558 72.2812-47.005C72.6334-46.8542 73.0062-46.7366 73.375-46.6612C73.7438-46.5859 74.1145-46.5363 74.5-46.5362C74.8855-46.5362 75.2571-46.5859 75.625-46.6612C75.9929-46.7366 76.3372-46.8542 76.6875-47.005C77.0378-47.1558 77.3861-47.3413 77.7188-47.5675C78.0514-47.7937 78.3725-48.0472 78.6875-48.3487C79.0025-48.6503 79.3111-48.9945 79.5938-49.3487C79.8764-49.703 80.1561-50.0668 80.4062-50.4737C80.6564-50.8807 80.876-51.3267 81.0938-51.7862C81.3115-52.2458 81.5022-52.7115 81.6875-53.2237C81.8728-53.736 82.0485-54.2763 82.1875-54.8175C82.3265-55.3587 82.4386-55.9037 82.5312-56.4737C82.6239-57.0438 82.7037-57.6248 82.75-58.2237C82.7963-58.8227 82.8125-59.4396 82.8125-60.0675C82.8125-60.6871 82.7963-61.2872 82.75-61.88C82.7037-62.4728 82.6239-63.0641 82.5312-63.63C82.4386-64.1959 82.3265-64.7472 82.1875-65.2862C82.0485-65.8253 81.8728-66.3678 81.6875-66.88C81.5022-67.3923 81.3115-67.8579 81.0938-68.3175C80.876-68.7771 80.6564-69.2231 80.4062-69.63C80.1561-70.0369 79.8764-70.4008 79.5938-70.755C79.3111-71.1092 79.0025-71.4534 78.6875-71.755C78.3725-72.0566 78.0514-72.3101 77.7188-72.5362C77.3861-72.7624 77.0378-72.948 76.6875-73.0987C76.3373-73.2495 76.5957-74.7069 76.2188-76.9425C75.8418-79.1781 74.2605-82.4112 73.875-82.4112ZM20.5-64.755C20.1065-64.755 17.7796-61.7826 17.4375-59.5987C17.0954-57.4149 17.4201-55.06 17.0625-54.9112C16.7049-54.7625 16.3708-54.5718 16.0312-54.3487C15.6917-54.1257 15.3529-53.8649 15.0312-53.5675C14.7096-53.2701 14.4145-52.9499 14.125-52.5987C13.8355-52.2476 13.5698-51.8473 13.3125-51.4425C13.0552-51.0377 12.7876-50.6198 12.5625-50.1612C12.3374-49.7027 12.1305-49.2047 11.9375-48.6925C11.7445-48.1802 11.5822-47.6712 11.4375-47.13C11.2928-46.5888 11.1902-46.0126 11.0938-45.4425C10.9973-44.8724 10.9232-44.2915 10.875-43.6925C10.8268-43.0935 10.7813-42.4767 10.7812-41.8487C10.7812-41.2208 10.8268-40.6342 10.875-40.0362C10.9232-39.4383 10.9973-38.8543 11.0938-38.2862C11.1902-37.7182 11.2928-37.1368 11.4375-36.5987C11.5822-36.0607 11.7445-35.5444 11.9375-35.0362C12.1305-34.5281 12.3374-34.0552 12.5625-33.5987C12.7876-33.1423 13.0552-32.7223 13.3125-32.3175C13.5698-31.9127 13.8355-31.5145 14.125-31.1612C14.4145-30.808 14.7096-30.4941 15.0312-30.1925C15.3529-29.8909 15.6917-29.6062 16.0312-29.38C16.3708-29.1538 16.7049-28.9683 17.0625-28.8175C17.4201-28.6667 17.812-28.5804 18.1875-28.505C18.563-28.4296 18.919-28.38 19.3125-28.38C19.706-28.38 20.0923-28.4296 20.4688-28.505C20.8452-28.5804 21.2343-28.6667 21.5938-28.8175C21.9532-28.9683 22.2826-29.1538 22.625-29.38C22.9674-29.6062 23.2996-29.8909 23.625-30.1925C23.9504-30.4941 24.2712-30.807 24.5625-31.1612C24.8538-31.5155 25.1177-31.9106 25.375-32.3175C25.6323-32.7244 25.8705-33.1392 26.0938-33.5987C26.317-34.0583 26.5296-34.5553 26.7188-35.0675C26.9079-35.5798 27.0769-36.1221 27.2188-36.6612C27.3606-37.2004 27.4992-37.7516 27.5938-38.3175C27.6883-38.8834 27.734-39.4435 27.7812-40.0362C27.8285-40.629 27.875-41.2291 27.875-41.8487C27.875-42.4767 27.8285-43.0935 27.7812-43.6925C27.734-44.2915 27.6883-44.8724 27.5938-45.4425C27.4992-46.0126 27.3606-46.5888 27.2188-47.13C27.0769-47.6712 26.9079-48.1803 26.7188-48.6925C26.5296-49.2047 26.317-49.7027 26.0938-50.1612C25.8705-50.6198 25.6323-51.0377 25.375-51.4425C25.1177-51.8473 24.8538-52.2476 24.5625-52.5987C24.2712-52.9499 23.9504-53.2701 23.625-53.5675C23.2996-53.8649 22.9674-54.1257 22.625-54.3487C22.2826-54.5718 21.9532-54.7625 21.5938-54.9112C21.2343-55.06 20.4047-57.131 20.4375-59.5675C20.4703-62.004 20.8935-64.755 20.5-64.755ZM90.2812-64.7237C89.8877-64.7237 90.3422-61.9728 90.375-59.5362C90.4078-57.0997 89.5782-54.9975 89.2188-54.8487C88.8593-54.7 88.4987-54.5093 88.1562-54.2862C87.8138-54.0632 87.4816-53.8024 87.1562-53.505C86.8309-53.2076 86.5413-52.8874 86.25-52.5362C85.9586-52.1851 85.6635-51.8161 85.4062-51.4112C85.149-51.0064 84.9107-50.5885 84.6875-50.13C84.4643-49.6715 84.2829-49.1735 84.0938-48.6612C83.9046-48.149 83.7356-47.6087 83.5938-47.0675C83.4519-46.5263 83.3133-45.9813 83.2188-45.4112C83.1242-44.8412 83.0473-44.2602 83-43.6612C82.9527-43.0623 82.9375-42.4454 82.9375-41.8175C82.9375-41.1979 82.9527-40.5978 83-40.005C83.0473-39.4122 83.1242-38.8209 83.2188-38.255C83.3133-37.6891 83.4519-37.1379 83.5938-36.5987C83.7356-36.0597 83.9046-35.5485 84.0938-35.0362C84.2829-34.524 84.4643-34.0271 84.6875-33.5675C84.9107-33.1079 85.149-32.6619 85.4062-32.255C85.6635-31.8481 85.9587-31.4842 86.25-31.13C86.5413-30.7758 86.8309-30.4316 87.1562-30.13C87.4817-29.8284 87.8138-29.5749 88.1562-29.3487C88.4987-29.1226 88.8593-28.937 89.2188-28.7862C89.5782-28.6355 89.936-28.5179 90.3125-28.4425C90.689-28.3671 91.0752-28.3487 91.4688-28.3487C91.8622-28.3487 92.2495-28.3671 92.625-28.4425C93.0005-28.5179 93.3612-28.6355 93.7188-28.7862C94.0763-28.937 94.4417-29.1226 94.7812-29.3487C95.1208-29.5749 95.4596-29.8284 95.7812-30.13C96.1029-30.4316 96.398-30.7768 96.6875-31.13C96.977-31.4832 97.2427-31.8502 97.5-32.255C97.7573-32.6598 97.9936-33.111 98.2188-33.5675C98.4439-34.024 98.6508-34.4969 98.8438-35.005C99.0367-35.5131 99.2303-36.0294 99.375-36.5675C99.5197-37.1056 99.6223-37.6557 99.7188-38.2237C99.8152-38.7918 99.8893-39.3758 99.9375-39.9737C99.9857-40.5717 100.031-41.1896 100.031-41.8175C100.031-42.4454 99.9857-43.0623 99.9375-43.6612C99.8892-44.2602 99.8152-44.8412 99.7188-45.4112C99.6223-45.9813 99.5197-46.5263 99.375-47.0675C99.2303-47.6087 99.0367-48.149 98.8438-48.6612C98.6508-49.1735 98.4439-49.6715 98.2188-50.13C97.9936-50.5885 97.7573-51.0064 97.5-51.4112C97.2427-51.8161 96.977-52.1851 96.6875-52.5362C96.398-52.8874 96.1029-53.2076 95.7812-53.505C95.4596-53.8024 95.1208-54.0632 94.7812-54.2862C94.4417-54.5093 94.0763-54.7 93.7188-54.8487C93.3612-54.9975 93.6859-57.3836 93.3438-59.5675C93.0016-61.7514 90.6748-64.7237 90.2812-64.7237ZM55.625-50.6612C55.458-50.6647 54.6135-50.6175 54.4375-50.5987C47.9069-50.1266 44.136-45.5113 42.8125-43.0362C41.3989-40.3926 40.5198-35.3329 27-28.005C19.5849-23.986 15.4497-14.8914 16.7812-8.22375C18.0108-2.06702 19.6429 5.43313 32.125 7.995C35.5332 8.69453 37.4579 7.79293 39.5938 7.3075C41.7297 6.822 43.7908 6.25751 45.7812 5.71375C47.3347 5.28651 48.9292 4.95015 50.5312 4.62C52.0286 4.31142 53.6344 4.1714 55.3438 4.15125C57.0688 4.1692 58.7092 4.34016 60.2188 4.65125C61.8208 4.98139 63.384 5.349 64.9375 5.77625C66.928 6.32001 68.9891 6.85325 71.125 7.33875C73.2609 7.82418 75.1543 8.72578 78.5625 8.02625C91.0446 5.46438 92.7392-2.03577 93.9688-8.1925C95.3003-14.8602 91.1651-23.9547 83.75-27.9737C70.2302-35.3016 69.3511-40.3613 67.9375-43.005C66.6629-45.3885 63.0545-49.7214 56.9688-50.4737C56.5673-50.5469 55.9727-50.654 55.625-50.6612Z"/>
  </g>
  <g id="Regular-S" transform="matrix(1 0 0 1 1399.84 696)">
    <path d="M54.7638-80.04C54.4391-80.0399 53.2965-76.6702 53.17-74.5088C53.0435-72.3474 52.92-71.8213 52.92-71.8213C52.9201-71.8212 52.3588-71.5395 52.0763-71.3525C51.7936-71.1655 51.501-70.9455 51.2325-70.6963C50.964-70.4471 50.7229-70.178 50.4825-69.8838C50.242-69.5895 50.0073-69.2855 49.795-68.9463C49.5827-68.6069 49.3855-68.2368 49.2013-67.8525C49.0171-67.4682 48.8574-67.0631 48.7013-66.6338C48.5451-66.2044 48.4121-65.7436 48.295-65.29C48.1779-64.8365 48.0606-64.3928 47.9825-63.915C47.9045-63.4372 47.8653-62.9483 47.8263-62.4463C47.7872-61.9442 47.7638-61.41 47.7638-60.8838C47.7638-60.3644 47.7872-59.8806 47.8263-59.3838C47.8652-58.887 47.9044-58.3893 47.9825-57.915C48.0606-57.4406 48.1779-56.9918 48.295-56.54C48.4121-56.0882 48.5451-55.6256 48.7013-55.1963C48.8574-54.7669 49.017-54.3627 49.2013-53.9775C49.3854-53.5924 49.5827-53.2248 49.795-52.8838C50.0074-52.5427 50.2421-52.2431 50.4825-51.9463C50.723-51.6494 50.964-51.3553 51.2325-51.1025C51.501-50.8499 51.7937-50.6358 52.0763-50.4463C52.3587-50.2567 52.6234-50.1039 52.92-49.9775C53.2166-49.8511 53.5468-49.7594 53.8575-49.6963C54.1682-49.6331 54.4703-49.6025 54.795-49.6025C55.1198-49.6024 55.4538-49.6331 55.7638-49.6963C56.0737-49.7595 56.3749-49.8511 56.67-49.9775C56.965-50.1039 57.2335-50.2567 57.5138-50.4463C57.7941-50.6357 58.0608-50.8498 58.3263-51.1025C58.5916-51.3553 58.8686-51.6502 59.1075-51.9463C59.3464-52.2422 59.5514-52.5445 59.7638-52.8838C59.9761-53.2231 60.1717-53.5949 60.3575-53.9775C60.5433-54.3601 60.7295-54.7704 60.8888-55.1963C61.048-55.6221 61.1756-56.0578 61.295-56.5088C61.4145-56.9597 61.5279-57.4077 61.6075-57.8838C61.6871-58.3598 61.7552-58.8513 61.795-59.3525C61.8348-59.8536 61.8575-60.3575 61.8575-60.8838C61.8576-61.41 61.8348-61.9442 61.795-62.4463C61.7552-62.9483 61.6871-63.4372 61.6075-63.915C61.5279-64.3928 61.4144-64.8364 61.295-65.29C61.1756-65.7435 61.048-66.2044 60.8888-66.6338C60.7295-67.063 60.5433-67.4682 60.3575-67.8525C60.1717-68.2368 59.9761-68.607 59.7638-68.9463C59.5515-69.2855 59.3464-69.5895 59.1075-69.8838C58.8687-70.178 58.5917-70.447 58.3263-70.6963C58.0607-70.9456 57.794-71.1655 57.5138-71.3525C57.2336-71.5395 56.67-71.8212 56.67-71.8213C56.67-71.8212 56.6524-72.2101 56.4513-74.5088C56.2599-76.695 55.0885-80.04 54.7638-80.04ZM39.3575-71.7275C39.0344-71.7275 37.6735-69.0074 37.3575-67.1338C37.0416-65.2601 37.276-64.0414 36.9825-63.915C36.6889-63.7886 36.3863-63.6358 36.1075-63.4463C35.8287-63.2567 35.5591-63.0428 35.295-62.79C35.031-62.5373 34.7818-62.243 34.545-61.9463C34.3081-61.6494 34.0985-61.3498 33.8888-61.0088C33.6791-60.6677 33.4774-60.3002 33.295-59.915C33.1125-59.5298 32.9504-59.1255 32.795-58.6963C32.6397-58.2669 32.474-57.8043 32.3575-57.3525C32.241-56.9007 32.1539-56.4519 32.0763-55.9775C31.9986-55.5032 31.9588-55.0055 31.92-54.5088C31.8812-54.0119 31.8576-53.5281 31.8575-53.0088C31.8575-52.4825 31.8811-51.9482 31.92-51.4463C31.9588-50.9442 31.9986-50.4553 32.0763-49.9775C32.1539-49.4997 32.241-49.0248 32.3575-48.5713C32.474-48.1177 32.6396-47.6881 32.795-47.2588C32.9503-46.8294 33.1124-46.4252 33.295-46.04C33.4775-45.6548 33.6791-45.2872 33.8888-44.9463C34.0984-44.6052 34.3081-44.3057 34.545-44.0088C34.7819-43.7119 35.031-43.4178 35.295-43.165C35.559-42.9123 35.8286-42.6982 36.1075-42.5088C36.3863-42.3192 36.6889-42.1664 36.9825-42.04C37.2761-41.9136 37.5492-41.822 37.8575-41.7588C38.1658-41.6956 38.5032-41.6649 38.8263-41.665C39.1493-41.665 39.4547-41.6956 39.7638-41.7588C40.0728-41.8219 40.3749-41.9136 40.67-42.04C40.9651-42.1664 41.264-42.3192 41.545-42.5088C41.8261-42.6983 42.0903-42.9124 42.3575-43.165C42.6246-43.4177 42.8683-43.7118 43.1075-44.0088C43.3467-44.3056 43.5839-44.6052 43.795-44.9463C44.0062-45.2873 44.2054-45.6549 44.3888-46.04C44.572-46.4252 44.7335-46.8294 44.8888-47.2588C45.0441-47.6881 45.1785-48.1177 45.295-48.5713C45.4115-49.0248 45.5298-49.4997 45.6075-49.9775C45.6852-50.4553 45.7249-50.9442 45.7638-51.4463C45.8026-51.9483 45.8264-52.4825 45.8263-53.0088C45.8263-53.5281 45.8025-54.0119 45.7638-54.5088C45.7249-55.0056 45.6852-55.5033 45.6075-55.9775C45.5298-56.4518 45.4115-56.9007 45.295-57.3525C45.1785-57.8043 45.044-58.2669 44.8888-58.6963C44.7334-59.1256 44.572-59.5299 44.3888-59.915C44.2055-60.3002 44.0063-60.6677 43.795-61.0088C43.5838-61.3498 43.3466-61.6494 43.1075-61.9463C42.8683-62.2431 42.6246-62.5373 42.3575-62.79C42.0903-63.0427 41.8262-63.2566 41.545-63.4463C41.2639-63.6358 40.965-63.7886 40.67-63.915C40.3749-64.0414 39.9209-65.519 39.795-67.29C39.674-68.9941 39.6805-71.7275 39.3575-71.7275ZM70.295-71.6963C69.972-71.6962 69.9473-68.9628 69.8263-67.2588C69.7005-65.4877 69.2464-64.0101 68.9513-63.8838C68.6562-63.7574 68.3886-63.6046 68.1075-63.415C67.8263-63.2253 67.5309-63.0115 67.2638-62.7588C66.9967-62.506 66.7529-62.2119 66.5138-61.915C66.2746-61.6181 66.0687-61.3185 65.8575-60.9775C65.6463-60.6365 65.447-60.2689 65.2638-59.8838C65.0804-59.4985 64.8878-59.0943 64.7325-58.665C64.5772-58.2357 64.4427-57.7731 64.3263-57.3213C64.2098-56.8695 64.1227-56.4206 64.045-55.9463C63.9673-55.472 63.8963-54.9743 63.8575-54.4775C63.8187-53.9806 63.8263-53.4656 63.8263-52.9463C63.8262-52.42 63.8187-51.917 63.8575-51.415C63.8964-50.913 63.9673-50.424 64.045-49.9463C64.1226-49.4685 64.2098-48.9935 64.3263-48.54C64.4428-48.0864 64.5772-47.6568 64.7325-47.2275C64.8879-46.7981 65.0805-46.3939 65.2638-46.0088C65.447-45.6236 65.6463-45.256 65.8575-44.915C66.0686-44.5739 66.2746-44.2431 66.5138-43.9463C66.7529-43.6494 66.9966-43.3865 67.2638-43.1338C67.5309-42.881 67.8264-42.6671 68.1075-42.4775C68.3886-42.2879 68.6561-42.1351 68.9513-42.0088C69.2463-41.8824 69.5484-41.7907 69.8575-41.7275C70.1666-41.6643 70.5032-41.6025 70.8263-41.6025C71.1493-41.6025 71.4554-41.6643 71.7638-41.7275C72.0721-41.7908 72.3764-41.8824 72.67-42.0088C72.9635-42.1351 73.235-42.2879 73.5138-42.4775C73.7926-42.6671 74.0622-42.881 74.3263-43.1338C74.5903-43.3865 74.8706-43.6494 75.1075-43.9463C75.3444-44.2432 75.5541-44.574 75.7638-44.915C75.9734-45.256 76.175-45.6236 76.3575-46.0088C76.54-46.394 76.7022-46.7982 76.8575-47.2275C77.0129-47.6568 77.1473-48.0865 77.2638-48.54C77.3802-48.9935 77.4673-49.4685 77.545-49.9463C77.6227-50.4241 77.6937-50.913 77.7325-51.415C77.7713-51.917 77.795-52.42 77.795-52.9463C77.795-53.4656 77.7713-53.9807 77.7325-54.4775C77.6936-54.9743 77.6227-55.4719 77.545-55.9463C77.4674-56.4206 77.3802-56.8694 77.2638-57.3213C77.1473-57.7731 77.0128-58.2357 76.8575-58.665C76.7022-59.0944 76.54-59.4986 76.3575-59.8838C76.175-60.2689 75.9734-60.6365 75.7638-60.9775C75.5541-61.3186 75.3444-61.6181 75.1075-61.915C74.8706-62.2118 74.5903-62.506 74.3263-62.7588C74.0621-63.0115 73.7925-63.2254 73.5138-63.415C73.2351-63.6046 72.9636-63.7574 72.67-63.8838C72.3764-64.0102 72.5797-65.1976 72.2638-67.0713C71.9478-68.9449 70.6181-71.6963 70.295-71.6963ZM25.5763-56.8838C25.2464-56.8838 23.3005-54.4015 23.0138-52.5713C22.727-50.7409 23.0009-48.7584 22.7013-48.6338C22.4016-48.5091 22.1108-48.352 21.8263-48.165C21.5416-47.978 21.252-47.758 20.9825-47.5088C20.713-47.2595 20.4752-46.9906 20.2325-46.6963C19.9899-46.402 19.7605-46.0667 19.545-45.7275C19.3294-45.3882 19.1087-45.018 18.92-44.6338C18.7313-44.2495 18.5505-43.8444 18.3888-43.415C18.227-42.9857 18.1038-42.556 17.9825-42.1025C17.8612-41.6489 17.7508-41.174 17.67-40.6963C17.5891-40.2185 17.5229-39.7295 17.4825-39.2275C17.4421-38.7255 17.4201-38.2225 17.42-37.6963C17.42-37.17 17.442-36.6661 17.4825-36.165C17.5229-35.6638 17.5892-35.1723 17.67-34.6963C17.7509-34.2202 17.8612-33.741 17.9825-33.29C18.1038-32.8391 18.227-32.4034 18.3888-31.9775C18.5505-31.5517 18.7313-31.1413 18.92-30.7588C19.1087-30.3762 19.3294-30.0355 19.545-29.6963C19.7606-29.357 19.99-29.0235 20.2325-28.7275C20.4751-28.4315 20.7129-28.1678 20.9825-27.915C21.252-27.6623 21.5417-27.4483 21.8263-27.2588C22.1109-27.0692 22.4016-26.8851 22.7013-26.7588C23.0009-26.6324 23.2928-26.5407 23.6075-26.4775C23.9222-26.4143 24.2465-26.3837 24.5763-26.3838C24.9061-26.3838 25.2295-26.4143 25.545-26.4775C25.8605-26.5407 26.1812-26.6324 26.4825-26.7588C26.7838-26.8851 27.0705-27.0692 27.3575-27.2588C27.6445-27.4483 27.9285-27.6623 28.2013-27.915C28.474-28.1678 28.7384-28.4306 28.9825-28.7275C29.2267-29.0244 29.4544-29.3553 29.67-29.6963C29.8856-30.0373 30.0767-30.4048 30.2638-30.79C30.4508-31.1752 30.6364-31.5795 30.795-32.0088C30.9536-32.4381 31.0823-32.8694 31.2013-33.3213C31.3202-33.7731 31.4345-34.2532 31.5138-34.7275C31.593-35.2018 31.6303-35.6681 31.67-36.165C31.7096-36.6618 31.7325-37.177 31.7325-37.6963C31.7325-38.2225 31.7096-38.7254 31.67-39.2275C31.6304-39.7295 31.5931-40.2185 31.5138-40.6963C31.4345-41.174 31.3201-41.649 31.2013-42.1025C31.0823-42.5561 30.9535-42.9857 30.795-43.415C30.6364-43.8443 30.4509-44.2494 30.2638-44.6338C30.0767-45.018 29.8856-45.3883 29.67-45.7275C29.4544-46.0668 29.2267-46.402 28.9825-46.6963C28.7383-46.9905 28.4739-47.2595 28.2013-47.5088C27.9285-47.758 27.6445-47.978 27.3575-48.165C27.0705-48.352 26.7837-48.5091 26.4825-48.6338C26.1812-48.7584 25.4863-50.498 25.5138-52.54C25.5413-54.5821 25.906-56.8838 25.5763-56.8838ZM84.0763-56.8525C83.7465-56.8526 84.08-54.5508 84.1075-52.5088C84.135-50.4667 83.4713-48.6959 83.17-48.5713C82.8688-48.4465 82.5507-48.2895 82.2638-48.1025C81.9768-47.9155 81.724-47.7268 81.4513-47.4775C81.1785-47.2283 80.9142-46.928 80.67-46.6338C80.4258-46.3395 80.1981-46.0355 79.9825-45.6963C79.767-45.3569 79.5446-44.9868 79.3575-44.6025C79.1703-44.2181 79.0161-43.8131 78.8575-43.3838C78.6989-42.9545 78.5702-42.5248 78.4513-42.0713C78.3324-41.6177 78.218-41.1428 78.1388-40.665C78.0595-40.1872 77.9909-39.6983 77.9513-39.1963C77.9116-38.6941 77.8888-38.1912 77.8888-37.665C77.8888-37.1457 77.9116-36.6306 77.9513-36.1338C77.9909-35.6369 78.0595-35.1393 78.1388-34.665C78.218-34.1907 78.3323-33.7418 78.4513-33.29C78.5703-32.8381 78.6989-32.4068 78.8575-31.9775C79.0161-31.5482 79.1704-31.1439 79.3575-30.7588C79.5445-30.3736 79.7669-30.006 79.9825-29.665C80.1981-29.324 80.4258-28.9931 80.67-28.6963C80.9142-28.3994 81.1785-28.1365 81.4513-27.8838C81.724-27.6311 81.9768-27.3858 82.2638-27.1963C82.5507-27.0067 82.8687-26.8539 83.17-26.7275C83.4713-26.6011 83.7607-26.5094 84.0763-26.4463C84.3918-26.3831 84.7152-26.3525 85.045-26.3525C85.3748-26.3524 85.699-26.3831 86.0138-26.4463C86.3285-26.5095 86.6516-26.6011 86.9513-26.7275C87.2509-26.8539 87.5416-27.0067 87.8263-27.1963C88.1109-27.3858 88.3692-27.631 88.6388-27.8838C88.9083-28.1366 89.1774-28.4002 89.42-28.6963C89.6625-28.9922 89.8919-29.3257 90.1075-29.665C90.3231-30.0043 90.5126-30.3449 90.7013-30.7275C90.89-31.1101 91.0708-31.5204 91.2325-31.9463C91.3942-32.3721 91.5487-32.8078 91.67-33.2588C91.7913-33.7098 91.8704-34.1889 91.9513-34.665C92.0321-35.141 92.0983-35.6013 92.1388-36.1025C92.1792-36.6035 92.2013-37.1387 92.2013-37.665C92.2012-38.1913 92.1792-38.6942 92.1388-39.1963C92.0984-39.6983 92.0321-40.1872 91.9513-40.665C91.8704-41.1428 91.7913-41.6177 91.67-42.0713C91.5487-42.5247 91.3942-42.9544 91.2325-43.3838C91.0707-43.8131 90.8899-44.2182 90.7013-44.6025C90.5126-44.9868 90.3231-45.357 90.1075-45.6963C89.8919-46.0355 89.6626-46.3395 89.42-46.6338C89.1774-46.9281 88.9083-47.2282 88.6388-47.4775C88.3692-47.7268 88.1109-47.9155 87.8263-48.1025C87.5417-48.2896 87.2509-48.4466 86.9513-48.5713C86.6516-48.6959 86.9255-50.7097 86.6388-52.54C86.3519-54.3703 84.4061-56.8525 84.0763-56.8525ZM55.0138-45.0713C54.8737-45.0742 54.1612-45.0557 54.0138-45.04C48.5405-44.6443 45.373-40.7706 44.2638-38.6963C43.079-36.4806 42.3447-32.244 31.0138-26.1025C24.7992-22.7342 21.3353-15.0969 22.4513-9.50875C23.4817-4.34878 24.8651 1.93793 35.3263 4.085C38.1827 4.67128 39.7861 3.89813 41.5763 3.49125C43.3664 3.08435 45.0955 2.63447 46.7638 2.17875C48.0657 1.82068 49.3898 1.51794 50.7325 1.24125C51.9874 0.982631 53.3311 0.883026 54.7638 0.86625C56.2095 0.881292 57.5924 1.01181 58.8575 1.2725C60.2002 1.54919 61.5243 1.85192 62.8263 2.21C64.4945 2.66572 66.2235 3.11562 68.0138 3.5225C69.8038 3.92934 71.376 4.70259 74.2325 4.11625C84.6937 1.96914 86.1083-4.31758 87.1388-9.4775C88.2547-15.0657 84.7908-22.703 78.5763-26.0713C67.2453-32.2127 66.511-36.4493 65.3263-38.665C64.258-40.6626 61.2393-44.2845 56.1388-44.915C55.8023-44.9763 55.3051-45.0652 55.0138-45.0713Z"/>
  </g>
  <g id="Ultralight-S" transform="matrix(1 0 0 1 509.666 696)">
    <path d="M54.7638-80.04C54.4391-80.0399 53.2965-76.6702 53.17-74.5088C53.0435-72.3474 52.92-71.8213 52.92-71.8213C52.9201-71.8212 52.3588-71.5395 52.0763-71.3525C51.7936-71.1655 51.501-70.9455 51.2325-70.6963C50.964-70.4471 50.7229-70.178 50.4825-69.8838C50.242-69.5895 50.0073-69.2855 49.795-68.9463C49.5827-68.6069 49.3855-68.2368 49.2013-67.8525C49.0171-67.4682 48.8574-67.0631 48.7013-66.6338C48.5451-66.2044 48.4121-65.7436 48.295-65.29C48.1779-64.8365 48.0606-64.3928 47.9825-63.915C47.9045-63.4372 47.8653-62.9483 47.8263-62.4463C47.7872-61.9442 47.7638-61.41 47.7638-60.8838C47.7638-60.3644 47.7872-59.8806 47.8263-59.3838C47.8652-58.887 47.9044-58.3893 47.9825-57.915C48.0606-57.4406 48.1779-56.9918 48.295-56.54C48.4121-56.0882 48.5451-55.6256 48.7013-55.1963C48.8574-54.7669 49.017-54.3627 49.2013-53.9775C49.3854-53.5924 49.5827-53.2248 49.795-52.8838C50.0074-52.5427 50.2421-52.2431 50.4825-51.9463C50.723-51.6494 50.964-51.3553 51.2325-51.1025C51.501-50.8499 51.7937-50.6358 52.0763-50.4463C52.3587-50.2567 52.6234-50.1039 52.92-49.9775C53.2166-49.8511 53.5468-49.7594 53.8575-49.6963C54.1682-49.6331 54.4703-49.6025 54.795-49.6025C55.1198-49.6024 55.4538-49.6331 55.7638-49.6963C56.0737-49.7595 56.3749-49.8511 56.67-49.9775C56.965-50.1039 57.2335-50.2567 57.5138-50.4463C57.7941-50.6357 58.0608-50.8498 58.3263-51.1025C58.5916-51.3553 58.8686-51.6502 59.1075-51.9463C59.3464-52.2422 59.5514-52.5445 59.7638-52.8838C59.9761-53.2231 60.1717-53.5949 60.3575-53.9775C60.5433-54.3601 60.7295-54.7704 60.8888-55.1963C61.048-55.6221 61.1756-56.0578 61.295-56.5088C61.4145-56.9597 61.5279-57.4077 61.6075-57.8838C61.6871-58.3598 61.7552-58.8513 61.795-59.3525C61.8348-59.8536 61.8575-60.3575 61.8575-60.8838C61.8576-61.41 61.8348-61.9442 61.795-62.4463C61.7552-62.9483 61.6871-63.4372 61.6075-63.915C61.5279-64.3928 61.4144-64.8364 61.295-65.29C61.1756-65.7435 61.048-66.2044 60.8888-66.6338C60.7295-67.063 60.5433-67.4682 60.3575-67.8525C60.1717-68.2368 59.9761-68.607 59.7638-68.9463C59.5515-69.2855 59.3464-69.5895 59.1075-69.8838C58.8687-70.178 58.5917-70.447 58.3263-70.6963C58.0607-70.9456 57.794-71.1655 57.5138-71.3525C57.2336-71.5395 56.67-71.8212 56.67-71.8213C56.67-71.8212 56.6524-72.2101 56.4513-74.5088C56.2599-76.695 55.0885-80.04 54.7638-80.04ZM39.3575-71.7275C39.0344-71.7275 37.6735-69.0074 37.3575-67.1338C37.0416-65.2601 37.276-64.0414 36.9825-63.915C36.6889-63.7886 36.3863-63.6358 36.1075-63.4463C35.8287-63.2567 35.5591-63.0428 35.295-62.79C35.031-62.5373 34.7818-62.243 34.545-61.9463C34.3081-61.6494 34.0985-61.3498 33.8888-61.0088C33.6791-60.6677 33.4774-60.3002 33.295-59.915C33.1125-59.5298 32.9504-59.1255 32.795-58.6963C32.6397-58.2669 32.474-57.8043 32.3575-57.3525C32.241-56.9007 32.1539-56.4519 32.0763-55.9775C31.9986-55.5032 31.9588-55.0055 31.92-54.5088C31.8812-54.0119 31.8576-53.5281 31.8575-53.0088C31.8575-52.4825 31.8811-51.9482 31.92-51.4463C31.9588-50.9442 31.9986-50.4553 32.0763-49.9775C32.1539-49.4997 32.241-49.0248 32.3575-48.5713C32.474-48.1177 32.6396-47.6881 32.795-47.2588C32.9503-46.8294 33.1124-46.4252 33.295-46.04C33.4775-45.6548 33.6791-45.2872 33.8888-44.9463C34.0984-44.6052 34.3081-44.3057 34.545-44.0088C34.7819-43.7119 35.031-43.4178 35.295-43.165C35.559-42.9123 35.8286-42.6982 36.1075-42.5088C36.3863-42.3192 36.6889-42.1664 36.9825-42.04C37.2761-41.9136 37.5492-41.822 37.8575-41.7588C38.1658-41.6956 38.5032-41.6649 38.8263-41.665C39.1493-41.665 39.4547-41.6956 39.7638-41.7588C40.0728-41.8219 40.3749-41.9136 40.67-42.04C40.9651-42.1664 41.264-42.3192 41.545-42.5088C41.8261-42.6983 42.0903-42.9124 42.3575-43.165C42.6246-43.4177 42.8683-43.7118 43.1075-44.0088C43.3467-44.3056 43.5839-44.6052 43.795-44.9463C44.0062-45.2873 44.2054-45.6549 44.3888-46.04C44.572-46.4252 44.7335-46.8294 44.8888-47.2588C45.0441-47.6881 45.1785-48.1177 45.295-48.5713C45.4115-49.0248 45.5298-49.4997 45.6075-49.9775C45.6852-50.4553 45.7249-50.9442 45.7638-51.4463C45.8026-51.9483 45.8264-52.4825 45.8263-53.0088C45.8263-53.5281 45.8025-54.0119 45.7638-54.5088C45.7249-55.0056 45.6852-55.5033 45.6075-55.9775C45.5298-56.4518 45.4115-56.9007 45.295-57.3525C45.1785-57.8043 45.044-58.2669 44.8888-58.6963C44.7334-59.1256 44.572-59.5299 44.3888-59.915C44.2055-60.3002 44.0063-60.6677 43.795-61.0088C43.5838-61.3498 43.3466-61.6494 43.1075-61.9463C42.8683-62.2431 42.6246-62.5373 42.3575-62.79C42.0903-63.0427 41.8262-63.2566 41.545-63.4463C41.2639-63.6358 40.965-63.7886 40.67-63.915C40.3749-64.0414 39.9209-65.519 39.795-67.29C39.674-68.9941 39.6805-71.7275 39.3575-71.7275ZM70.295-71.6963C69.972-71.6962 69.9473-68.9628 69.8263-67.2588C69.7005-65.4877 69.2464-64.0101 68.9513-63.8838C68.6562-63.7574 68.3886-63.6046 68.1075-63.415C67.8263-63.2253 67.5309-63.0115 67.2638-62.7588C66.9967-62.506 66.7529-62.2119 66.5138-61.915C66.2746-61.6181 66.0687-61.3185 65.8575-60.9775C65.6463-60.6365 65.447-60.2689 65.2638-59.8838C65.0804-59.4985 64.8878-59.0943 64.7325-58.665C64.5772-58.2357 64.4427-57.7731 64.3263-57.3213C64.2098-56.8695 64.1227-56.4206 64.045-55.9463C63.9673-55.472 63.8963-54.9743 63.8575-54.4775C63.8187-53.9806 63.8263-53.4656 63.8263-52.9463C63.8262-52.42 63.8187-51.917 63.8575-51.415C63.8964-50.913 63.9673-50.424 64.045-49.9463C64.1226-49.4685 64.2098-48.9935 64.3263-48.54C64.4428-48.0864 64.5772-47.6568 64.7325-47.2275C64.8879-46.7981 65.0805-46.3939 65.2638-46.0088C65.447-45.6236 65.6463-45.256 65.8575-44.915C66.0686-44.5739 66.2746-44.2431 66.5138-43.9463C66.7529-43.6494 66.9966-43.3865 67.2638-43.1338C67.5309-42.881 67.8264-42.6671 68.1075-42.4775C68.3886-42.2879 68.6561-42.1351 68.9513-42.0088C69.2463-41.8824 69.5484-41.7907 69.8575-41.7275C70.1666-41.6643 70.5032-41.6025 70.8263-41.6025C71.1493-41.6025 71.4554-41.6643 71.7638-41.7275C72.0721-41.7908 72.3764-41.8824 72.67-42.0088C72.9635-42.1351 73.235-42.2879 73.5138-42.4775C73.7926-42.6671 74.0622-42.881 74.3263-43.1338C74.5903-43.3865 74.8706-43.6494 75.1075-43.9463C75.3444-44.2432 75.5541-44.574 75.7638-44.915C75.9734-45.256 76.175-45.6236 76.3575-46.0088C76.54-46.394 76.7022-46.7982 76.8575-47.2275C77.0129-47.6568 77.1473-48.0865 77.2638-48.54C77.3802-48.9935 77.4673-49.4685 77.545-49.9463C77.6227-50.4241 77.6937-50.913 77.7325-51.415C77.7713-51.917 77.795-52.42 77.795-52.9463C77.795-53.4656 77.7713-53.9807 77.7325-54.4775C77.6936-54.9743 77.6227-55.4719 77.545-55.9463C77.4674-56.4206 77.3802-56.8694 77.2638-57.3213C77.1473-57.7731 77.0128-58.2357 76.8575-58.665C76.7022-59.0944 76.54-59.4986 76.3575-59.8838C76.175-60.2689 75.9734-60.6365 75.7638-60.9775C75.5541-61.3186 75.3444-61.6181 75.1075-61.915C74.8706-62.2118 74.5903-62.506 74.3263-62.7588C74.0621-63.0115 73.7925-63.2254 73.5138-63.415C73.2351-63.6046 72.9636-63.7574 72.67-63.8838C72.3764-64.0102 72.5797-65.1976 72.2638-67.0713C71.9478-68.9449 70.6181-71.6963 70.295-71.6963ZM25.5763-56.8838C25.2464-56.8838 23.3005-54.4015 23.0138-52.5713C22.727-50.7409 23.0009-48.7584 22.7013-48.6338C22.4016-48.5091 22.1108-48.352 21.8263-48.165C21.5416-47.978 21.252-47.758 20.9825-47.5088C20.713-47.2595 20.4752-46.9906 20.2325-46.6963C19.9899-46.402 19.7605-46.0667 19.545-45.7275C19.3294-45.3882 19.1087-45.018 18.92-44.6338C18.7313-44.2495 18.5505-43.8444 18.3888-43.415C18.227-42.9857 18.1038-42.556 17.9825-42.1025C17.8612-41.6489 17.7508-41.174 17.67-40.6963C17.5891-40.2185 17.5229-39.7295 17.4825-39.2275C17.4421-38.7255 17.4201-38.2225 17.42-37.6963C17.42-37.17 17.442-36.6661 17.4825-36.165C17.5229-35.6638 17.5892-35.1723 17.67-34.6963C17.7509-34.2202 17.8612-33.741 17.9825-33.29C18.1038-32.8391 18.227-32.4034 18.3888-31.9775C18.5505-31.5517 18.7313-31.1413 18.92-30.7588C19.1087-30.3762 19.3294-30.0355 19.545-29.6963C19.7606-29.357 19.99-29.0235 20.2325-28.7275C20.4751-28.4315 20.7129-28.1678 20.9825-27.915C21.252-27.6623 21.5417-27.4483 21.8263-27.2588C22.1109-27.0692 22.4016-26.8851 22.7013-26.7588C23.0009-26.6324 23.2928-26.5407 23.6075-26.4775C23.9222-26.4143 24.2465-26.3837 24.5763-26.3838C24.9061-26.3838 25.2295-26.4143 25.545-26.4775C25.8605-26.5407 26.1812-26.6324 26.4825-26.7588C26.7838-26.8851 27.0705-27.0692 27.3575-27.2588C27.6445-27.4483 27.9285-27.6623 28.2013-27.915C28.474-28.1678 28.7384-28.4306 28.9825-28.7275C29.2267-29.0244 29.4544-29.3553 29.67-29.6963C29.8856-30.0373 30.0767-30.4048 30.2638-30.79C30.4508-31.1752 30.6364-31.5795 30.795-32.0088C30.9536-32.4381 31.0823-32.8694 31.2013-33.3213C31.3202-33.7731 31.4345-34.2532 31.5138-34.7275C31.593-35.2018 31.6303-35.6681 31.67-36.165C31.7096-36.6618 31.7325-37.177 31.7325-37.6963C31.7325-38.2225 31.7096-38.7254 31.67-39.2275C31.6304-39.7295 31.5931-40.2185 31.5138-40.6963C31.4345-41.174 31.3201-41.649 31.2013-42.1025C31.0823-42.5561 30.9535-42.9857 30.795-43.415C30.6364-43.8443 30.4509-44.2494 30.2638-44.6338C30.0767-45.018 29.8856-45.3883 29.67-45.7275C29.4544-46.0668 29.2267-46.402 28.9825-46.6963C28.7383-46.9905 28.4739-47.2595 28.2013-47.5088C27.9285-47.758 27.6445-47.978 27.3575-48.165C27.0705-48.352 26.7837-48.5091 26.4825-48.6338C26.1812-48.7584 25.4863-50.498 25.5138-52.54C25.5413-54.5821 25.906-56.8838 25.5763-56.8838ZM84.0763-56.8525C83.7465-56.8526 84.08-54.5508 84.1075-52.5088C84.135-50.4667 83.4713-48.6959 83.17-48.5713C82.8688-48.4465 82.5507-48.2895 82.2638-48.1025C81.9768-47.9155 81.724-47.7268 81.4513-47.4775C81.1785-47.2283 80.9142-46.928 80.67-46.6338C80.4258-46.3395 80.1981-46.0355 79.9825-45.6963C79.767-45.3569 79.5446-44.9868 79.3575-44.6025C79.1703-44.2181 79.0161-43.8131 78.8575-43.3838C78.6989-42.9545 78.5702-42.5248 78.4513-42.0713C78.3324-41.6177 78.218-41.1428 78.1388-40.665C78.0595-40.1872 77.9909-39.6983 77.9513-39.1963C77.9116-38.6941 77.8888-38.1912 77.8888-37.665C77.8888-37.1457 77.9116-36.6306 77.9513-36.1338C77.9909-35.6369 78.0595-35.1393 78.1388-34.665C78.218-34.1907 78.3323-33.7418 78.4513-33.29C78.5703-32.8381 78.6989-32.4068 78.8575-31.9775C79.0161-31.5482 79.1704-31.1439 79.3575-30.7588C79.5445-30.3736 79.7669-30.006 79.9825-29.665C80.1981-29.324 80.4258-28.9931 80.67-28.6963C80.9142-28.3994 81.1785-28.1365 81.4513-27.8838C81.724-27.6311 81.9768-27.3858 82.2638-27.1963C82.5507-27.0067 82.8687-26.8539 83.17-26.7275C83.4713-26.6011 83.7607-26.5094 84.0763-26.4463C84.3918-26.3831 84.7152-26.3525 85.045-26.3525C85.3748-26.3524 85.699-26.3831 86.0138-26.4463C86.3285-26.5095 86.6516-26.6011 86.9513-26.7275C87.2509-26.8539 87.5416-27.0067 87.8263-27.1963C88.1109-27.3858 88.3692-27.631 88.6388-27.8838C88.9083-28.1366 89.1774-28.4002 89.42-28.6963C89.6625-28.9922 89.8919-29.3257 90.1075-29.665C90.3231-30.0043 90.5126-30.3449 90.7013-30.7275C90.89-31.1101 91.0708-31.5204 91.2325-31.9463C91.3942-32.3721 91.5487-32.8078 91.67-33.2588C91.7913-33.7098 91.8704-34.1889 91.9513-34.665C92.0321-35.141 92.0983-35.6013 92.1388-36.1025C92.1792-36.6035 92.2013-37.1387 92.2013-37.665C92.2012-38.1913 92.1792-38.6942 92.1388-39.1963C92.0984-39.6983 92.0321-40.1872 91.9513-40.665C91.8704-41.1428 91.7913-41.6177 91.67-42.0713C91.5487-42.5247 91.3942-42.9544 91.2325-43.3838C91.0707-43.8131 90.8899-44.2182 90.7013-44.6025C90.5126-44.9868 90.3231-45.357 90.1075-45.6963C89.8919-46.0355 89.6626-46.3395 89.42-46.6338C89.1774-46.9281 88.9083-47.2282 88.6388-47.4775C88.3692-47.7268 88.1109-47.9155 87.8263-48.1025C87.5417-48.2896 87.2509-48.4466 86.9513-48.5713C86.6516-48.6959 86.9255-50.7097 86.6388-52.54C86.3519-54.3703 84.4061-56.8525 84.0763-56.8525ZM55.0138-45.0713C54.8737-45.0742 54.1612-45.0557 54.0138-45.04C48.5405-44.6443 45.373-40.7706 44.2638-38.6963C43.079-36.4806 42.3447-32.244 31.0138-26.1025C24.7992-22.7342 21.3353-15.0969 22.4513-9.50875C23.4817-4.34878 24.8651 1.93793 35.3263 4.085C38.1827 4.67128 39.7861 3.89813 41.5763 3.49125C43.3664 3.08435 45.0955 2.63447 46.7638 2.17875C48.0657 1.82068 49.3898 1.51794 50.7325 1.24125C51.9874 0.982631 53.3311 0.883026 54.7638 0.86625C56.2095 0.881292 57.5924 1.01181 58.8575 1.2725C60.2002 1.54919 61.5243 1.85192 62.8263 2.21C64.4945 2.66572 66.2235 3.11562 68.0138 3.5225C69.8038 3.92934 71.376 4.70259 74.2325 4.11625C84.6937 1.96914 86.1083-4.31758 87.1388-9.4775C88.2547-15.0657 84.7908-22.703 78.5763-26.0713C67.2453-32.2127 66.511-36.4493 65.3263-38.665C64.258-40.6626 61.2393-44.2845 56.1388-44.915C55.8023-44.9763 55.3051-45.0652 55.0138-45.0713Z"/>
  </g>
 </g>
</svg>
