<?xml version="1.0" encoding="UTF-8"?>
<!--Generator: Apple Native CoreSVG 175-->
<!DOCTYPE svg
PUBLIC "-//W3C//DTD SVG 1.1//EN"
       "http://www.w3.org/Graphics/SVG/1.1/DTD/svg11.dtd">
<svg version="1.1" xmlns="http://www.w3.org/2000/svg" xmlns:xlink="http://www.w3.org/1999/xlink" width="3300" height="2200">
 <!--glyph: "uni1010B1.medium", point size: 100.0, font version: "17.1d1e1", template writer version: "65.1"-->
 <g id="Notes">
  <rect height="2200" id="artboard" style="fill:white;opacity:1" width="3300" x="0" y="0"/>
  <line style="fill:none;stroke:black;opacity:1;stroke-width:0.5;" x1="263" x2="3036" y1="292" y2="292"/>
  <text style="stroke:none;fill:black;font-family:sans-serif;font-size:13;font-weight:bold;" transform="matrix(1 0 0 1 263 322)">Weight/Scale Variations</text>
  <text style="stroke:none;fill:black;font-family:sans-serif;font-size:13;text-anchor:middle;" transform="matrix(1 0 0 1 559.711 322)">Ultralight</text>
  <text style="stroke:none;fill:black;font-family:sans-serif;font-size:13;text-anchor:middle;" transform="matrix(1 0 0 1 856.422 322)">Thin</text>
  <text style="stroke:none;fill:black;font-family:sans-serif;font-size:13;text-anchor:middle;" transform="matrix(1 0 0 1 1153.13 322)">Light</text>
  <text style="stroke:none;fill:black;font-family:sans-serif;font-size:13;text-anchor:middle;" transform="matrix(1 0 0 1 1449.84 322)">Regular</text>
  <text style="stroke:none;fill:black;font-family:sans-serif;font-size:13;text-anchor:middle;" transform="matrix(1 0 0 1 1746.56 322)">Medium</text>
  <text style="stroke:none;fill:black;font-family:sans-serif;font-size:13;text-anchor:middle;" transform="matrix(1 0 0 1 2043.27 322)">Semibold</text>
  <text style="stroke:none;fill:black;font-family:sans-serif;font-size:13;text-anchor:middle;" transform="matrix(1 0 0 1 2339.98 322)">Bold</text>
  <text style="stroke:none;fill:black;font-family:sans-serif;font-size:13;text-anchor:middle;" transform="matrix(1 0 0 1 2636.69 322)">Heavy</text>
  <text style="stroke:none;fill:black;font-family:sans-serif;font-size:13;text-anchor:middle;" transform="matrix(1 0 0 1 2933.4 322)">Black</text>
  <line style="fill:none;stroke:black;opacity:1;stroke-width:0.5;" x1="263" x2="3036" y1="1903" y2="1903"/>
  <g transform="matrix(1 0 0 1 263 1933)">
   <path d="M9.24805 0.830078Q10.8691 0.830078 12.2949 0.214844Q13.7207-0.400391 14.8096-1.49414Q15.8984-2.58789 16.5186-4.01367Q17.1387-5.43945 17.1387-7.05078Q17.1387-8.66211 16.5186-10.0879Q15.8984-11.5137 14.8047-12.6074Q13.7109-13.7012 12.2852-14.3164Q10.8594-14.9316 9.23828-14.9316Q7.62695-14.9316 6.20117-14.3164Q4.77539-13.7012 3.69141-12.6074Q2.60742-11.5137 1.9873-10.0879Q1.36719-8.66211 1.36719-7.05078Q1.36719-5.43945 1.9873-4.01367Q2.60742-2.58789 3.69629-1.49414Q4.78516-0.400391 6.21094 0.214844Q7.63672 0.830078 9.24805 0.830078ZM9.24805-0.654297Q7.91992-0.654297 6.7627-1.14746Q5.60547-1.64062 4.73145-2.51953Q3.85742-3.39844 3.36426-4.56055Q2.87109-5.72266 2.87109-7.05078Q2.87109-8.37891 3.35938-9.54102Q3.84766-10.7031 4.72168-11.582Q5.5957-12.4609 6.75293-12.9541Q7.91016-13.4473 9.23828-13.4473Q10.5762-13.4473 11.7334-12.9541Q12.8906-12.4609 13.7695-11.582Q14.6484-10.7031 15.1465-9.54102Q15.6445-8.37891 15.6445-7.05078Q15.6445-5.72266 15.1514-4.56055Q14.6582-3.39844 13.7842-2.51953Q12.9102-1.64062 11.748-1.14746Q10.5859-0.654297 9.24805-0.654297ZM5.6543-7.05078Q5.6543-6.72852 5.85938-6.52832Q6.06445-6.32812 6.40625-6.32812L8.51562-6.32812L8.51562-4.20898Q8.51562-3.88672 8.71094-3.67676Q8.90625-3.4668 9.23828-3.4668Q9.56055-3.4668 9.77051-3.67676Q9.98047-3.88672 9.98047-4.20898L9.98047-6.32812L12.0898-6.32812Q12.4219-6.32812 12.627-6.52832Q12.832-6.72852 12.832-7.05078Q12.832-7.38281 12.627-7.58789Q12.4219-7.79297 12.0898-7.79297L9.98047-7.79297L9.98047-9.90234Q9.98047-10.2344 9.77051-10.4443Q9.56055-10.6543 9.23828-10.6543Q8.90625-10.6543 8.71094-10.4443Q8.51562-10.2344 8.51562-9.90234L8.51562-7.79297L6.40625-7.79297Q6.06445-7.79297 5.85938-7.58789Q5.6543-7.38281 5.6543-7.05078Z"/>
  </g>
  <g transform="matrix(1 0 0 1 281.867 1933)">
   <path d="M11.709 2.91016Q13.75 2.91016 15.5518 2.12891Q17.3535 1.34766 18.7305-0.0292969Q20.1074-1.40625 20.8887-3.20801Q21.6699-5.00977 21.6699-7.05078Q21.6699-9.0918 20.8887-10.8936Q20.1074-12.6953 18.7305-14.0723Q17.3535-15.4492 15.5469-16.2305Q13.7402-17.0117 11.6992-17.0117Q9.6582-17.0117 7.85645-16.2305Q6.05469-15.4492 4.68262-14.0723Q3.31055-12.6953 2.5293-10.8936Q1.74805-9.0918 1.74805-7.05078Q1.74805-5.00977 2.5293-3.20801Q3.31055-1.40625 4.6875-0.0292969Q6.06445 1.34766 7.86621 2.12891Q9.66797 2.91016 11.709 2.91016ZM11.709 1.25Q9.98047 1.25 8.47656 0.605469Q6.97266-0.0390625 5.83496-1.17676Q4.69727-2.31445 4.05762-3.81836Q3.41797-5.32227 3.41797-7.05078Q3.41797-8.7793 4.05762-10.2832Q4.69727-11.7871 5.83008-12.9297Q6.96289-14.0723 8.4668-14.7119Q9.9707-15.3516 11.6992-15.3516Q13.4277-15.3516 14.9316-14.7119Q16.4355-14.0723 17.5781-12.9297Q18.7207-11.7871 19.3652-10.2832Q20.0098-8.7793 20.0098-7.05078Q20.0098-5.32227 19.3701-3.81836Q18.7305-2.31445 17.5928-1.17676Q16.4551-0.0390625 14.9463 0.605469Q13.4375 1.25 11.709 1.25ZM7.17773-7.05078Q7.17773-6.69922 7.41211-6.47461Q7.64648-6.25 8.01758-6.25L10.8887-6.25L10.8887-3.36914Q10.8887-2.99805 11.1133-2.76855Q11.3379-2.53906 11.6895-2.53906Q12.0605-2.53906 12.29-2.76855Q12.5195-2.99805 12.5195-3.36914L12.5195-6.25L15.4004-6.25Q15.7715-6.25 16.001-6.47461Q16.2305-6.69922 16.2305-7.05078Q16.2305-7.42188 16.001-7.65137Q15.7715-7.88086 15.4004-7.88086L12.5195-7.88086L12.5195-10.752Q12.5195-11.1328 12.29-11.3623Q12.0605-11.5918 11.6895-11.5918Q11.3379-11.5918 11.1133-11.3574Q10.8887-11.123 10.8887-10.752L10.8887-7.88086L8.01758-7.88086Q7.63672-7.88086 7.40723-7.65137Q7.17773-7.42188 7.17773-7.05078Z"/>
  </g>
  <g transform="matrix(1 0 0 1 305.646 1933)">
   <path d="M14.9707 5.66406Q17.0605 5.66406 18.96 5.01465Q20.8594 4.36523 22.4512 3.19336Q24.043 2.02148 25.2197 0.429688Q26.3965-1.16211 27.0459-3.06641Q27.6953-4.9707 27.6953-7.05078Q27.6953-9.14062 27.0459-11.04Q26.3965-12.9395 25.2197-14.5312Q24.043-16.123 22.4512-17.2998Q20.8594-18.4766 18.9551-19.126Q17.0508-19.7754 14.9609-19.7754Q12.8711-19.7754 10.9717-19.126Q9.07227-18.4766 7.48535-17.2998Q5.89844-16.123 4.72168-14.5312Q3.54492-12.9395 2.90039-11.04Q2.25586-9.14062 2.25586-7.05078Q2.25586-4.9707 2.90527-3.06641Q3.55469-1.16211 4.72656 0.429688Q5.89844 2.02148 7.49023 3.19336Q9.08203 4.36523 10.9814 5.01465Q12.8809 5.66406 14.9707 5.66406ZM14.9707 3.84766Q13.1641 3.84766 11.5283 3.2959Q9.89258 2.74414 8.53516 1.74805Q7.17773 0.751953 6.17676-0.610352Q5.17578-1.97266 4.62891-3.6084Q4.08203-5.24414 4.08203-7.05078Q4.08203-8.86719 4.62891-10.5029Q5.17578-12.1387 6.17188-13.501Q7.16797-14.8633 8.52539-15.8594Q9.88281-16.8555 11.5186-17.4023Q13.1543-17.9492 14.9609-17.9492Q16.7773-17.9492 18.4131-17.4023Q20.0488-16.8555 21.4111-15.8594Q22.7734-14.8633 23.7695-13.501Q24.7656-12.1387 25.3174-10.5029Q25.8691-8.86719 25.8691-7.05078Q25.8789-5.24414 25.332-3.6084Q24.7852-1.97266 23.7842-0.610352Q22.7832 0.751953 21.4209 1.74805Q20.0586 2.74414 18.4229 3.2959Q16.7871 3.84766 14.9707 3.84766ZM9.19922-7.05078Q9.19922-6.66992 9.45801-6.4209Q9.7168-6.17188 10.1172-6.17188L14.0625-6.17188L14.0625-2.2168Q14.0625-1.81641 14.3115-1.55762Q14.5605-1.29883 14.9512-1.29883Q15.3516-1.29883 15.6104-1.55273Q15.8691-1.80664 15.8691-2.2168L15.8691-6.17188L19.8242-6.17188Q20.2246-6.17188 20.4785-6.4209Q20.7324-6.66992 20.7324-7.05078Q20.7324-7.46094 20.4785-7.71484Q20.2246-7.96875 19.8242-7.96875L15.8691-7.96875L15.8691-11.9141Q15.8691-12.3242 15.6104-12.583Q15.3516-12.8418 14.9512-12.8418Q14.5605-12.8418 14.3115-12.583Q14.0625-12.3242 14.0625-11.9141L14.0625-7.96875L10.1172-7.96875Q9.70703-7.96875 9.45312-7.71484Q9.19922-7.46094 9.19922-7.05078Z"/>
  </g>
  <text style="stroke:none;fill:black;font-family:sans-serif;font-size:13;font-weight:bold;" transform="matrix(1 0 0 1 263 1953)">Design Variations</text>
  <text style="stroke:none;fill:black;font-family:sans-serif;font-size:13;" transform="matrix(1 0 0 1 263 1971)">Symbols are supported in up to nine weights and three scales.</text>
  <text style="stroke:none;fill:black;font-family:sans-serif;font-size:13;" transform="matrix(1 0 0 1 263 1989)">For optimal layout with text and other symbols, vertically align</text>
  <text style="stroke:none;fill:black;font-family:sans-serif;font-size:13;" transform="matrix(1 0 0 1 263 2007)">symbols with the adjacent text.</text>
  <line style="fill:none;stroke:#00AEEF;stroke-width:0.5;opacity:1.0;" x1="776" x2="776" y1="1919" y2="1933"/>
  <g transform="matrix(1 0 0 1 776 1933)">
   <path d="M3.31055 0.15625Q3.70117 0.15625 3.91602-0.00976562Q4.13086-0.175781 4.26758-0.585938L5.52734-4.0332L11.2891-4.0332L12.5488-0.585938Q12.6855-0.175781 12.9004-0.00976562Q13.1152 0.15625 13.4961 0.15625Q13.8867 0.15625 14.1162-0.0585938Q14.3457-0.273438 14.3457-0.644531Q14.3457-0.869141 14.2383-1.17188L9.6582-13.3691Q9.48242-13.8184 9.17969-14.043Q8.87695-14.2676 8.4082-14.2676Q7.5-14.2676 7.17773-13.3789L2.59766-1.16211Q2.49023-0.859375 2.49023-0.634766Q2.49023-0.263672 2.70996-0.0537109Q2.92969 0.15625 3.31055 0.15625ZM6.00586-5.51758L8.37891-12.0898L8.42773-12.0898L10.8008-5.51758Z"/>
  </g>
  <line style="fill:none;stroke:#00AEEF;stroke-width:0.5;opacity:1.0;" x1="793.197" x2="793.197" y1="1919" y2="1933"/>
  <text style="stroke:none;fill:black;font-family:sans-serif;font-size:13;font-weight:bold;" transform="matrix(1 0 0 1 776 1953)">Margins</text>
  <text style="stroke:none;fill:black;font-family:sans-serif;font-size:13;" transform="matrix(1 0 0 1 776 1971)">Leading and trailing margins on the left and right side of each symbol</text>
  <text style="stroke:none;fill:black;font-family:sans-serif;font-size:13;" transform="matrix(1 0 0 1 776 1989)">can be adjusted by modifying the x-location of the margin guidelines.</text>
  <text style="stroke:none;fill:black;font-family:sans-serif;font-size:13;" transform="matrix(1 0 0 1 776 2007)">Modifications are automatically applied proportionally to all</text>
  <text style="stroke:none;fill:black;font-family:sans-serif;font-size:13;" transform="matrix(1 0 0 1 776 2025)">scales and weights.</text>
  <g transform="matrix(1 0 0 1 1289 1933)">
   <path d="M2.8418 1.86523L4.54102 3.57422Q5.18555 4.22852 5.90332 4.17969Q6.62109 4.13086 7.31445 3.35938L18.0078-8.42773L17.041-9.4043L6.42578 2.27539Q6.16211 2.57812 5.89355 2.61719Q5.625 2.65625 5.27344 2.30469L4.10156 1.14258Q3.75 0.791016 3.79395 0.522461Q3.83789 0.253906 4.14062-0.0195312L15.6152-10.8203L14.6387-11.7871L3.04688-0.898438Q2.30469-0.214844 2.25098 0.498047Q2.19727 1.21094 2.8418 1.86523ZM9.25781-16.3281Q8.94531-16.0254 8.90625-15.6348Q8.86719-15.2441 9.04297-14.9512Q9.21875-14.6777 9.55566-14.541Q9.89258-14.4043 10.3809-14.5215Q11.4746-14.7754 12.5977-14.7314Q13.7207-14.6875 14.7949-13.9844L14.209-12.5293Q13.9551-11.9043 14.0674-11.4404Q14.1797-10.9766 14.5801-10.5664L16.875-8.25195Q17.2363-7.88086 17.5781-7.82227Q17.9199-7.76367 18.3398-7.8418L19.4043-8.03711L20.0684-7.36328L20.0293-6.80664Q20-6.43555 20.1221-6.12305Q20.2441-5.81055 20.6055-5.44922L21.3672-4.70703Q21.7285-4.3457 22.1533-4.33105Q22.5781-4.31641 22.9297-4.66797L25.8398-7.58789Q26.1914-7.93945 26.1816-8.35449Q26.1719-8.76953 25.8105-9.13086L25.0391-9.89258Q24.6875-10.2539 24.3799-10.3857Q24.0723-10.5176 23.7109-10.4883L23.1348-10.4395L22.4902-11.0742L22.7344-12.1973Q22.832-12.6172 22.6953-12.9834Q22.5586-13.3496 22.1191-13.7891L19.9219-15.9766Q18.6719-17.2168 17.2607-17.8369Q15.8496-18.457 14.4189-18.4814Q12.9883-18.5059 11.665-17.959Q10.3418-17.4121 9.25781-16.3281ZM10.752-15.957Q11.6602-16.6211 12.7002-16.9043Q13.7402-17.1875 14.8047-17.085Q15.8691-16.9824 16.8701-16.5137Q17.8711-16.0449 18.7012-15.2051L21.1328-12.793Q21.3086-12.6172 21.3525-12.4512Q21.3965-12.2852 21.3379-12.0312L21.0156-10.5469L22.5195-9.0625L23.5059-9.12109Q23.6914-9.13086 23.7891-9.09668Q23.8867-9.0625 24.0332-8.91602L24.6094-8.33984L22.168-5.89844L21.5918-6.47461Q21.4453-6.62109 21.4062-6.71875Q21.3672-6.81641 21.377-7.01172L21.4453-7.98828L19.9512-9.47266L18.4277-9.21875Q18.1836-9.16992 18.042-9.2041Q17.9004-9.23828 17.7148-9.41406L15.7129-11.416Q15.5176-11.5918 15.4932-11.7529Q15.4688-11.9141 15.5859-12.1875L16.4648-14.2773Q15.293-15.3711 13.8281-15.791Q12.3633-16.2109 10.8398-15.7617Q10.7227-15.7324 10.6885-15.8057Q10.6543-15.8789 10.752-15.957Z"/>
  </g>
  <text style="stroke:none;fill:black;font-family:sans-serif;font-size:13;font-weight:bold;" transform="matrix(1 0 0 1 1289 1953)">Exporting</text>
  <text style="stroke:none;fill:black;font-family:sans-serif;font-size:13;" transform="matrix(1 0 0 1 1289 1971)">Symbols should be outlined when exporting to ensure the</text>
  <text style="stroke:none;fill:black;font-family:sans-serif;font-size:13;" transform="matrix(1 0 0 1 1289 1989)">design is preserved when submitting to Xcode.</text>
  <text id="template-version" style="stroke:none;fill:black;font-family:sans-serif;font-size:13;text-anchor:end;" transform="matrix(1 0 0 1 3036 1933)">Template v.3.0</text>
  <text style="stroke:none;fill:black;font-family:sans-serif;font-size:13;text-anchor:end;" transform="matrix(1 0 0 1 3036 1951)">Requires Xcode 13 or greater</text>
  <text id="descriptive-name" style="stroke:none;fill:black;font-family:sans-serif;font-size:13;text-anchor:end;" transform="matrix(1 0 0 1 3036 1969)">Generated from pawprint.circle.fill</text>
  <text style="stroke:none;fill:black;font-family:sans-serif;font-size:13;text-anchor:end;" transform="matrix(1 0 0 1 3036 1987)">Typeset at 100 points</text>
  <text style="stroke:none;fill:black;font-family:sans-serif;font-size:13;" transform="matrix(1 0 0 1 263 726)">Small</text>
  <text style="stroke:none;fill:black;font-family:sans-serif;font-size:13;" transform="matrix(1 0 0 1 263 1156)">Medium</text>
  <text style="stroke:none;fill:black;font-family:sans-serif;font-size:13;" transform="matrix(1 0 0 1 263 1586)">Large</text>
 </g>
 <g id="Guides">
  <g id="H-reference" style="fill:#27AAE1;stroke:none;" transform="matrix(1 0 0 1 339 696)">
   <path d="M0.993347 0L3.6377 0L29.3282-67.1326L30.0301-67.1326L30.0301-70.459L28.1227-70.459ZM11.6882-24.4797L46.9818-24.4797L46.2311-26.7288L12.4382-26.7288ZM55.1193 0L57.7637 0L30.6381-70.459L29.4327-70.459L29.4327-67.1326Z"/>
  </g>
  <line id="Baseline-S" style="fill:none;stroke:#27AAE1;opacity:1;stroke-width:0.5;" x1="263" x2="3036" y1="696" y2="696"/>
  <line id="Capline-S" style="fill:none;stroke:#27AAE1;opacity:1;stroke-width:0.5;" x1="263" x2="3036" y1="625.541" y2="625.541"/>
  <g id="H-reference" style="fill:#27AAE1;stroke:none;" transform="matrix(1 0 0 1 339 1126)">
   <path d="M0.993347 0L3.6377 0L29.3282-67.1326L30.0301-67.1326L30.0301-70.459L28.1227-70.459ZM11.6882-24.4797L46.9818-24.4797L46.2311-26.7288L12.4382-26.7288ZM55.1193 0L57.7637 0L30.6381-70.459L29.4327-70.459L29.4327-67.1326Z"/>
  </g>
  <line id="Baseline-M" style="fill:none;stroke:#27AAE1;opacity:1;stroke-width:0.5;" x1="263" x2="3036" y1="1126" y2="1126"/>
  <line id="Capline-M" style="fill:none;stroke:#27AAE1;opacity:1;stroke-width:0.5;" x1="263" x2="3036" y1="1055.54" y2="1055.54"/>
  <g id="H-reference" style="fill:#27AAE1;stroke:none;" transform="matrix(1 0 0 1 339 1556)">
   <path d="M0.993347 0L3.6377 0L29.3282-67.1326L30.0301-67.1326L30.0301-70.459L28.1227-70.459ZM11.6882-24.4797L46.9818-24.4797L46.2311-26.7288L12.4382-26.7288ZM55.1193 0L57.7637 0L30.6381-70.459L29.4327-70.459L29.4327-67.1326Z"/>
  </g>
  <line id="Baseline-L" style="fill:none;stroke:#27AAE1;opacity:1;stroke-width:0.5;" x1="263" x2="3036" y1="1556" y2="1556"/>
  <line id="Capline-L" style="fill:none;stroke:#27AAE1;opacity:1;stroke-width:0.5;" x1="263" x2="3036" y1="1485.54" y2="1485.54"/>
  <line id="left-margin-Ultralight-S" style="fill:none;stroke:#00AEEF;stroke-width:0.5;opacity:1.0;" x1="515.649" x2="515.649" y1="600.785" y2="720.121"/>
  <line id="right-margin-Ultralight-S" style="fill:none;stroke:#00AEEF;stroke-width:0.5;opacity:1.0;" x1="603.773" x2="603.773" y1="600.785" y2="720.121"/>
  <line id="left-margin-Regular-S" style="fill:none;stroke:#00AEEF;stroke-width:0.5;opacity:1.0;" x1="1403.58" x2="1403.58" y1="600.785" y2="720.121"/>
  <line id="right-margin-Regular-S" style="fill:none;stroke:#00AEEF;stroke-width:0.5;opacity:1.0;" x1="1496.11" x2="1496.11" y1="600.785" y2="720.121"/>
  <line id="left-margin-Black-S" style="fill:none;stroke:#00AEEF;stroke-width:0.5;opacity:1.0;" x1="2884.57" x2="2884.57" y1="600.785" y2="720.121"/>
  <line id="right-margin-Black-S" style="fill:none;stroke:#00AEEF;stroke-width:0.5;opacity:1.0;" x1="2982.23" x2="2982.23" y1="600.785" y2="720.121"/>
 </g>
 <g id="Symbols">
  <g id="Black-S" transform="matrix(1 0 0 1 2884.57 696)">
    <path d="M29.6328-0.466835C25.1406-2.38741 21.1855-5.06481 17.7675-8.49906C14.3495-11.9333 11.6721-15.8884 9.73527-20.3643C7.79842-24.8402 6.83-29.6498 6.83-34.793C6.83-39.9363 7.79842-44.7458 9.73527-49.2217C11.6721-53.6976 14.3495-57.6527 17.7675-61.087C21.1855-64.5212 25.1406-67.1986 29.6328-69.1192C34.125-71.0397 38.9264-72 44.0371-72C49.1803-72 53.9898-71.0397 58.4658-69.1192C62.9416-67.1986 66.8967-64.5212 70.331-61.087C73.7652-57.6527 76.4508-53.6976 78.3877-49.2217C80.3245-44.7458 81.2929-39.9363 81.2929-34.793C81.2929-29.6498 80.3245-24.8402 78.3877-20.3643C76.4508-15.8884 73.7652-11.9333 70.331-8.49906C66.8967-5.06481 62.9416-2.38741 58.4658-0.466835C53.9898 1.45373 49.1803 2.41402 44.0371 2.41402C38.9264 2.41402 34.125 1.45373 29.6328-0.466835ZM43.9208-65.1213C43.7183-65.1212 43.0059-63.0201 42.927-61.6724C42.8481-60.3247 42.7711-59.9967 42.7711-59.9967C42.7712-59.9966 42.4212-59.821 42.2451-59.7044C42.0688-59.5878 41.8864-59.4506 41.7189-59.2952C41.5515-59.1398 41.4012-58.9721 41.2513-58.7886C41.1013-58.6051 40.955-58.4156 40.8226-58.204C40.6903-57.9925 40.5673-57.7617 40.4524-57.5221C40.3376-57.2824 40.238-57.0298 40.1407-56.7621C40.0433-56.4944 39.9604-56.2071 39.8873-55.9243C39.8143-55.6415 39.7412-55.3648 39.6925-55.0669C39.6439-54.769 39.6194-54.4642 39.5951-54.1511C39.5707-53.8381 39.5561-53.505 39.5561-53.1769C39.5561-52.853 39.5707-52.5514 39.5951-52.2416C39.6194-51.9319 39.6438-51.6215 39.6925-51.3258C39.7412-51.03 39.8143-50.7501 39.8873-50.4684C39.9604-50.1867 40.0433-49.8983 40.1407-49.6305C40.238-49.3629 40.3375-49.1108 40.4524-48.8707C40.5672-48.6305 40.6903-48.4013 40.8226-48.1886C40.9551-47.976 41.1014-47.7892 41.2513-47.6041C41.4013-47.419 41.5515-47.2357 41.7189-47.078C41.8864-46.9205 42.0689-46.787 42.2451-46.6688C42.4212-46.5507 42.5862-46.4554 42.7711-46.3766C42.9561-46.2978 43.162-46.2406 43.3557-46.2012C43.5494-46.1618 43.7378-46.1427 43.9402-46.1427C44.1428-46.1427 44.351-46.1618 44.5443-46.2012C44.7375-46.2406 44.9254-46.2978 45.1094-46.3766C45.2933-46.4554 45.4607-46.5507 45.6355-46.6688C45.8103-46.787 45.9766-46.9205 46.1421-47.078C46.3075-47.2357 46.4802-47.4195 46.6292-47.6041C46.7782-47.7887 46.906-47.9772 47.0384-48.1886C47.1708-48.4003 47.2927-48.6321 47.4086-48.8707C47.5245-49.1092 47.6406-49.3651 47.7399-49.6305C47.8391-49.8961 47.9187-50.1678 47.9932-50.4489C48.0677-50.7301 48.1384-51.0095 48.188-51.3063C48.2376-51.6031 48.2801-51.9096 48.3049-52.2221C48.3297-52.5345 48.3439-52.8487 48.3439-53.1769C48.3439-53.505 48.3297-53.8381 48.3049-54.1511C48.2801-54.4642 48.2376-54.769 48.188-55.0669C48.1384-55.3648 48.0676-55.6415 47.9932-55.9243C47.9187-56.2071 47.8391-56.4944 47.7399-56.7621C47.6406-57.0298 47.5245-57.2824 47.4086-57.5221C47.2927-57.7617 47.1708-57.9925 47.0384-58.204C46.906-58.4156 46.7782-58.6051 46.6292-58.7886C46.4803-58.9721 46.3076-59.1398 46.1421-59.2952C45.9765-59.4507 45.8102-59.5878 45.6355-59.7044C45.4608-59.821 45.1094-59.9967 45.1094-59.9967C45.1094-59.9966 45.0984-60.2391 44.973-61.6724C44.8536-63.0356 44.1233-65.1213 43.9208-65.1213ZM34.3146-59.9382C34.1131-59.9382 33.2646-58.2422 33.0675-57.0739C32.8706-55.9056 33.0167-55.1457 32.8337-55.0669C32.6507-54.9881 32.462-54.8928 32.2881-54.7747C32.1143-54.6565 31.9462-54.5231 31.7815-54.3655C31.6169-54.2079 31.4615-54.0244 31.3139-53.8394C31.1662-53.6543 31.0355-53.4675 30.9047-53.2548C30.774-53.0422 30.6482-52.813 30.5345-52.5728C30.4207-52.3327 30.3196-52.0806 30.2227-51.8129C30.1259-51.5452 30.0226-51.2568 29.9499-50.9751C29.8773-50.6933 29.823-50.4135 29.7746-50.1177C29.7261-49.822 29.7013-49.5116 29.6771-49.2019C29.6529-48.8921 29.6382-48.5904 29.6382-48.2666C29.6382-47.9385 29.6529-47.6053 29.6771-47.2923C29.7013-46.9793 29.7261-46.6745 29.7746-46.3766C29.823-46.0786 29.8773-45.7825 29.9499-45.4997C30.0226-45.2169 30.1258-44.9491 30.2227-44.6813C30.3196-44.4136 30.4206-44.1616 30.5345-43.9214C30.6483-43.6813 30.774-43.4521 30.9047-43.2394C31.0354-43.0268 31.1662-42.8401 31.3139-42.6549C31.4616-42.4698 31.6169-42.2864 31.7815-42.1288C31.9461-41.9712 32.1142-41.8377 32.2881-41.7196C32.462-41.6014 32.6507-41.5062 32.8337-41.4273C33.0168-41.3485 33.1871-41.2914 33.3793-41.2519C33.5715-41.2126 33.7819-41.1935 33.9834-41.1935C34.1848-41.1935 34.3752-41.2126 34.5679-41.2519C34.7606-41.2914 34.949-41.3485 35.133-41.4273C35.317-41.5062 35.5033-41.6014 35.6786-41.7196C35.8538-41.8378 36.0186-41.9713 36.1852-42.1288C36.3517-42.2864 36.5037-42.4698 36.6528-42.6549C36.802-42.84 36.9499-43.0268 37.0815-43.2394C37.2132-43.4521 37.3374-43.6813 37.4517-43.9214C37.566-44.1616 37.6667-44.4136 37.7635-44.6813C37.8603-44.9491 37.9441-45.2169 38.0168-45.4997C38.0894-45.7825 38.1632-46.0786 38.2116-46.3766C38.2601-46.6745 38.2848-46.9793 38.3091-47.2923C38.3333-47.6054 38.3481-47.9385 38.348-48.2666C38.348-48.5904 38.3332-48.8921 38.3091-49.2019C38.2848-49.5117 38.2601-49.822 38.2116-50.1177C38.1632-50.4134 38.0894-50.6933 38.0168-50.9751C37.9441-51.2568 37.8603-51.5452 37.7635-51.8129C37.6666-52.0806 37.566-52.3327 37.4517-52.5728C37.3374-52.813 37.2132-53.0421 37.0815-53.2548C36.9498-53.4675 36.8019-53.6542 36.6528-53.8394C36.5037-54.0245 36.3517-54.2079 36.1852-54.3655C36.0186-54.5231 35.8539-54.6564 35.6786-54.7747C35.5033-54.8928 35.3169-54.9881 35.133-55.0669C34.949-55.1457 34.6659-56.067 34.5874-57.1713C34.5119-58.2339 34.516-59.9382 34.3146-59.9382ZM53.6049-59.9187C53.4035-59.9187 53.3881-58.2144 53.3126-57.1518C53.2342-56.0476 52.951-55.1262 52.767-55.0474C52.583-54.9687 52.4162-54.8734 52.2409-54.7552C52.0656-54.6369 51.8814-54.5036 51.7148-54.346C51.5483-54.1884 51.3963-54.005 51.2472-53.8199C51.0981-53.6347 50.9697-53.448 50.838-53.2353C50.7063-53.0227 50.582-52.7935 50.4678-52.5533C50.3534-52.3131 50.2334-52.0611 50.1365-51.7934C50.0397-51.5257 49.9558-51.2373 49.8832-50.9555C49.8106-50.6739 49.7563-50.394 49.7078-50.0982C49.6594-49.8025 49.6151-49.4922 49.5909-49.1824C49.5667-48.8726 49.5715-48.5515 49.5715-48.2276C49.5714-47.8995 49.5667-47.5859 49.5909-47.2729C49.6152-46.9599 49.6594-46.655 49.7078-46.357C49.7562-46.0592 49.8106-45.763 49.8832-45.4802C49.9559-45.1974 50.0397-44.9296 50.1365-44.6619C50.2334-44.3941 50.3535-44.1421 50.4678-43.9019C50.582-43.6618 50.7063-43.4326 50.838-43.22C50.9696-43.0073 51.0981-42.801 51.2472-42.6159C51.3963-42.4308 51.5482-42.2669 51.7148-42.1093C51.8814-41.9517 52.0656-41.8184 52.2409-41.7001C52.4162-41.5819 52.583-41.4866 52.767-41.4078C52.951-41.3291 53.1393-41.2719 53.3321-41.2325C53.5248-41.1931 53.7347-41.1546 53.9361-41.1546C54.1375-41.1546 54.3284-41.1931 54.5207-41.2325C54.7129-41.272 54.9027-41.3291 55.0857-41.4078C55.2687-41.4866 55.438-41.5819 55.6119-41.7001C55.7857-41.8184 55.9538-41.9517 56.1185-42.1093C56.2831-42.2669 56.4579-42.4308 56.6056-42.6159C56.7533-42.8011 56.884-43.0074 57.0148-43.22C57.1455-43.4326 57.2712-43.6618 57.385-43.9019C57.4988-44.1422 57.5999-44.3942 57.6967-44.6619C57.7936-44.9296 57.8774-45.1975 57.9501-45.4802C58.0227-45.763 58.077-46.0592 58.1254-46.357C58.1739-46.655 58.2181-46.9599 58.2423-47.2729C58.2665-47.5859 58.2813-47.8995 58.2813-48.2276C58.2813-48.5515 58.2665-48.8727 58.2423-49.1824C58.2181-49.4922 58.1739-49.8025 58.1254-50.0982C58.077-50.394 58.0227-50.6738 57.9501-50.9555C57.8774-51.2373 57.7936-51.5257 57.6967-51.7934C57.5999-52.0612 57.4988-52.3132 57.385-52.5533C57.2712-52.7935 57.1455-53.0227 57.0148-53.2353C56.884-53.448 56.7533-53.6348 56.6056-53.8199C56.4579-54.0049 56.2831-54.1884 56.1185-54.346C55.9537-54.5036 55.7856-54.637 55.6119-54.7552C55.4381-54.8734 55.2688-54.9687 55.0857-55.0474C54.9027-55.1263 55.0294-55.8666 54.8325-57.0349C54.6354-58.2032 53.8063-59.9187 53.6049-59.9187ZM25.7217-50.6827C25.516-50.6827 24.3027-49.135 24.1239-47.9938C23.9451-46.8526 24.1159-45.6164 23.9291-45.5387C23.7422-45.461 23.5609-45.363 23.3835-45.2464C23.206-45.1298 23.0254-44.9927 22.8573-44.8372C22.6893-44.6818 22.541-44.5142 22.3897-44.3306C22.2384-44.1472 22.0954-43.9381 21.961-43.7266C21.8266-43.515 21.689-43.2842 21.5713-43.0446C21.4537-42.805 21.3409-42.5524 21.2401-42.2847C21.1392-42.017 21.0624-41.7491 20.9868-41.4663C20.9111-41.1835 20.8423-40.8874 20.7919-40.5895C20.7415-40.2916 20.7002-39.9867 20.675-39.6737C20.6498-39.3607 20.6361-39.047 20.636-38.7189C20.636-38.3908 20.6498-38.0766 20.675-37.7641C20.7002-37.4516 20.7415-37.1452 20.7919-36.8483C20.8424-36.5515 20.9111-36.2527 20.9868-35.9715C21.0624-35.6904 21.1392-35.4187 21.2401-35.1531C21.3409-34.8876 21.4537-34.6317 21.5713-34.3932C21.689-34.1547 21.8266-33.9422 21.961-33.7307C22.0955-33.5192 22.2385-33.3112 22.3897-33.1267C22.541-32.9421 22.6892-32.7777 22.8573-32.6201C23.0254-32.4625 23.206-32.3291 23.3835-32.2108C23.5609-32.0927 23.7422-31.9779 23.9291-31.8991C24.1159-31.8203 24.2979-31.7632 24.4941-31.7238C24.6903-31.6843 24.8925-31.6653 25.0982-31.6653C25.3038-31.6653 25.5054-31.6843 25.7022-31.7238C25.8989-31.7632 26.0989-31.8203 26.2867-31.8991C26.4746-31.9779 26.6534-32.0927 26.8323-32.2108C27.0113-32.3291 27.1883-32.4625 27.3584-32.6201C27.5285-32.7777 27.6933-32.9416 27.8455-33.1267C27.9978-33.3118 28.1398-33.5181 28.2742-33.7307C28.4086-33.9434 28.5278-34.1725 28.6445-34.4127C28.7611-34.6529 28.8768-34.905 28.9757-35.1726C29.0746-35.4403 29.1548-35.7093 29.229-35.991C29.3031-36.2727 29.3744-36.5721 29.4239-36.8678C29.4732-37.1636 29.4965-37.4543 29.5213-37.7641C29.5459-38.0739 29.5602-38.3951 29.5602-38.7189C29.5602-39.047 29.5459-39.3606 29.5213-39.6737C29.4966-39.9867 29.4733-40.2916 29.4239-40.5895C29.3744-40.8874 29.3031-41.1835 29.229-41.4663C29.1548-41.7491 29.0745-42.017 28.9757-42.2847C28.8768-42.5524 28.7611-42.805 28.6445-43.0446C28.5278-43.2842 28.4086-43.5151 28.2742-43.7266C28.1398-43.9381 27.9978-44.1472 27.8455-44.3306C27.6933-44.5141 27.5284-44.6818 27.3584-44.8372C27.1883-44.9927 27.0113-45.1298 26.8323-45.2464C26.6534-45.363 26.4745-45.461 26.2867-45.5387C26.0989-45.6164 25.6656-46.7011 25.6827-47.9743C25.6999-49.2476 25.9273-50.6828 25.7217-50.6827ZM62.1978-50.6633C61.9922-50.6634 62.2001-49.2281 62.2173-47.9548C62.2344-46.6816 61.8206-45.5775 61.6327-45.4997C61.4449-45.4219 61.2466-45.3241 61.0677-45.2075C60.8888-45.0909 60.7311-44.9732 60.5611-44.8178C60.391-44.6624 60.2262-44.4751 60.0739-44.2916C59.9217-44.1082 59.7797-43.9186 59.6453-43.7071C59.5109-43.4955 59.3722-43.2647 59.2556-43.0251C59.1388-42.7854 59.0427-42.5329 58.9438-42.2652C58.8449-41.9976 58.7647-41.7296 58.6905-41.4468C58.6164-41.164 58.5451-40.8679 58.4957-40.57C58.4462-40.2721 58.4034-39.9672 58.3788-39.6542C58.354-39.3411 58.3398-39.0275 58.3398-38.6994C58.3398-38.3756 58.354-38.0545 58.3788-37.7446C58.4034-37.4349 58.4462-37.1246 58.4957-36.8289C58.5451-36.5331 58.6163-36.2532 58.6905-35.9715C58.7647-35.6897 58.8449-35.4208 58.9438-35.1531C59.0427-34.8855 59.1389-34.6334 59.2556-34.3932C59.3722-34.1531 59.5108-33.9239 59.6453-33.7112C59.7797-33.4986 59.9217-33.2923 60.0739-33.1072C60.2262-32.9221 60.391-32.7582 60.5611-32.6006C60.7311-32.443 60.8888-32.2901 61.0677-32.1719C61.2466-32.0537 61.4449-31.9584 61.6327-31.8796C61.8206-31.8008 62.0011-31.7436 62.1978-31.7042C62.3946-31.6649 62.5962-31.6458 62.8018-31.6458C63.0075-31.6457 63.2096-31.6649 63.4059-31.7042C63.6021-31.7437 63.8036-31.8008 63.9905-31.8796C64.1773-31.9584 64.3585-32.0537 64.5361-32.1719C64.7135-32.2901 64.8746-32.443 65.0427-32.6006C65.2107-32.7582 65.3785-32.9226 65.5298-33.1072C65.681-33.2917 65.824-33.4997 65.9584-33.7112C66.0929-33.9228 66.211-34.1352 66.3287-34.3737C66.4463-34.6123 66.5591-34.8681 66.6599-35.1336C66.7607-35.3992 66.8571-35.6708 66.9327-35.952C67.0083-36.2333 67.0576-36.532 67.1081-36.8289C67.1585-37.1257 67.1997-37.4127 67.225-37.7252C67.2502-38.0376 67.264-38.3713 67.264-38.6994C67.2639-39.0276 67.2502-39.3412 67.225-39.6542C67.1998-39.9672 67.1585-40.2721 67.1081-40.57C67.0576-40.8679 67.0083-41.164 66.9327-41.4468C66.8571-41.7296 66.7607-41.9975 66.6599-42.2652C66.559-42.5329 66.4463-42.7855 66.3287-43.0251C66.211-43.2647 66.0929-43.4956 65.9584-43.7071C65.824-43.9186 65.681-44.1082 65.5298-44.2916C65.3785-44.4752 65.2107-44.6623 65.0427-44.8178C64.8746-44.9732 64.7135-45.0909 64.5361-45.2075C64.3586-45.3241 64.1773-45.422 63.9905-45.4997C63.8036-45.5775 63.9744-46.8331 63.7956-47.9743C63.6167-49.1156 62.4035-50.6633 62.1978-50.6633ZM44.0767-43.3174C43.9893-43.3192 43.5451-43.3077 43.4532-43.2979C40.0404-43.0512 38.0654-40.6358 37.3738-39.3424C36.635-37.9609 36.1772-35.3193 29.1121-31.4899C25.2371-29.3897 23.0773-24.6277 23.7732-21.1433C24.4157-17.926 25.2782-14.0061 31.801-12.6673C33.5821-12.3017 34.5818-12.7838 35.6981-13.0375C36.8142-13.2912 37.8924-13.5717 38.9326-13.8559C39.7444-14.0791 40.57-14.2679 41.4072-14.4404C42.1896-14.6017 43.0275-14.6638 43.9208-14.6742C44.8222-14.6649 45.6845-14.5835 46.4733-14.421C47.3105-14.2484 48.1361-14.0597 48.948-13.8364C49.9881-13.5523 51.0662-13.2717 52.1825-13.018C53.2986-12.7644 54.2789-12.2822 56.06-12.6478C62.5828-13.9866 63.4648-17.9065 64.1074-21.1238C64.8032-24.6082 62.6433-29.3703 58.7685-31.4704C51.7033-35.2998 51.2455-37.9414 50.5068-39.323C49.8407-40.5685 47.9584-42.8268 44.7781-43.22C44.5683-43.2582 44.2583-43.3136 44.0767-43.3174Z"/>
  </g>
  <g id="Regular-S" transform="matrix(1 0 0 1 1403.58 696)">
    <path d="M29.6328-0.466835C25.1406-2.38741 21.1855-5.06481 17.7675-8.49906C14.3495-11.9333 11.6721-15.8884 9.73527-20.3643C7.79842-24.8402 6.83-29.6498 6.83-34.793C6.83-39.9363 7.79842-44.7458 9.73527-49.2217C11.6721-53.6976 14.3495-57.6527 17.7675-61.087C21.1855-64.5212 25.1406-67.1986 29.6328-69.1192C34.125-71.0397 38.9264-72 44.0371-72C49.1803-72 53.9898-71.0397 58.4658-69.1192C62.9416-67.1986 66.8967-64.5212 70.331-61.087C73.7652-57.6527 76.4508-53.6976 78.3877-49.2217C80.3245-44.7458 81.2929-39.9363 81.2929-34.793C81.2929-29.6498 80.3245-24.8402 78.3877-20.3643C76.4508-15.8884 73.7652-11.9333 70.331-8.49906C66.8967-5.06481 62.9416-2.38741 58.4658-0.466835C53.9898 1.45373 49.1803 2.41402 44.0371 2.41402C38.9264 2.41402 34.125 1.45373 29.6328-0.466835ZM43.9208-65.1213C43.7183-65.1212 43.0059-63.0201 42.927-61.6724C42.8481-60.3247 42.7711-59.9967 42.7711-59.9967C42.7712-59.9966 42.4212-59.821 42.2451-59.7044C42.0688-59.5878 41.8864-59.4506 41.7189-59.2952C41.5515-59.1398 41.4012-58.9721 41.2513-58.7886C41.1013-58.6051 40.955-58.4156 40.8226-58.204C40.6903-57.9925 40.5673-57.7617 40.4524-57.5221C40.3376-57.2824 40.238-57.0298 40.1407-56.7621C40.0433-56.4944 39.9604-56.2071 39.8873-55.9243C39.8143-55.6415 39.7412-55.3648 39.6925-55.0669C39.6439-54.769 39.6194-54.4642 39.5951-54.1511C39.5707-53.8381 39.5561-53.505 39.5561-53.1769C39.5561-52.853 39.5707-52.5514 39.5951-52.2416C39.6194-51.9319 39.6438-51.6215 39.6925-51.3258C39.7412-51.03 39.8143-50.7501 39.8873-50.4684C39.9604-50.1867 40.0433-49.8983 40.1407-49.6305C40.238-49.3629 40.3375-49.1108 40.4524-48.8707C40.5672-48.6305 40.6903-48.4013 40.8226-48.1886C40.9551-47.976 41.1014-47.7892 41.2513-47.6041C41.4013-47.419 41.5515-47.2357 41.7189-47.078C41.8864-46.9205 42.0689-46.787 42.2451-46.6688C42.4212-46.5507 42.5862-46.4554 42.7711-46.3766C42.9561-46.2978 43.162-46.2406 43.3557-46.2012C43.5494-46.1618 43.7378-46.1427 43.9402-46.1427C44.1428-46.1427 44.351-46.1618 44.5443-46.2012C44.7375-46.2406 44.9254-46.2978 45.1094-46.3766C45.2933-46.4554 45.4607-46.5507 45.6355-46.6688C45.8103-46.787 45.9766-46.9205 46.1421-47.078C46.3075-47.2357 46.4802-47.4195 46.6292-47.6041C46.7782-47.7887 46.906-47.9772 47.0384-48.1886C47.1708-48.4003 47.2927-48.6321 47.4086-48.8707C47.5245-49.1092 47.6406-49.3651 47.7399-49.6305C47.8391-49.8961 47.9187-50.1678 47.9932-50.4489C48.0677-50.7301 48.1384-51.0095 48.188-51.3063C48.2376-51.6031 48.2801-51.9096 48.3049-52.2221C48.3297-52.5345 48.3439-52.8487 48.3439-53.1769C48.3439-53.505 48.3297-53.8381 48.3049-54.1511C48.2801-54.4642 48.2376-54.769 48.188-55.0669C48.1384-55.3648 48.0676-55.6415 47.9932-55.9243C47.9187-56.2071 47.8391-56.4944 47.7399-56.7621C47.6406-57.0298 47.5245-57.2824 47.4086-57.5221C47.2927-57.7617 47.1708-57.9925 47.0384-58.204C46.906-58.4156 46.7782-58.6051 46.6292-58.7886C46.4803-58.9721 46.3076-59.1398 46.1421-59.2952C45.9765-59.4507 45.8102-59.5878 45.6355-59.7044C45.4608-59.821 45.1094-59.9967 45.1094-59.9967C45.1094-59.9966 45.0984-60.2391 44.973-61.6724C44.8536-63.0356 44.1233-65.1213 43.9208-65.1213ZM34.3146-59.9382C34.1131-59.9382 33.2646-58.2422 33.0675-57.0739C32.8706-55.9056 33.0167-55.1457 32.8337-55.0669C32.6507-54.9881 32.462-54.8928 32.2881-54.7747C32.1143-54.6565 31.9462-54.5231 31.7815-54.3655C31.6169-54.2079 31.4615-54.0244 31.3139-53.8394C31.1662-53.6543 31.0355-53.4675 30.9047-53.2548C30.774-53.0422 30.6482-52.813 30.5345-52.5728C30.4207-52.3327 30.3196-52.0806 30.2227-51.8129C30.1259-51.5452 30.0226-51.2568 29.9499-50.9751C29.8773-50.6933 29.823-50.4135 29.7746-50.1177C29.7261-49.822 29.7013-49.5116 29.6771-49.2019C29.6529-48.8921 29.6382-48.5904 29.6382-48.2666C29.6382-47.9385 29.6529-47.6053 29.6771-47.2923C29.7013-46.9793 29.7261-46.6745 29.7746-46.3766C29.823-46.0786 29.8773-45.7825 29.9499-45.4997C30.0226-45.2169 30.1258-44.9491 30.2227-44.6813C30.3196-44.4136 30.4206-44.1616 30.5345-43.9214C30.6483-43.6813 30.774-43.4521 30.9047-43.2394C31.0354-43.0268 31.1662-42.8401 31.3139-42.6549C31.4616-42.4698 31.6169-42.2864 31.7815-42.1288C31.9461-41.9712 32.1142-41.8377 32.2881-41.7196C32.462-41.6014 32.6507-41.5062 32.8337-41.4273C33.0168-41.3485 33.1871-41.2914 33.3793-41.2519C33.5715-41.2126 33.7819-41.1935 33.9834-41.1935C34.1848-41.1935 34.3752-41.2126 34.5679-41.2519C34.7606-41.2914 34.949-41.3485 35.133-41.4273C35.317-41.5062 35.5033-41.6014 35.6786-41.7196C35.8538-41.8378 36.0186-41.9713 36.1852-42.1288C36.3517-42.2864 36.5037-42.4698 36.6528-42.6549C36.802-42.84 36.9499-43.0268 37.0815-43.2394C37.2132-43.4521 37.3374-43.6813 37.4517-43.9214C37.566-44.1616 37.6667-44.4136 37.7635-44.6813C37.8603-44.9491 37.9441-45.2169 38.0168-45.4997C38.0894-45.7825 38.1632-46.0786 38.2116-46.3766C38.2601-46.6745 38.2848-46.9793 38.3091-47.2923C38.3333-47.6054 38.3481-47.9385 38.348-48.2666C38.348-48.5904 38.3332-48.8921 38.3091-49.2019C38.2848-49.5117 38.2601-49.822 38.2116-50.1177C38.1632-50.4134 38.0894-50.6933 38.0168-50.9751C37.9441-51.2568 37.8603-51.5452 37.7635-51.8129C37.6666-52.0806 37.566-52.3327 37.4517-52.5728C37.3374-52.813 37.2132-53.0421 37.0815-53.2548C36.9498-53.4675 36.8019-53.6542 36.6528-53.8394C36.5037-54.0245 36.3517-54.2079 36.1852-54.3655C36.0186-54.5231 35.8539-54.6564 35.6786-54.7747C35.5033-54.8928 35.3169-54.9881 35.133-55.0669C34.949-55.1457 34.6659-56.067 34.5874-57.1713C34.5119-58.2339 34.516-59.9382 34.3146-59.9382ZM53.6049-59.9187C53.4035-59.9187 53.3881-58.2144 53.3126-57.1518C53.2342-56.0476 52.951-55.1262 52.767-55.0474C52.583-54.9687 52.4162-54.8734 52.2409-54.7552C52.0656-54.6369 51.8814-54.5036 51.7148-54.346C51.5483-54.1884 51.3963-54.005 51.2472-53.8199C51.0981-53.6347 50.9697-53.448 50.838-53.2353C50.7063-53.0227 50.582-52.7935 50.4678-52.5533C50.3534-52.3131 50.2334-52.0611 50.1365-51.7934C50.0397-51.5257 49.9558-51.2373 49.8832-50.9555C49.8106-50.6739 49.7563-50.394 49.7078-50.0982C49.6594-49.8025 49.6151-49.4922 49.5909-49.1824C49.5667-48.8726 49.5715-48.5515 49.5715-48.2276C49.5714-47.8995 49.5667-47.5859 49.5909-47.2729C49.6152-46.9599 49.6594-46.655 49.7078-46.357C49.7562-46.0592 49.8106-45.763 49.8832-45.4802C49.9559-45.1974 50.0397-44.9296 50.1365-44.6619C50.2334-44.3941 50.3535-44.1421 50.4678-43.9019C50.582-43.6618 50.7063-43.4326 50.838-43.22C50.9696-43.0073 51.0981-42.801 51.2472-42.6159C51.3963-42.4308 51.5482-42.2669 51.7148-42.1093C51.8814-41.9517 52.0656-41.8184 52.2409-41.7001C52.4162-41.5819 52.583-41.4866 52.767-41.4078C52.951-41.3291 53.1393-41.2719 53.3321-41.2325C53.5248-41.1931 53.7347-41.1546 53.9361-41.1546C54.1375-41.1546 54.3284-41.1931 54.5207-41.2325C54.7129-41.272 54.9027-41.3291 55.0857-41.4078C55.2687-41.4866 55.438-41.5819 55.6119-41.7001C55.7857-41.8184 55.9538-41.9517 56.1185-42.1093C56.2831-42.2669 56.4579-42.4308 56.6056-42.6159C56.7533-42.8011 56.884-43.0074 57.0148-43.22C57.1455-43.4326 57.2712-43.6618 57.385-43.9019C57.4988-44.1422 57.5999-44.3942 57.6967-44.6619C57.7936-44.9296 57.8774-45.1975 57.9501-45.4802C58.0227-45.763 58.077-46.0592 58.1254-46.357C58.1739-46.655 58.2181-46.9599 58.2423-47.2729C58.2665-47.5859 58.2813-47.8995 58.2813-48.2276C58.2813-48.5515 58.2665-48.8727 58.2423-49.1824C58.2181-49.4922 58.1739-49.8025 58.1254-50.0982C58.077-50.394 58.0227-50.6738 57.9501-50.9555C57.8774-51.2373 57.7936-51.5257 57.6967-51.7934C57.5999-52.0612 57.4988-52.3132 57.385-52.5533C57.2712-52.7935 57.1455-53.0227 57.0148-53.2353C56.884-53.448 56.7533-53.6348 56.6056-53.8199C56.4579-54.0049 56.2831-54.1884 56.1185-54.346C55.9537-54.5036 55.7856-54.637 55.6119-54.7552C55.4381-54.8734 55.2688-54.9687 55.0857-55.0474C54.9027-55.1263 55.0294-55.8666 54.8325-57.0349C54.6354-58.2032 53.8063-59.9187 53.6049-59.9187ZM25.7217-50.6827C25.516-50.6827 24.3027-49.135 24.1239-47.9938C23.9451-46.8526 24.1159-45.6164 23.9291-45.5387C23.7422-45.461 23.5609-45.363 23.3835-45.2464C23.206-45.1298 23.0254-44.9927 22.8573-44.8372C22.6893-44.6818 22.541-44.5142 22.3897-44.3306C22.2384-44.1472 22.0954-43.9381 21.961-43.7266C21.8266-43.515 21.689-43.2842 21.5713-43.0446C21.4537-42.805 21.3409-42.5524 21.2401-42.2847C21.1392-42.017 21.0624-41.7491 20.9868-41.4663C20.9111-41.1835 20.8423-40.8874 20.7919-40.5895C20.7415-40.2916 20.7002-39.9867 20.675-39.6737C20.6498-39.3607 20.6361-39.047 20.636-38.7189C20.636-38.3908 20.6498-38.0766 20.675-37.7641C20.7002-37.4516 20.7415-37.1452 20.7919-36.8483C20.8424-36.5515 20.9111-36.2527 20.9868-35.9715C21.0624-35.6904 21.1392-35.4187 21.2401-35.1531C21.3409-34.8876 21.4537-34.6317 21.5713-34.3932C21.689-34.1547 21.8266-33.9422 21.961-33.7307C22.0955-33.5192 22.2385-33.3112 22.3897-33.1267C22.541-32.9421 22.6892-32.7777 22.8573-32.6201C23.0254-32.4625 23.206-32.3291 23.3835-32.2108C23.5609-32.0927 23.7422-31.9779 23.9291-31.8991C24.1159-31.8203 24.2979-31.7632 24.4941-31.7238C24.6903-31.6843 24.8925-31.6653 25.0982-31.6653C25.3038-31.6653 25.5054-31.6843 25.7022-31.7238C25.8989-31.7632 26.0989-31.8203 26.2867-31.8991C26.4746-31.9779 26.6534-32.0927 26.8323-32.2108C27.0113-32.3291 27.1883-32.4625 27.3584-32.6201C27.5285-32.7777 27.6933-32.9416 27.8455-33.1267C27.9978-33.3118 28.1398-33.5181 28.2742-33.7307C28.4086-33.9434 28.5278-34.1725 28.6445-34.4127C28.7611-34.6529 28.8768-34.905 28.9757-35.1726C29.0746-35.4403 29.1548-35.7093 29.229-35.991C29.3031-36.2727 29.3744-36.5721 29.4239-36.8678C29.4732-37.1636 29.4965-37.4543 29.5213-37.7641C29.5459-38.0739 29.5602-38.3951 29.5602-38.7189C29.5602-39.047 29.5459-39.3606 29.5213-39.6737C29.4966-39.9867 29.4733-40.2916 29.4239-40.5895C29.3744-40.8874 29.3031-41.1835 29.229-41.4663C29.1548-41.7491 29.0745-42.017 28.9757-42.2847C28.8768-42.5524 28.7611-42.805 28.6445-43.0446C28.5278-43.2842 28.4086-43.5151 28.2742-43.7266C28.1398-43.9381 27.9978-44.1472 27.8455-44.3306C27.6933-44.5141 27.5284-44.6818 27.3584-44.8372C27.1883-44.9927 27.0113-45.1298 26.8323-45.2464C26.6534-45.363 26.4745-45.461 26.2867-45.5387C26.0989-45.6164 25.6656-46.7011 25.6827-47.9743C25.6999-49.2476 25.9273-50.6828 25.7217-50.6827ZM62.1978-50.6633C61.9922-50.6634 62.2001-49.2281 62.2173-47.9548C62.2344-46.6816 61.8206-45.5775 61.6327-45.4997C61.4449-45.4219 61.2466-45.3241 61.0677-45.2075C60.8888-45.0909 60.7311-44.9732 60.5611-44.8178C60.391-44.6624 60.2262-44.4751 60.0739-44.2916C59.9217-44.1082 59.7797-43.9186 59.6453-43.7071C59.5109-43.4955 59.3722-43.2647 59.2556-43.0251C59.1388-42.7854 59.0427-42.5329 58.9438-42.2652C58.8449-41.9976 58.7647-41.7296 58.6905-41.4468C58.6164-41.164 58.5451-40.8679 58.4957-40.57C58.4462-40.2721 58.4034-39.9672 58.3788-39.6542C58.354-39.3411 58.3398-39.0275 58.3398-38.6994C58.3398-38.3756 58.354-38.0545 58.3788-37.7446C58.4034-37.4349 58.4462-37.1246 58.4957-36.8289C58.5451-36.5331 58.6163-36.2532 58.6905-35.9715C58.7647-35.6897 58.8449-35.4208 58.9438-35.1531C59.0427-34.8855 59.1389-34.6334 59.2556-34.3932C59.3722-34.1531 59.5108-33.9239 59.6453-33.7112C59.7797-33.4986 59.9217-33.2923 60.0739-33.1072C60.2262-32.9221 60.391-32.7582 60.5611-32.6006C60.7311-32.443 60.8888-32.2901 61.0677-32.1719C61.2466-32.0537 61.4449-31.9584 61.6327-31.8796C61.8206-31.8008 62.0011-31.7436 62.1978-31.7042C62.3946-31.6649 62.5962-31.6458 62.8018-31.6458C63.0075-31.6457 63.2096-31.6649 63.4059-31.7042C63.6021-31.7437 63.8036-31.8008 63.9905-31.8796C64.1773-31.9584 64.3585-32.0537 64.5361-32.1719C64.7135-32.2901 64.8746-32.443 65.0427-32.6006C65.2107-32.7582 65.3785-32.9226 65.5298-33.1072C65.681-33.2917 65.824-33.4997 65.9584-33.7112C66.0929-33.9228 66.211-34.1352 66.3287-34.3737C66.4463-34.6123 66.5591-34.8681 66.6599-35.1336C66.7607-35.3992 66.8571-35.6708 66.9327-35.952C67.0083-36.2333 67.0576-36.532 67.1081-36.8289C67.1585-37.1257 67.1997-37.4127 67.225-37.7252C67.2502-38.0376 67.264-38.3713 67.264-38.6994C67.2639-39.0276 67.2502-39.3412 67.225-39.6542C67.1998-39.9672 67.1585-40.2721 67.1081-40.57C67.0576-40.8679 67.0083-41.164 66.9327-41.4468C66.8571-41.7296 66.7607-41.9975 66.6599-42.2652C66.559-42.5329 66.4463-42.7855 66.3287-43.0251C66.211-43.2647 66.0929-43.4956 65.9584-43.7071C65.824-43.9186 65.681-44.1082 65.5298-44.2916C65.3785-44.4752 65.2107-44.6623 65.0427-44.8178C64.8746-44.9732 64.7135-45.0909 64.5361-45.2075C64.3586-45.3241 64.1773-45.422 63.9905-45.4997C63.8036-45.5775 63.9744-46.8331 63.7956-47.9743C63.6167-49.1156 62.4035-50.6633 62.1978-50.6633ZM44.0767-43.3174C43.9893-43.3192 43.5451-43.3077 43.4532-43.2979C40.0404-43.0512 38.0654-40.6358 37.3738-39.3424C36.635-37.9609 36.1772-35.3193 29.1121-31.4899C25.2371-29.3897 23.0773-24.6277 23.7732-21.1433C24.4157-17.926 25.2782-14.0061 31.801-12.6673C33.5821-12.3017 34.5818-12.7838 35.6981-13.0375C36.8142-13.2912 37.8924-13.5717 38.9326-13.8559C39.7444-14.0791 40.57-14.2679 41.4072-14.4404C42.1896-14.6017 43.0275-14.6638 43.9208-14.6742C44.8222-14.6649 45.6845-14.5835 46.4733-14.421C47.3105-14.2484 48.1361-14.0597 48.948-13.8364C49.9881-13.5523 51.0662-13.2717 52.1825-13.018C53.2986-12.7644 54.2789-12.2822 56.06-12.6478C62.5828-13.9866 63.4648-17.9065 64.1074-21.1238C64.8032-24.6082 62.6433-29.3703 58.7685-31.4704C51.7033-35.2998 51.2455-37.9414 50.5068-39.323C49.8407-40.5685 47.9584-42.8268 44.7781-43.22C44.5683-43.2582 44.2583-43.3136 44.0767-43.3174Z"/>
  </g>
  <g id="Ultralight-S" transform="matrix(1 0 0 1 515.649 696)">
    <path d="M29.6328-0.466835C25.1406-2.38741 21.1855-5.06481 17.7675-8.49906C14.3495-11.9333 11.6721-15.8884 9.73527-20.3643C7.79842-24.8402 6.83-29.6498 6.83-34.793C6.83-39.9363 7.79842-44.7458 9.73527-49.2217C11.6721-53.6976 14.3495-57.6527 17.7675-61.087C21.1855-64.5212 25.1406-67.1986 29.6328-69.1192C34.125-71.0397 38.9264-72 44.0371-72C49.1803-72 53.9898-71.0397 58.4658-69.1192C62.9416-67.1986 66.8967-64.5212 70.331-61.087C73.7652-57.6527 76.4508-53.6976 78.3877-49.2217C80.3245-44.7458 81.2929-39.9363 81.2929-34.793C81.2929-29.6498 80.3245-24.8402 78.3877-20.3643C76.4508-15.8884 73.7652-11.9333 70.331-8.49906C66.8967-5.06481 62.9416-2.38741 58.4658-0.466835C53.9898 1.45373 49.1803 2.41402 44.0371 2.41402C38.9264 2.41402 34.125 1.45373 29.6328-0.466835ZM43.9208-65.1213C43.7183-65.1212 43.0059-63.0201 42.927-61.6724C42.8481-60.3247 42.7711-59.9967 42.7711-59.9967C42.7712-59.9966 42.4212-59.821 42.2451-59.7044C42.0688-59.5878 41.8864-59.4506 41.7189-59.2952C41.5515-59.1398 41.4012-58.9721 41.2513-58.7886C41.1013-58.6051 40.955-58.4156 40.8226-58.204C40.6903-57.9925 40.5673-57.7617 40.4524-57.5221C40.3376-57.2824 40.238-57.0298 40.1407-56.7621C40.0433-56.4944 39.9604-56.2071 39.8873-55.9243C39.8143-55.6415 39.7412-55.3648 39.6925-55.0669C39.6439-54.769 39.6194-54.4642 39.5951-54.1511C39.5707-53.8381 39.5561-53.505 39.5561-53.1769C39.5561-52.853 39.5707-52.5514 39.5951-52.2416C39.6194-51.9319 39.6438-51.6215 39.6925-51.3258C39.7412-51.03 39.8143-50.7501 39.8873-50.4684C39.9604-50.1867 40.0433-49.8983 40.1407-49.6305C40.238-49.3629 40.3375-49.1108 40.4524-48.8707C40.5672-48.6305 40.6903-48.4013 40.8226-48.1886C40.9551-47.976 41.1014-47.7892 41.2513-47.6041C41.4013-47.419 41.5515-47.2357 41.7189-47.078C41.8864-46.9205 42.0689-46.787 42.2451-46.6688C42.4212-46.5507 42.5862-46.4554 42.7711-46.3766C42.9561-46.2978 43.162-46.2406 43.3557-46.2012C43.5494-46.1618 43.7378-46.1427 43.9402-46.1427C44.1428-46.1427 44.351-46.1618 44.5443-46.2012C44.7375-46.2406 44.9254-46.2978 45.1094-46.3766C45.2933-46.4554 45.4607-46.5507 45.6355-46.6688C45.8103-46.787 45.9766-46.9205 46.1421-47.078C46.3075-47.2357 46.4802-47.4195 46.6292-47.6041C46.7782-47.7887 46.906-47.9772 47.0384-48.1886C47.1708-48.4003 47.2927-48.6321 47.4086-48.8707C47.5245-49.1092 47.6406-49.3651 47.7399-49.6305C47.8391-49.8961 47.9187-50.1678 47.9932-50.4489C48.0677-50.7301 48.1384-51.0095 48.188-51.3063C48.2376-51.6031 48.2801-51.9096 48.3049-52.2221C48.3297-52.5345 48.3439-52.8487 48.3439-53.1769C48.3439-53.505 48.3297-53.8381 48.3049-54.1511C48.2801-54.4642 48.2376-54.769 48.188-55.0669C48.1384-55.3648 48.0676-55.6415 47.9932-55.9243C47.9187-56.2071 47.8391-56.4944 47.7399-56.7621C47.6406-57.0298 47.5245-57.2824 47.4086-57.5221C47.2927-57.7617 47.1708-57.9925 47.0384-58.204C46.906-58.4156 46.7782-58.6051 46.6292-58.7886C46.4803-58.9721 46.3076-59.1398 46.1421-59.2952C45.9765-59.4507 45.8102-59.5878 45.6355-59.7044C45.4608-59.821 45.1094-59.9967 45.1094-59.9967C45.1094-59.9966 45.0984-60.2391 44.973-61.6724C44.8536-63.0356 44.1233-65.1213 43.9208-65.1213ZM34.3146-59.9382C34.1131-59.9382 33.2646-58.2422 33.0675-57.0739C32.8706-55.9056 33.0167-55.1457 32.8337-55.0669C32.6507-54.9881 32.462-54.8928 32.2881-54.7747C32.1143-54.6565 31.9462-54.5231 31.7815-54.3655C31.6169-54.2079 31.4615-54.0244 31.3139-53.8394C31.1662-53.6543 31.0355-53.4675 30.9047-53.2548C30.774-53.0422 30.6482-52.813 30.5345-52.5728C30.4207-52.3327 30.3196-52.0806 30.2227-51.8129C30.1259-51.5452 30.0226-51.2568 29.9499-50.9751C29.8773-50.6933 29.823-50.4135 29.7746-50.1177C29.7261-49.822 29.7013-49.5116 29.6771-49.2019C29.6529-48.8921 29.6382-48.5904 29.6382-48.2666C29.6382-47.9385 29.6529-47.6053 29.6771-47.2923C29.7013-46.9793 29.7261-46.6745 29.7746-46.3766C29.823-46.0786 29.8773-45.7825 29.9499-45.4997C30.0226-45.2169 30.1258-44.9491 30.2227-44.6813C30.3196-44.4136 30.4206-44.1616 30.5345-43.9214C30.6483-43.6813 30.774-43.4521 30.9047-43.2394C31.0354-43.0268 31.1662-42.8401 31.3139-42.6549C31.4616-42.4698 31.6169-42.2864 31.7815-42.1288C31.9461-41.9712 32.1142-41.8377 32.2881-41.7196C32.462-41.6014 32.6507-41.5062 32.8337-41.4273C33.0168-41.3485 33.1871-41.2914 33.3793-41.2519C33.5715-41.2126 33.7819-41.1935 33.9834-41.1935C34.1848-41.1935 34.3752-41.2126 34.5679-41.2519C34.7606-41.2914 34.949-41.3485 35.133-41.4273C35.317-41.5062 35.5033-41.6014 35.6786-41.7196C35.8538-41.8378 36.0186-41.9713 36.1852-42.1288C36.3517-42.2864 36.5037-42.4698 36.6528-42.6549C36.802-42.84 36.9499-43.0268 37.0815-43.2394C37.2132-43.4521 37.3374-43.6813 37.4517-43.9214C37.566-44.1616 37.6667-44.4136 37.7635-44.6813C37.8603-44.9491 37.9441-45.2169 38.0168-45.4997C38.0894-45.7825 38.1632-46.0786 38.2116-46.3766C38.2601-46.6745 38.2848-46.9793 38.3091-47.2923C38.3333-47.6054 38.3481-47.9385 38.348-48.2666C38.348-48.5904 38.3332-48.8921 38.3091-49.2019C38.2848-49.5117 38.2601-49.822 38.2116-50.1177C38.1632-50.4134 38.0894-50.6933 38.0168-50.9751C37.9441-51.2568 37.8603-51.5452 37.7635-51.8129C37.6666-52.0806 37.566-52.3327 37.4517-52.5728C37.3374-52.813 37.2132-53.0421 37.0815-53.2548C36.9498-53.4675 36.8019-53.6542 36.6528-53.8394C36.5037-54.0245 36.3517-54.2079 36.1852-54.3655C36.0186-54.5231 35.8539-54.6564 35.6786-54.7747C35.5033-54.8928 35.3169-54.9881 35.133-55.0669C34.949-55.1457 34.6659-56.067 34.5874-57.1713C34.5119-58.2339 34.516-59.9382 34.3146-59.9382ZM53.6049-59.9187C53.4035-59.9187 53.3881-58.2144 53.3126-57.1518C53.2342-56.0476 52.951-55.1262 52.767-55.0474C52.583-54.9687 52.4162-54.8734 52.2409-54.7552C52.0656-54.6369 51.8814-54.5036 51.7148-54.346C51.5483-54.1884 51.3963-54.005 51.2472-53.8199C51.0981-53.6347 50.9697-53.448 50.838-53.2353C50.7063-53.0227 50.582-52.7935 50.4678-52.5533C50.3534-52.3131 50.2334-52.0611 50.1365-51.7934C50.0397-51.5257 49.9558-51.2373 49.8832-50.9555C49.8106-50.6739 49.7563-50.394 49.7078-50.0982C49.6594-49.8025 49.6151-49.4922 49.5909-49.1824C49.5667-48.8726 49.5715-48.5515 49.5715-48.2276C49.5714-47.8995 49.5667-47.5859 49.5909-47.2729C49.6152-46.9599 49.6594-46.655 49.7078-46.357C49.7562-46.0592 49.8106-45.763 49.8832-45.4802C49.9559-45.1974 50.0397-44.9296 50.1365-44.6619C50.2334-44.3941 50.3535-44.1421 50.4678-43.9019C50.582-43.6618 50.7063-43.4326 50.838-43.22C50.9696-43.0073 51.0981-42.801 51.2472-42.6159C51.3963-42.4308 51.5482-42.2669 51.7148-42.1093C51.8814-41.9517 52.0656-41.8184 52.2409-41.7001C52.4162-41.5819 52.583-41.4866 52.767-41.4078C52.951-41.3291 53.1393-41.2719 53.3321-41.2325C53.5248-41.1931 53.7347-41.1546 53.9361-41.1546C54.1375-41.1546 54.3284-41.1931 54.5207-41.2325C54.7129-41.272 54.9027-41.3291 55.0857-41.4078C55.2687-41.4866 55.438-41.5819 55.6119-41.7001C55.7857-41.8184 55.9538-41.9517 56.1185-42.1093C56.2831-42.2669 56.4579-42.4308 56.6056-42.6159C56.7533-42.8011 56.884-43.0074 57.0148-43.22C57.1455-43.4326 57.2712-43.6618 57.385-43.9019C57.4988-44.1422 57.5999-44.3942 57.6967-44.6619C57.7936-44.9296 57.8774-45.1975 57.9501-45.4802C58.0227-45.763 58.077-46.0592 58.1254-46.357C58.1739-46.655 58.2181-46.9599 58.2423-47.2729C58.2665-47.5859 58.2813-47.8995 58.2813-48.2276C58.2813-48.5515 58.2665-48.8727 58.2423-49.1824C58.2181-49.4922 58.1739-49.8025 58.1254-50.0982C58.077-50.394 58.0227-50.6738 57.9501-50.9555C57.8774-51.2373 57.7936-51.5257 57.6967-51.7934C57.5999-52.0612 57.4988-52.3132 57.385-52.5533C57.2712-52.7935 57.1455-53.0227 57.0148-53.2353C56.884-53.448 56.7533-53.6348 56.6056-53.8199C56.4579-54.0049 56.2831-54.1884 56.1185-54.346C55.9537-54.5036 55.7856-54.637 55.6119-54.7552C55.4381-54.8734 55.2688-54.9687 55.0857-55.0474C54.9027-55.1263 55.0294-55.8666 54.8325-57.0349C54.6354-58.2032 53.8063-59.9187 53.6049-59.9187ZM25.7217-50.6827C25.516-50.6827 24.3027-49.135 24.1239-47.9938C23.9451-46.8526 24.1159-45.6164 23.9291-45.5387C23.7422-45.461 23.5609-45.363 23.3835-45.2464C23.206-45.1298 23.0254-44.9927 22.8573-44.8372C22.6893-44.6818 22.541-44.5142 22.3897-44.3306C22.2384-44.1472 22.0954-43.9381 21.961-43.7266C21.8266-43.515 21.689-43.2842 21.5713-43.0446C21.4537-42.805 21.3409-42.5524 21.2401-42.2847C21.1392-42.017 21.0624-41.7491 20.9868-41.4663C20.9111-41.1835 20.8423-40.8874 20.7919-40.5895C20.7415-40.2916 20.7002-39.9867 20.675-39.6737C20.6498-39.3607 20.6361-39.047 20.636-38.7189C20.636-38.3908 20.6498-38.0766 20.675-37.7641C20.7002-37.4516 20.7415-37.1452 20.7919-36.8483C20.8424-36.5515 20.9111-36.2527 20.9868-35.9715C21.0624-35.6904 21.1392-35.4187 21.2401-35.1531C21.3409-34.8876 21.4537-34.6317 21.5713-34.3932C21.689-34.1547 21.8266-33.9422 21.961-33.7307C22.0955-33.5192 22.2385-33.3112 22.3897-33.1267C22.541-32.9421 22.6892-32.7777 22.8573-32.6201C23.0254-32.4625 23.206-32.3291 23.3835-32.2108C23.5609-32.0927 23.7422-31.9779 23.9291-31.8991C24.1159-31.8203 24.2979-31.7632 24.4941-31.7238C24.6903-31.6843 24.8925-31.6653 25.0982-31.6653C25.3038-31.6653 25.5054-31.6843 25.7022-31.7238C25.8989-31.7632 26.0989-31.8203 26.2867-31.8991C26.4746-31.9779 26.6534-32.0927 26.8323-32.2108C27.0113-32.3291 27.1883-32.4625 27.3584-32.6201C27.5285-32.7777 27.6933-32.9416 27.8455-33.1267C27.9978-33.3118 28.1398-33.5181 28.2742-33.7307C28.4086-33.9434 28.5278-34.1725 28.6445-34.4127C28.7611-34.6529 28.8768-34.905 28.9757-35.1726C29.0746-35.4403 29.1548-35.7093 29.229-35.991C29.3031-36.2727 29.3744-36.5721 29.4239-36.8678C29.4732-37.1636 29.4965-37.4543 29.5213-37.7641C29.5459-38.0739 29.5602-38.3951 29.5602-38.7189C29.5602-39.047 29.5459-39.3606 29.5213-39.6737C29.4966-39.9867 29.4733-40.2916 29.4239-40.5895C29.3744-40.8874 29.3031-41.1835 29.229-41.4663C29.1548-41.7491 29.0745-42.017 28.9757-42.2847C28.8768-42.5524 28.7611-42.805 28.6445-43.0446C28.5278-43.2842 28.4086-43.5151 28.2742-43.7266C28.1398-43.9381 27.9978-44.1472 27.8455-44.3306C27.6933-44.5141 27.5284-44.6818 27.3584-44.8372C27.1883-44.9927 27.0113-45.1298 26.8323-45.2464C26.6534-45.363 26.4745-45.461 26.2867-45.5387C26.0989-45.6164 25.6656-46.7011 25.6827-47.9743C25.6999-49.2476 25.9273-50.6828 25.7217-50.6827ZM62.1978-50.6633C61.9922-50.6634 62.2001-49.2281 62.2173-47.9548C62.2344-46.6816 61.8206-45.5775 61.6327-45.4997C61.4449-45.4219 61.2466-45.3241 61.0677-45.2075C60.8888-45.0909 60.7311-44.9732 60.5611-44.8178C60.391-44.6624 60.2262-44.4751 60.0739-44.2916C59.9217-44.1082 59.7797-43.9186 59.6453-43.7071C59.5109-43.4955 59.3722-43.2647 59.2556-43.0251C59.1388-42.7854 59.0427-42.5329 58.9438-42.2652C58.8449-41.9976 58.7647-41.7296 58.6905-41.4468C58.6164-41.164 58.5451-40.8679 58.4957-40.57C58.4462-40.2721 58.4034-39.9672 58.3788-39.6542C58.354-39.3411 58.3398-39.0275 58.3398-38.6994C58.3398-38.3756 58.354-38.0545 58.3788-37.7446C58.4034-37.4349 58.4462-37.1246 58.4957-36.8289C58.5451-36.5331 58.6163-36.2532 58.6905-35.9715C58.7647-35.6897 58.8449-35.4208 58.9438-35.1531C59.0427-34.8855 59.1389-34.6334 59.2556-34.3932C59.3722-34.1531 59.5108-33.9239 59.6453-33.7112C59.7797-33.4986 59.9217-33.2923 60.0739-33.1072C60.2262-32.9221 60.391-32.7582 60.5611-32.6006C60.7311-32.443 60.8888-32.2901 61.0677-32.1719C61.2466-32.0537 61.4449-31.9584 61.6327-31.8796C61.8206-31.8008 62.0011-31.7436 62.1978-31.7042C62.3946-31.6649 62.5962-31.6458 62.8018-31.6458C63.0075-31.6457 63.2096-31.6649 63.4059-31.7042C63.6021-31.7437 63.8036-31.8008 63.9905-31.8796C64.1773-31.9584 64.3585-32.0537 64.5361-32.1719C64.7135-32.2901 64.8746-32.443 65.0427-32.6006C65.2107-32.7582 65.3785-32.9226 65.5298-33.1072C65.681-33.2917 65.824-33.4997 65.9584-33.7112C66.0929-33.9228 66.211-34.1352 66.3287-34.3737C66.4463-34.6123 66.5591-34.8681 66.6599-35.1336C66.7607-35.3992 66.8571-35.6708 66.9327-35.952C67.0083-36.2333 67.0576-36.532 67.1081-36.8289C67.1585-37.1257 67.1997-37.4127 67.225-37.7252C67.2502-38.0376 67.264-38.3713 67.264-38.6994C67.2639-39.0276 67.2502-39.3412 67.225-39.6542C67.1998-39.9672 67.1585-40.2721 67.1081-40.57C67.0576-40.8679 67.0083-41.164 66.9327-41.4468C66.8571-41.7296 66.7607-41.9975 66.6599-42.2652C66.559-42.5329 66.4463-42.7855 66.3287-43.0251C66.211-43.2647 66.0929-43.4956 65.9584-43.7071C65.824-43.9186 65.681-44.1082 65.5298-44.2916C65.3785-44.4752 65.2107-44.6623 65.0427-44.8178C64.8746-44.9732 64.7135-45.0909 64.5361-45.2075C64.3586-45.3241 64.1773-45.422 63.9905-45.4997C63.8036-45.5775 63.9744-46.8331 63.7956-47.9743C63.6167-49.1156 62.4035-50.6633 62.1978-50.6633ZM44.0767-43.3174C43.9893-43.3192 43.5451-43.3077 43.4532-43.2979C40.0404-43.0512 38.0654-40.6358 37.3738-39.3424C36.635-37.9609 36.1772-35.3193 29.1121-31.4899C25.2371-29.3897 23.0773-24.6277 23.7732-21.1433C24.4157-17.926 25.2782-14.0061 31.801-12.6673C33.5821-12.3017 34.5818-12.7838 35.6981-13.0375C36.8142-13.2912 37.8924-13.5717 38.9326-13.8559C39.7444-14.0791 40.57-14.2679 41.4072-14.4404C42.1896-14.6017 43.0275-14.6638 43.9208-14.6742C44.8222-14.6649 45.6845-14.5835 46.4733-14.421C47.3105-14.2484 48.1361-14.0597 48.948-13.8364C49.9881-13.5523 51.0662-13.2717 52.1825-13.018C53.2986-12.7644 54.2789-12.2822 56.06-12.6478C62.5828-13.9866 63.4648-17.9065 64.1074-21.1238C64.8032-24.6082 62.6433-29.3703 58.7685-31.4704C51.7033-35.2998 51.2455-37.9414 50.5068-39.323C49.8407-40.5685 47.9584-42.8268 44.7781-43.22C44.5683-43.2582 44.2583-43.3136 44.0767-43.3174Z"/>
  </g>
 </g>
</svg>
