<?xml version="1.0" encoding="UTF-8" standalone="no"?>
<!DOCTYPE svg PUBLIC "-//W3C//DTD SVG 1.1//EN" "http://www.w3.org/Graphics/SVG/1.1/DTD/svg11.dtd">

<!-- Created with Vectornator (http://vectornator.io/) -->
<svg
  height="100%"
  stroke-miterlimit="10"
  style="fill-rule:nonzero;clip-rule:evenodd;stroke-linecap:round;stroke-linejoin:round;"
  version="1.1"
  viewBox="0 0 1521 1510"
  width="100%"
  xml:space="preserve"
  xmlns="http://www.w3.org/2000/svg"
  xmlns:vectornator="http://vectornator.io"
  xmlns:xlink="http://www.w3.org/1999/xlink">
  <metadata>
    <vectornator:setting key="IsTimeLapseWatermarkDisabled" value="false"/>
    <vectornator:setting key="UndoHistoryDisabled" value="true"/>
    <vectornator:setting key="VNDimensionsVisible" value="true"/>
    <vectornator:setting key="VNSnapToGuides" value="true"/>
    <vectornator:setting key="WDCMYKEnabledKey" value="false"/>
    <vectornator:setting key="WDDisplayWhiteBackground" value="false"/>
    <vectornator:setting key="WDDynamicGuides" value="false"/>
    <vectornator:setting key="WDGuidesVisible" value="true"/>
    <vectornator:setting key="WDIsolateActiveLayer" value="false"/>
    <vectornator:setting key="WDOutlineMode" value="false"/>
    <vectornator:setting key="WDRulersVisible" value="true"/>
    <vectornator:setting key="WDSnapToEdges" value="false"/>
    <vectornator:setting key="WDSnapToGrid" value="false"/>
    <vectornator:setting key="WDSnapToPoints" value="false"/>
    <vectornator:setting key="WDUnits" value="Points"/>
  </metadata>
  <defs>
    <radialGradient cx="762.5" cy="756.5" gradientTransform="matrix(1 0 0 1 0 0)" gradientUnits="userSpaceOnUse" id="RadialGradient" r="759.5">
      <stop offset="0" stop-color="#d58659"/>
      <stop offset="1" stop-color="#7c492c"/>
    </radialGradient>
  </defs>
  <g id="Ebene-1" vectornator:layerName="Ebene 1">
    <path
      d="M668 6C624 8.66667 588 12.8333 560 18.5C532 24.1667 510.833 29.3333 496.5 34C482.167 38.6667 470.833 42.8333 462.5 46.5C454.167 50.1667 443.833 55.3333 431.5 62C419.167 68.6667 407 76 395 84C383 92 376.5 95.8333 375.5 95.5C374.5 95.1667 372.667 92.1667 370 86.5C367.333 80.8333 363.333 74.1667 358 66.5C352.667 58.8333 348.167 53 344.5 49C340.833 45 335.333 40.1667 328 34.5C320.667 28.8333 314.5 24.6667 309.5 22C304.5 19.3333 298.5 16.8333 291.5 14.5C284.5 12.1667 278 10.5 272 9.5C266 8.5 258.333 8.16667 249 8.5C239.667 8.83333 230.667 10.1667 222 12.5C213.333 14.8333 205 18 197 22C189 26 181.833 30.3333 175.5 35C169.167 39.6667 160.667 47.6667 150 59C139.333 70.3333 129.5 83 120.5 97C111.5 111 104.833 122.5 100.5 131.5C96.1667 140.5 91.8333 150.833 87.5 162.5C83.1667 174.167 79 188.833 75 206.5C71 224.167 68.6667 241.833 68 259.5C67.3333 277.167 67.6667 290.5 69 299.5C70.3333 308.5 72 316.333 74 323C76 329.667 79.5 337.333 84.5 346C89.5 354.667 95 361.667 101 367C107 372.333 112.5 376.167 117.5 378.5C122.5 380.833 128.167 382.5 134.5 383.5C140.833 384.5 144 385.333 144 386C144 386.667 139 397.833 129 419.5C119 441.167 108.167 466.5 96.5 495.5C84.8333 524.5 75.8333 548.333 69.5 567C63.1667 585.667 57.1667 605.833 51.5 627.5C45.8333 649.167 39.8333 675.333 33.5 706C27.1667 736.667 21.8333 765.167 17.5 791.5C13.1667 817.833 9.66667 844.167 7 870.5C4.33333 896.833 3 921 3 943C3 965 3.5 984.333 4.5 1001C5.5 1017.67 7.16667 1033.17 9.5 1047.5C11.8333 1061.83 15 1076.67 19 1092C23 1107.33 28.5 1124.17 35.5 1142.5C42.5 1160.83 49.3333 1175.83 56 1187.5C62.6667 1199.17 70 1210 78 1220C86 1230 94 1239 102 1247C110 1255 120.333 1264 133 1274C145.667 1284 157.167 1292 167.5 1298C177.833 1304 186.833 1310 194.5 1316C202.167 1322 217 1331.67 239 1345C261 1358.33 281.667 1369.83 301 1379.5C320.333 1389.17 341.667 1398.67 365 1408C388.333 1417.33 419.833 1428.33 459.5 1441C499.167 1453.67 539.167 1465.33 579.5 1476C619.833 1486.67 653.167 1494.67 679.5 1500C705.833 1505.33 723.667 1508.5 733 1509.5C742.333 1510.5 752.333 1511 763 1511C773.667 1511 786.833 1510 802.5 1508C818.167 1506 839.333 1502 866 1496C892.667 1490 925.667 1481.67 965 1471C1004.33 1460.33 1042.83 1448.83 1080.5 1436.5C1118.17 1424.17 1146.83 1414 1166.5 1406C1186.17 1398 1205.67 1389.17 1225 1379.5C1244.33 1369.83 1265 1358.33 1287 1345C1309 1331.67 1323.33 1322.33 1330 1317C1336.67 1311.67 1343.67 1307 1351 1303C1358.33 1299 1366.5 1293.83 1375.5 1287.5C1384.5 1281.17 1393 1274.67 1401 1268C1409 1261.33 1419.33 1251.17 1432 1237.5C1444.67 1223.83 1454.33 1212 1461 1202C1467.67 1192 1473.83 1181 1479.5 1169C1485.17 1157 1491.33 1140.67 1498 1120C1504.67 1099.33 1509.67 1080.67 1513 1064C1516.33 1047.33 1518.67 1032.67 1520 1020C1521.33 1007.33 1522 990.833 1522 970.5C1522 950.167 1521.33 929 1520 907C1518.67 885 1516.67 863.5 1514 842.5C1511.33 821.5 1506.83 793.5 1500.5 758.5C1494.17 723.5 1487.5 691 1480.5 661C1473.5 631 1464.5 599.667 1453.5 567C1442.5 534.333 1427.5 496.167 1408.5 452.5C1389.5 408.833 1380 386.667 1380 386C1380 385.333 1383.17 384.5 1389.5 383.5C1395.83 382.5 1401.17 381 1405.5 379C1409.83 377 1413.83 374.667 1417.5 372C1421.17 369.333 1425.17 365.5 1429.5 360.5C1433.83 355.5 1438.5 347.333 1443.5 336C1448.5 324.667 1452 311.833 1454 297.5C1456 283.167 1456.83 271 1456.5 261C1456.17 251 1455.33 241.167 1454 231.5C1452.67 221.833 1449.33 207.5 1444 188.5C1438.67 169.5 1431.33 150.333 1422 131C1412.67 111.667 1403.67 96 1395 84C1386.33 72 1377.17 61.3333 1367.5 52C1357.83 42.6667 1347.5 34.6667 1336.5 28C1325.5 21.3333 1314.83 16.5 1304.5 13.5C1294.17 10.5 1283 9 1271 9C1259 9 1247.83 10.5 1237.5 13.5C1227.17 16.5 1217.17 21 1207.5 27C1197.83 33 1188.83 40.5 1180.5 49.5C1172.17 58.5 1164.67 68.6667 1158 80C1154.67 85.6667 1151.33 91.3333 1148 97C1141.83 92.8333 1135.67 88.6667 1129.5 84.5C1117.17 76.1667 1104.83 68.6667 1092.5 62C1080.17 55.3333 1067.5 49.3333 1054.5 44C1041.5 38.6667 1027.5 33.8333 1012.5 29.5C997.5 25.1667 982 21.3333 966 18C950 14.6667 935.667 12.1667 923 10.5C910.333 8.83333 885 7 847 5C809 3 780.667 2 762 2C743.333 2 712 3.33333 668 6Z"
      fill="url(#RadialGradient)"
      fill-rule="evenodd"
      opacity="1"
      stroke="none"/>
    <path
      d="M516 390C508 391.333 501 393.167 495 395.5C489 397.833 482.5 401.333 475.5 406C468.5 410.667 461.333 416.667 454 424C446.667 431.333 440 439.333 434 448C428 456.667 422.833 465.333 418.5 474C414.167 482.667 409.333 496 404 514C398.667 532 395.5 545 394.5 553C393.5 561 393 571.167 393 583.5C393 595.833 394 607.667 396 619C398 630.333 400.5 640.167 403.5 648.5C406.5 656.833 410.5 665 415.5 673C420.5 681 425.5 687.5 430.5 692.5C435.5 697.5 441 701.833 447 705.5C453 709.167 459.333 712 466 714C472.667 716 480.333 717 489 717C497.667 717 506 715.833 514 713.5C522 711.167 529.667 707.833 537 703.5C544.333 699.167 551.5 693.833 558.5 687.5C565.5 681.167 572.5 673.333 579.5 664C586.5 654.667 592 646.333 596 639C600 631.667 604.333 621.833 609 609.5C613.667 597.167 617.167 585.667 619.5 575C621.833 564.333 623.333 556.167 624 550.5C624.667 544.833 624.833 534 624.5 518C624.167 502 623 489.333 621 480C619 470.667 616 461.167 612 451.5C608 441.833 603.333 433.333 598 426C592.667 418.667 586.667 412.333 580 407C573.333 401.667 566.833 397.667 560.5 395C554.167 392.333 547.167 390.5 539.5 389.5C531.833 388.5 524 388.667 516 390Z"
      fill="#5d361f"
      fill-rule="evenodd"
      opacity="1"
      stroke="none"/>
    <path
      d="M972.655 390.915C964.322 392.915 956.822 395.915 950.155 399.915C943.488 403.915 937.488 408.582 932.155 413.915C926.822 419.249 921.655 426.082 916.655 434.415C911.655 442.749 907.655 451.249 904.655 459.915C901.655 468.582 899.322 477.915 897.655 487.915C895.988 497.915 895.155 509.415 895.155 522.415C895.155 535.415 895.655 545.749 896.655 553.415C897.655 561.082 899.155 569.249 901.155 577.915C903.155 586.582 906.488 597.082 911.155 609.415C915.822 621.749 920.155 631.582 924.155 638.915C928.155 646.249 933.655 654.582 940.655 663.915C947.655 673.249 954.655 681.082 961.655 687.415C968.655 693.749 975.822 699.082 983.155 703.415C990.488 707.749 998.155 711.082 1006.15 713.415C1014.15 715.749 1022.49 716.915 1031.15 716.915C1039.82 716.915 1047.49 715.915 1054.15 713.915C1060.82 711.915 1067.15 709.082 1073.15 705.415C1079.15 701.749 1084.65 697.415 1089.65 692.415C1094.65 687.415 1099.82 680.582 1105.15 671.915C1110.49 663.249 1114.82 653.749 1118.15 643.415C1121.49 633.082 1123.82 623.582 1125.15 614.915C1126.49 606.249 1127.15 595.749 1127.15 583.415C1127.15 571.082 1126.65 560.915 1125.65 552.915C1124.65 544.915 1122.65 535.082 1119.65 523.415C1116.65 511.749 1113.15 500.915 1109.15 490.915C1105.15 480.915 1099.99 470.582 1093.65 459.915C1087.32 449.249 1081.82 441.082 1077.15 435.415C1072.49 429.749 1067.65 424.582 1062.65 419.915C1057.65 415.249 1051.32 410.415 1043.65 405.415C1035.99 400.415 1028.15 396.582 1020.15 393.915C1012.15 391.249 1004.32 389.582 996.655 388.915C988.988 388.249 980.988 388.915 972.655 390.915Z"
      fill="#5d361f"
      fill-rule="evenodd"
      opacity="1"
      stroke="none"/>
    <path
      d="M974.679 404.382C967.276 406.159 960.613 408.824 954.691 412.378C948.768 415.931 943.438 420.077 938.7 424.815C933.962 429.553 929.372 435.623 924.93 443.026C920.489 450.429 916.935 457.981 914.27 465.68C911.605 473.379 909.532 481.67 908.051 490.554C906.571 499.438 905.831 509.654 905.831 521.203C905.831 532.751 906.275 541.931 907.163 548.742C908.051 555.553 909.384 562.808 911.161 570.507C912.937 578.206 915.899 587.534 920.044 598.49C924.19 609.447 928.04 618.182 931.593 624.697C935.147 631.212 940.033 638.615 946.251 646.906C952.47 655.198 958.688 662.156 964.907 667.783C971.125 673.409 977.492 678.147 984.007 681.997C990.521 685.846 997.332 688.807 1004.44 690.88C1011.55 692.953 1018.95 693.99 1026.65 693.99C1034.35 693.99 1041.16 693.101 1047.08 691.324C1053 689.548 1058.63 687.031 1063.96 683.773C1069.29 680.516 1074.18 676.666 1078.62 672.225C1083.06 667.783 1087.65 661.712 1092.39 654.013C1097.13 646.314 1100.97 637.874 1103.94 628.695C1106.9 619.515 1108.97 611.075 1110.15 603.376C1111.34 595.677 1111.93 586.349 1111.93 575.393C1111.93 564.436 1111.49 555.405 1110.6 548.298C1109.71 541.191 1107.93 532.455 1105.27 522.091C1102.6 511.727 1099.49 502.103 1095.94 493.219C1092.39 484.335 1087.8 475.156 1082.17 465.68C1076.54 456.204 1071.66 448.949 1067.51 443.915C1063.37 438.881 1059.07 434.291 1054.63 430.145C1050.19 425.999 1044.56 421.706 1037.75 417.264C1030.94 412.822 1023.98 409.417 1016.88 407.048C1009.77 404.679 1002.81 403.198 996 402.606C989.189 402.014 982.082 402.606 974.679 404.382Z"
      fill="#000000"
      fill-rule="evenodd"
      opacity="1"
      stroke="none"/>
    <path
      d="M516.954 404.284C509.739 405.487 503.426 407.14 498.015 409.245C492.603 411.349 486.741 414.506 480.428 418.715C474.115 422.923 467.651 428.335 461.037 434.948C454.424 441.562 448.411 448.777 443 456.594C437.589 464.41 432.929 472.226 429.021 480.042C425.113 487.859 420.753 499.884 415.943 516.118C411.133 532.352 408.277 544.076 407.376 551.291C406.474 558.506 406.023 567.675 406.023 578.798C406.023 589.922 406.925 600.594 408.728 610.815C410.532 621.037 412.787 629.905 415.492 637.421C418.198 644.936 421.806 652.302 426.315 659.517C430.824 666.732 435.334 672.594 439.843 677.104C444.353 681.613 449.313 685.521 454.724 688.828C460.136 692.135 465.848 694.69 471.86 696.494C477.873 698.298 484.787 699.2 492.603 699.2C500.42 699.2 507.935 698.147 515.15 696.043C522.365 693.939 529.28 690.932 535.894 687.024C542.507 683.116 548.971 678.306 555.284 672.594C561.597 666.882 567.91 659.817 574.224 651.4C580.537 642.982 585.497 635.467 589.105 628.853C592.712 622.239 596.62 613.371 600.829 602.247C605.038 591.124 608.194 580.753 610.299 571.132C612.403 561.512 613.756 554.147 614.357 549.036C614.959 543.926 615.109 534.155 614.808 519.725C614.508 505.295 613.455 493.871 611.652 485.454C609.848 477.036 607.142 468.468 603.535 459.75C599.927 451.032 595.718 443.366 590.908 436.752C586.098 430.138 580.687 424.426 574.675 419.616C568.662 414.806 562.8 411.199 557.088 408.794C551.376 406.389 545.063 404.735 538.148 403.833C531.234 402.932 524.169 403.082 516.954 404.284Z"
      fill="#000000"
      fill-rule="evenodd"
      opacity="1"
      stroke="none"/>
    <g opacity="1">
      <path
        d="M527 412C524.333 412.667 521.667 414.5 519 417.5C516.333 420.5 513.333 426.833 510 436.5C506.667 446.167 504.833 456 504.5 466C504.167 476 505 486.667 507 498C509 509.333 512.167 520 516.5 530C520.833 540 525.667 548.167 531 554.5C536.333 560.833 542.333 565.5 549 568.5C555.667 571.5 562.167 572.833 568.5 572.5C574.833 572.167 580 571 584 569C588 567 591.333 564.667 594 562C596.667 559.333 599.5 555.333 602.5 550C605.5 544.667 607.333 535.833 608 523.5C608.667 511.167 608.333 500.5 607 491.5C605.667 482.5 602.833 473.167 598.5 463.5C594.167 453.833 588.833 445.167 582.5 437.5C576.167 429.833 570.167 424.167 564.5 420.5C558.833 416.833 553.5 414.333 548.5 413C543.5 411.667 539.333 411 536 411C532.667 411 529.667 411.333 527 412Z"
        fill="#ffffff"
        fill-rule="evenodd"
        opacity="1"
        stroke="none"/>
      <path
        d="M1000 417C996 421 992.833 425.667 990.5 431C988.167 436.333 986.5 441.5 985.5 446.5C984.5 451.5 984 458.167 984 466.5C984 474.833 985.167 484.833 987.5 496.5C989.833 508.167 992.667 518 996 526C999.333 534 1004 542 1010 550C1016 558 1020.33 563 1023 565C1025.67 567 1029.5 569 1034.5 571C1039.5 573 1045.67 573.833 1053 573.5C1060.33 573.167 1065.83 572 1069.5 570C1073.17 568 1076.33 565.667 1079 563C1081.67 560.333 1084.67 555.333 1088 548C1091.33 540.667 1093.33 533.833 1094 527.5C1094.67 521.167 1093.83 513.5 1091.5 504.5C1089.17 495.5 1086.83 488.333 1084.5 483C1082.17 477.667 1078.67 471.333 1074 464C1069.33 456.667 1063.17 448.833 1055.5 440.5C1047.83 432.167 1040 425.5 1032 420.5C1024 415.5 1017.67 412.667 1013 412C1008.33 411.333 1004 413 1000 417Z"
        fill="#ffffff"
        fill-rule="evenodd"
        opacity="1"
        stroke="none"/>
      <path
        d="M433 614.5C431.667 616.167 431 618 431 620C431 622 431.5 623.667 432.5 625C433.5 626.333 435.333 627 438 627C440.667 627 442.5 625.333 443.5 622C444.5 618.667 444.5 616.333 443.5 615C442.5 613.667 440.833 612.833 438.5 612.5C436.167 612.167 434.333 612.833 433 614.5Z"
        fill="#ffffff"
        fill-rule="evenodd"
        opacity="1"
        stroke="#ffffff"
        stroke-linecap="round"
        stroke-linejoin="round"
        stroke-width="1"/>
      <path
        d="M944 614.5C942.667 616.167 942 618 942 620C942 622 942.833 623.833 944.5 625.5C946.167 627.167 948 627.833 950 627.5C952 627.167 953.5 625.333 954.5 622C955.5 618.667 955.5 616.333 954.5 615C953.5 613.667 951.833 612.833 949.5 612.5C947.167 612.167 945.333 612.833 944 614.5Z"
        fill="#ffffff"
        fill-rule="evenodd"
        opacity="1"
        stroke="#ffffff"
        stroke-linecap="round"
        stroke-linejoin="round"
        stroke-width="1"/>
      <path
        d="M446.5 636.5C444.167 638.833 443.167 641.5 443.5 644.5C443.833 647.5 445.333 650.833 448 654.5C450.667 658.167 453.167 660.5 455.5 661.5C457.833 662.5 459.833 662.833 461.5 662.5C463.167 662.167 464.667 661.167 466 659.5C467.333 657.833 467.833 655.167 467.5 651.5C467.167 647.833 465.5 644.167 462.5 640.5C459.5 636.833 456.667 634.667 454 634C451.333 633.333 448.833 634.167 446.5 636.5Z"
        fill="#ffffff"
        fill-rule="evenodd"
        opacity="1"
        stroke="#ffffff"
        stroke-linecap="round"
        stroke-linejoin="round"
        stroke-width="1"/>
      <path
        d="M957 636C955 638 954 640.333 954 643C954 645.667 954.5 648 955.5 650C956.5 652 958 654.167 960 656.5C962 658.833 964.167 660.5 966.5 661.5C968.833 662.5 970.833 662.833 972.5 662.5C974.167 662.167 975.667 661.333 977 660C978.333 658.667 978.667 655.667 978 651C977.333 646.333 975.667 642.5 973 639.5C970.333 636.5 967.5 634.667 964.5 634C961.5 633.333 959 634 957 636Z"
        fill="#ffffff"
        fill-rule="evenodd"
        opacity="1"
        stroke="#ffffff"
        stroke-linecap="round"
        stroke-linejoin="round"
        stroke-width="1"/>
    </g>
    <path
      d="M740 866C732.667 867.333 726.833 869 722.5 871C718.167 873 714.5 875.333 711.5 878C708.5 880.667 706.333 883.667 705 887C703.667 890.333 702.833 895.167 702.5 901.5C702.167 907.833 703.167 913.833 705.5 919.5C707.833 925.167 711.5 931.667 716.5 939C721.5 946.333 726.5 952.833 731.5 958.5C736.5 964.167 740.667 968.5 744 971.5C747.333 974.5 750.5 976.333 753.5 977C756.5 977.667 758 980.833 758 986.5C758 992.167 756.833 1001.83 754.5 1015.5C752.167 1029.17 749.167 1041.33 745.5 1052C741.833 1062.67 737.333 1073.17 732 1083.5C726.667 1093.83 720.333 1104 713 1114C705.667 1124 696.167 1134.33 684.5 1145C672.833 1155.67 660.833 1164.33 648.5 1171C636.167 1177.67 624 1182.5 612 1185.5C600 1188.5 588.833 1190 578.5 1190C568.167 1190 559.667 1189.33 553 1188C546.333 1186.67 537.333 1183.33 526 1178C514.667 1172.67 506.833 1168.33 502.5 1165C498.167 1161.67 493.333 1157.17 488 1151.5C482.667 1145.83 476.667 1137.5 470 1126.5C463.333 1115.5 458.667 1106.33 456 1099C453.333 1091.67 451.167 1083.17 449.5 1073.5C447.833 1063.83 446.667 1058.5 446 1057.5C445.333 1056.5 444.333 1056 443 1056C442.333 1056 441.667 1056 441 1056C441.167 1059.33 441.333 1062.67 441.5 1066C441.833 1072.67 443.667 1081.5 447 1092.5C450.333 1103.5 454.5 1114.17 459.5 1124.5C464.5 1134.83 469.333 1143.17 474 1149.5C478.667 1155.83 486 1163.33 496 1172C506 1180.67 517.167 1187.83 529.5 1193.5C541.833 1199.17 554 1203 566 1205C578 1207 590.833 1207.5 604.5 1206.5C618.167 1205.5 631 1203.17 643 1199.5C655 1195.83 667.833 1190.17 681.5 1182.5C695.167 1174.83 705.667 1168 713 1162C720.333 1156 727.833 1148.83 735.5 1140.5C743.167 1132.17 748.833 1125.17 752.5 1119.5C756.167 1113.83 759 1110.67 761 1110C763 1109.33 768.167 1114.5 776.5 1125.5C784.833 1136.5 794.5 1146.83 805.5 1156.5C816.5 1166.17 827.333 1174.17 838 1180.5C848.667 1186.83 860.667 1192.33 874 1197C887.333 1201.67 898.833 1204.67 908.5 1206C918.167 1207.33 929.833 1207.5 943.5 1206.5C957.167 1205.5 969.5 1203.17 980.5 1199.5C991.5 1195.83 1002.33 1190.5 1013 1183.5C1023.67 1176.5 1032.67 1169 1040 1161C1047.33 1153 1053.83 1144 1059.5 1134C1065.17 1124 1070.33 1111.83 1075 1097.5C1079.67 1083.17 1082.17 1072.67 1082.5 1066C1082.67 1062.67 1082.83 1059.33 1083 1056C1082.33 1056 1081.67 1056 1081 1056C1079.67 1056 1078.67 1056.5 1078 1057.5C1077.33 1058.5 1076.17 1063.83 1074.5 1073.5C1072.83 1083.17 1070.67 1091.67 1068 1099C1065.33 1106.33 1060.67 1115.5 1054 1126.5C1047.33 1137.5 1041.33 1145.83 1036 1151.5C1030.67 1157.17 1025.83 1161.67 1021.5 1165C1017.17 1168.33 1009.33 1172.67 998 1178C986.667 1183.33 977.667 1186.67 971 1188C964.333 1189.33 955.833 1190 945.5 1190C935.167 1190 924 1188.5 912 1185.5C900 1182.5 887.833 1177.67 875.5 1171C863.167 1164.33 851.167 1155.67 839.5 1145C827.833 1134.33 818.333 1124 811 1114C803.667 1104 797.333 1093.83 792 1083.5C786.667 1073.17 782.167 1062.67 778.5 1052C774.833 1041.33 771.833 1029.17 769.5 1015.5C767.167 1001.83 766 992.167 766 986.5C766 980.833 767.5 977.667 770.5 977C773.5 976.333 776.667 974.5 780 971.5C783.333 968.5 787.5 964.167 792.5 958.5C797.5 952.833 802.5 946.333 807.5 939C812.5 931.667 816.167 925.167 818.5 919.5C820.833 913.833 821.667 907.167 821 899.5C820.333 891.833 818.5 886 815.5 882C812.5 878 808.833 874.833 804.5 872.5C800.167 870.167 793.833 868.167 785.5 866.5C777.167 864.833 769.333 864 762 864C754.667 864 747.333 864.667 740 866Z"
      fill="#000000"
      fill-rule="evenodd"
      opacity="1"
      stroke="#000000"
      stroke-linecap="round"
      stroke-linejoin="round"
      stroke-width="1"/>
    <g opacity="1">
      <path
        d="M99.0902 133.912C97.7568 136.246 91.5853 152.063 89.4187 157.396C85.0853 168.063 81.355 180.54 77.355 195.54C73.355 210.54 71.3333 222.833 70 232.5C68.6667 242.167 67.3544 258.263 67.4493 268.994C67.5715 282.817 68.1054 293.346 69.1054 300.012C70.1054 306.679 71.4919 315.037 74.1586 323.37C76.8253 331.704 81.2891 340.324 86.6225 348.99C91.9558 357.657 98.3284 365.088 105.995 370.755C113.662 376.422 119.341 379.311 123.008 380.644C126.674 381.977 137.478 383.914 143.699 385.589C144.894 385.911 149 377 157 361C161 353 165 345 169 337C166.833 337.5 164.667 338 162.5 338.5C158.167 339.5 154.333 339.833 151 339.5C147.667 339.167 144.333 338.333 141 337C137.667 335.667 129.182 330.954 126.182 328.62C123.182 326.287 117.539 322.718 105.32 309.084C86.7622 288.379 86.5 238.167 85.5 222.5C85 214.667 87.8243 153.672 102.046 128.597C101.379 129.763 99.7568 132.746 99.0902 133.912Z"
        fill="#5d361f"
        fill-rule="evenodd"
        opacity="1"
        stroke="#5d361f"
        stroke-linecap="round"
        stroke-linejoin="round"
        stroke-width="1"/>
      <path
        d="M1520.5 962C1520.17 974.667 1518.67 990.167 1516 1008.5C1513.33 1026.83 1509.67 1044.83 1505 1062.5C1500.33 1080.17 1494.5 1098 1487.5 1116C1480.5 1134 1473.67 1148.67 1467 1160C1460.33 1171.33 1453.83 1181 1447.5 1189C1441.17 1197 1434.5 1204.67 1427.5 1212C1420.5 1219.33 1410.5 1228.33 1397.5 1239C1384.5 1249.67 1358.83 1267.33 1320.5 1292C1282.17 1316.67 1254 1333.67 1236 1343C1218 1352.33 1198.83 1361.33 1178.5 1370C1158.17 1378.67 1131.33 1388.67 1098 1400C1064.67 1411.33 1035.33 1420.67 1010 1428C984.667 1435.33 951.333 1444.17 910 1454.5C868.667 1464.83 817 1475 817 1475C817 1475 774.706 1482.16 747.289 1479.85C740.969 1479.31 662.077 1463.85 662.077 1463.85C662.077 1463.85 606.833 1453.17 570.5 1443.5C534.167 1433.83 497.667 1423.17 461 1411.5C424.333 1399.83 396 1390.17 376 1382.5C356 1374.83 335.5 1366 314.5 1356C293.5 1346 276.5 1337.33 263.5 1330C250.5 1322.67 225.667 1306.83 189 1282.5C152.333 1258.17 129.5 1242.17 120.5 1234.5C111.5 1226.83 101.167 1216.5 89.5 1203.5C77.8333 1190.5 68.5 1178.5 61.5 1167.5C54.5 1156.5 47.8333 1143.67 41.5 1129C35.1667 1114.33 28.8333 1096 22.5 1074C16.1667 1052 11.6667 1031.17 9 1011.5C7.66667 1001.67 6.33333 991.833 5 982C4.83333 985.167 4.66667 988.333 4.5 991.5C4.16667 997.833 5.16667 1010.33 7.5 1029C9.83333 1047.67 12.6667 1064.17 16 1078.5C19.3333 1092.83 24.1667 1109.33 30.5 1128C36.8333 1146.67 43.1667 1162.33 49.5 1175C55.8333 1187.67 63.1667 1199.67 71.5 1211C79.8333 1222.33 88.6667 1232.83 98 1242.5C107.333 1252.17 118 1261.83 130 1271.5C142 1281.17 153.333 1289.17 164 1295.5C174.667 1301.83 184.667 1308.5 194 1315.5C203.333 1322.5 217.833 1332 237.5 1344C257.167 1356 276.5 1366.83 295.5 1376.5C314.5 1386.17 335.833 1395.83 359.5 1405.5C383.167 1415.17 406 1423.67 428 1431C450 1438.33 476.167 1446.5 506.5 1455.5C536.833 1464.5 571.833 1474 611.5 1484C651.167 1494 680.5 1500.67 699.5 1504C718.5 1507.33 736.333 1509.33 753 1510C769.667 1510.67 788.5 1509.5 809.5 1506.5C830.5 1503.5 863.167 1496.5 907.5 1485.5C951.833 1474.5 989.167 1464.5 1019.5 1455.5C1049.83 1446.5 1080.83 1436.5 1112.5 1425.5C1144.17 1414.5 1167 1406 1181 1400C1195 1394 1213.83 1384.83 1237.5 1372.5C1261.17 1360.17 1292.5 1341.17 1331.5 1315.5C1370.5 1289.83 1394.17 1273.5 1402.5 1266.5C1410.83 1259.5 1420.83 1249.67 1432.5 1237C1444.17 1224.33 1453.67 1212.5 1461 1201.5C1468.33 1190.5 1474.83 1178.83 1480.5 1166.5C1486.17 1154.17 1491.83 1139.33 1497.5 1122C1503.17 1104.67 1507.83 1087.5 1511.5 1070.5C1515.17 1053.5 1517.83 1037.33 1519.5 1022C1521.17 1006.67 1521.83 989.667 1521.5 971C1521.33 961.667 1521.17 952.333 1521 943C1520.83 949.333 1520.67 955.667 1520.5 962Z"
        fill="#5d361f"
        fill-rule="evenodd"
        opacity="1"
        stroke="#5d361f"
        stroke-linecap="round"
        stroke-linejoin="round"
        stroke-width="1"/>
      <path
        d="M1424.37 135.245C1425.7 137.578 1431.88 153.395 1434.04 158.728C1438.38 169.395 1442.11 181.873 1446.11 196.873C1450.11 211.873 1452.13 224.166 1453.46 233.832C1454.79 243.499 1456.11 259.595 1456.01 270.327C1455.89 284.149 1455.36 294.678 1454.36 301.345C1453.36 308.011 1451.97 316.369 1449.3 324.702C1446.64 333.036 1442.17 341.656 1436.84 350.322C1431.5 358.989 1425.13 366.421 1417.47 372.087C1409.8 377.754 1404.12 380.643 1400.45 381.976C1396.79 383.31 1385.98 385.246 1379.76 386.921C1378.57 387.243 1374.46 378.332 1366.46 362.332C1362.46 354.332 1358.46 346.332 1354.46 338.332C1356.63 338.832 1358.79 339.332 1360.96 339.832C1365.29 340.832 1369.13 341.166 1372.46 340.832C1375.79 340.499 1379.13 339.666 1382.46 338.332C1385.79 336.999 1394.28 332.286 1397.28 329.953C1400.28 327.619 1405.92 324.05 1418.14 310.417C1425.18 302.562 1429.59 290.461 1432.4 277.61C1437 256.586 1437.34 233.556 1437.96 223.832C1438.46 215.999 1435.64 155.004 1421.41 129.929C1422.08 131.095 1423.7 134.078 1424.37 135.245Z"
        fill="#5d361f"
        fill-rule="evenodd"
        opacity="1"
        stroke="#5d361f"
        stroke-linecap="round"
        stroke-linejoin="round"
        stroke-width="1"/>
    </g>
    <g opacity="1">
      <path
        d="M776.5 879.5C775.5 880.5 775 882 775 884C775 886 775.667 888.167 777 890.5C777.935 892.137 779.281 893.856 781.036 895.657C781.783 896.423 782.605 897.204 783.5 898C786.5 900.667 788.667 902 790 902C791.333 902 793.333 901.167 796 899.5C798.667 897.833 801.167 895.5 803.5 892.5C805.833 889.5 806.833 887.167 806.5 885.5C806.167 883.833 805.5 882.667 804.5 882C803.5 881.333 802 881 800 881C798 881 795.833 881.833 793.5 883.5C792.333 884.333 791.167 885.167 790 886C789.5 885 789 884 788.5 883C787.5 881 785.5 879.667 782.5 879C779.5 878.333 777.5 878.5 776.5 879.5Z"
        fill="#ffb7b7"
        fill-rule="evenodd"
        opacity="1"
        stroke="#ffb7b7"
        stroke-linecap="round"
        stroke-linejoin="round"
        stroke-width="1"/>
      <path
        d="M236.5 80.5C230.833 81.5 225.5 83 220.5 85C215.5 87 208.833 90.8333 200.5 96.5C192.167 102.167 177.322 113.928 168.717 125.175C160.39 136.058 150.667 154.833 146 166.5C141.333 178.167 138 189.667 136 201C134 212.333 133 222.833 133 232.5C133 242.167 133.5 250.167 134.5 256.5C135.5 262.833 137.167 269.667 139.5 277C141.833 284.333 144.333 290.5 147 295.5C149.667 300.5 152.333 304.833 155 308.5C157.667 312.167 161.333 316.167 166 320.5C170.667 324.833 173.667 326.5 175 325.5C176.333 324.5 180.167 317.667 186.5 305C192.833 292.333 203.833 275.167 219.5 253.5C235.167 231.833 250.167 212.5 264.5 195.5C278.833 178.5 289.667 166.333 297 159C304.333 151.667 310.833 145.833 316.5 141.5C322.167 137.167 327.538 132.1 327.459 131.641C326.668 127.066 323.428 123.733 316.652 114.264C309.876 104.796 307.995 103.178 300.328 96.5109C292.662 89.8442 285.167 86.8333 279.5 84.5C273.833 82.1667 266.667 80.6667 258 80C249.333 79.3333 242.167 79.5 236.5 80.5Z"
        fill="#ffb7b7"
        fill-rule="evenodd"
        opacity="1"
        stroke="#ffb7b7"
        stroke-linecap="round"
        stroke-linejoin="round"
        stroke-width="1"/>
      <path
        d="M1257.5 80.5C1252.5 81.5 1246.17 84 1238.5 88C1230.83 92 1224.67 96.3333 1220 101C1215.33 105.667 1211.5 110.333 1208.5 115C1205.5 119.667 1203.17 124.167 1201.5 128.5C1199.83 132.833 1201.83 137.167 1207.5 141.5C1213.17 145.833 1219.67 151.667 1227 159C1234.33 166.333 1244.17 177.667 1256.5 193C1268.83 208.333 1275.33 216 1276 216C1276.67 216 1277.33 216.833 1278 218.5C1278.67 220.167 1279.33 221 1280 221C1280.67 221 1288.83 231.833 1304.5 253.5C1320.17 275.167 1331.33 292.667 1338 306C1344.67 319.333 1348.5 326.167 1349.5 326.5C1350.5 326.833 1354.5 323.333 1361.5 316C1368.5 308.667 1373.67 301.833 1377 295.5C1380.33 289.167 1383 282.833 1385 276.5C1387 270.167 1388.5 263.667 1389.5 257C1390.5 250.333 1391 242.167 1391 232.5C1391 222.833 1390.5 214.333 1389.5 207C1388.5 199.667 1386.67 191.5 1384 182.5C1381.33 173.5 1378.5 165.667 1375.5 159C1372.5 152.333 1368.33 145 1363 137C1357.67 129 1350.67 120.667 1342 112C1333.33 103.333 1326.67 97.5 1322 94.5C1317.33 91.5 1311.83 88.6667 1305.5 86C1299.17 83.3333 1290.83 81.5 1280.5 80.5C1270.17 79.5 1262.5 79.5 1257.5 80.5Z"
        fill="#ffb7b7"
        fill-rule="evenodd"
        opacity="1"
        stroke="#ffb7b7"
        stroke-linecap="round"
        stroke-linejoin="round"
        stroke-width="1"/>
      <path
        d="M255.5 661.5C247.167 663.167 239 665.833 231 669.5C223 673.167 215.833 677.667 209.5 683C203.167 688.333 198.167 693.667 194.5 699C190.833 704.333 188 710 186 716C184 722 182.833 729 182.5 737C182.167 745 182.833 752.333 184.5 759C186.167 765.667 188.333 771.667 191 777C193.667 782.333 197 787.667 201 793C205 798.333 210.667 804.167 218 810.5C225.333 816.833 233.333 822.333 242 827C250.667 831.667 257.5 834.833 262.5 836.5C267.5 838.167 273.167 839.667 279.5 841C285.833 842.333 294 843.167 304 843.5C314 843.833 323.5 843.167 332.5 841.5C341.5 839.833 349.5 837.5 356.5 834.5C363.5 831.5 369 828.667 373 826C377 823.333 381.333 819.667 386 815C390.667 810.333 395 804.167 399 796.5C403 788.833 405.5 782.333 406.5 777C407.5 771.667 407.833 765.833 407.5 759.5C407.167 753.167 405.167 745 401.5 735C397.833 725 393.5 716.667 388.5 710C383.5 703.333 379 698.167 375 694.5C371 690.833 363.333 685.667 352 679C340.667 672.333 329.5 667.5 318.5 664.5C307.5 661.5 296.333 659.833 285 659.5C273.667 659.167 263.833 659.833 255.5 661.5Z"
        fill="#ffb7b7"
        fill-rule="evenodd"
        opacity="1"
        stroke="#ffb7b7"
        stroke-linecap="round"
        stroke-linejoin="round"
        stroke-width="1"/>
      <path
        d="M1211 663.5C1198.33 666.5 1188.5 669.667 1181.5 673C1174.5 676.333 1168.33 679.833 1163 683.5C1157.67 687.167 1151 693.333 1143 702C1135 710.667 1128.83 720 1124.5 730C1120.17 740 1117.67 749 1117 757C1116.33 765 1116.5 771.667 1117.5 777C1118.5 782.333 1120.17 787.667 1122.5 793C1124.83 798.333 1127.83 803.333 1131.5 808C1135.17 812.667 1139 816.667 1143 820C1147 823.333 1152 826.667 1158 830C1164 833.333 1170 836 1176 838C1182 840 1188.33 841.5 1195 842.5C1201.67 843.5 1210 843.833 1220 843.5C1230 843.167 1240.17 841.667 1250.5 839C1260.83 836.333 1269.5 833.333 1276.5 830C1283.5 826.667 1290.67 822.333 1298 817C1305.33 811.667 1311.17 806.667 1315.5 802C1319.83 797.333 1324 791.833 1328 785.5C1332 779.167 1335.17 772.5 1337.5 765.5C1339.83 758.5 1341.17 751 1341.5 743C1341.83 735 1341.33 728.167 1340 722.5C1338.67 716.833 1336.33 711 1333 705C1329.67 699 1326.17 694 1322.5 690C1318.83 686 1314.17 682 1308.5 678C1302.83 674 1295.67 670.333 1287 667C1278.33 663.667 1271 661.5 1265 660.5C1259 659.5 1251.67 659 1243 659C1234.33 659 1223.67 660.5 1211 663.5Z"
        fill="#ffb7b7"
        fill-rule="evenodd"
        opacity="1"
        stroke="#ffb7b7"
        stroke-linecap="round"
        stroke-linejoin="round"
        stroke-width="1"/>
    </g>
    <g opacity="1">
      <path
        d="M255.5 676.188C251.5 677.521 248.167 679.354 245.5 681.688C242.833 684.021 241.333 686.854 241 690.188C240.667 693.521 241.5 696.188 243.5 698.188C245.5 700.188 247.5 701.521 249.5 702.188C251.5 702.854 256.167 703.021 263.5 702.688C270.833 702.354 276.5 701.188 280.5 699.188C284.5 697.188 287.167 695.354 288.5 693.688C289.833 692.021 290.5 689.688 290.5 686.688C290.5 683.688 289.5 681.188 287.5 679.188C285.5 677.188 280.667 675.854 273 675.188C265.333 674.521 259.5 674.854 255.5 676.188Z"
        fill="#ffffff"
        fill-rule="evenodd"
        opacity="1"
        stroke="#ffffff"
        stroke-linecap="round"
        stroke-linejoin="round"
        stroke-width="1"/>
      <path
        d="M1238.5 676.188C1235.17 677.521 1232.83 679.354 1231.5 681.688C1230.17 684.021 1229.67 686.188 1230 688.188C1230.33 690.188 1231.67 692.354 1234 694.688C1236.33 697.021 1239.83 699.021 1244.5 700.688C1249.17 702.354 1254.33 703.188 1260 703.188C1265.67 703.188 1270.33 702.188 1274 700.188C1277.67 698.188 1279.67 695.521 1280 692.188C1280.33 688.854 1279 685.688 1276 682.688C1273 679.688 1269.5 677.521 1265.5 676.188C1261.5 674.854 1256.83 674.188 1251.5 674.188C1246.17 674.188 1241.83 674.854 1238.5 676.188Z"
        fill="#ffffff"
        fill-rule="evenodd"
        opacity="1"
        stroke="#ffffff"
        stroke-linecap="round"
        stroke-linejoin="round"
        stroke-width="1"/>
      <path
        d="M217 695.688C216 696.688 215.5 698.188 215.5 700.188C215.5 702.188 216 703.688 217 704.688C218 705.688 219.5 706.188 221.5 706.188C223.5 706.188 225.167 705.188 226.5 703.188C227.833 701.188 228.333 699.521 228 698.188C227.667 696.854 227.167 695.854 226.5 695.188C225.833 694.521 224.333 694.188 222 694.188C219.667 694.188 218 694.688 217 695.688Z"
        fill="#ffffff"
        fill-rule="evenodd"
        opacity="1"
        stroke="#ffffff"
        stroke-linecap="round"
        stroke-linejoin="round"
        stroke-width="1"/>
      <path
        d="M1294 696.688C1293 698.354 1292.67 699.854 1293 701.188C1293.33 702.521 1294 703.688 1295 704.688C1296 705.688 1297.5 706.188 1299.5 706.188C1301.5 706.188 1303 705.688 1304 704.688C1305 703.688 1305.5 702.188 1305.5 700.188C1305.5 698.188 1305 696.688 1304 695.688C1303 694.688 1301.33 694.188 1299 694.188C1296.67 694.188 1295 695.021 1294 696.688Z"
        fill="#ffffff"
        fill-rule="evenodd"
        opacity="1"
        stroke="#ffffff"
        stroke-linecap="round"
        stroke-linejoin="round"
        stroke-width="1"/>
    </g>
  </g>
</svg>
